<?xml version="1.0" encoding="UTF-8" standalone="no"?>
<!DOCTYPE svg PUBLIC "-//W3C//DTD SVG 1.1//EN"
 "http://www.w3.org/Graphics/SVG/1.1/DTD/svg11.dtd">
<!-- Generated by graphviz version 2.40.1 (20161225.0304)
 -->
<!-- Title: dependencies Pages: 1 -->
<svg width="620pt" height="284pt"
 viewBox="0.00 0.00 620.00 284.00" xmlns="http://www.w3.org/2000/svg" xmlns:xlink="http://www.w3.org/1999/xlink">
<g id="graph0" class="graph" transform="scale(1 1) rotate(0) translate(4 280)">
<title>dependencies</title>
<polygon fill="#ffffff" stroke="transparent" points="-4,4 -4,-280 616,-280 616,4 -4,4"/>
<text text-anchor="start" x="285.0091" y="-42.4" font-family="sans-serif" font-weight="bold" font-size="14.00" fill="#000000">Legend</text>
<polygon fill="#ffffb3" stroke="transparent" points="72,-10 72,-30 92,-30 92,-10 72,-10"/>
<text text-anchor="start" x="95.629" y="-15.4" font-family="sans-serif" font-size="14.00" fill="#000000"> &#160;Declarations</text>
<polygon fill="#8dd3c7" stroke="transparent" points="185,-10 185,-30 205,-30 205,-10 185,-10"/>
<text text-anchor="start" x="208.7251" y="-15.4" font-family="sans-serif" font-size="14.00" fill="#000000"> &#160;Module</text>
<polygon fill="#80b1d3" stroke="transparent" points="271,-10 271,-30 291,-30 291,-10 271,-10"/>
<text text-anchor="start" x="294.7812" y="-15.4" font-family="sans-serif" font-size="14.00" fill="#000000"> &#160;Bootstrap</text>
<polygon fill="#fdb462" stroke="transparent" points="368,-10 368,-30 388,-30 388,-10 368,-10"/>
<text text-anchor="start" x="391.6732" y="-15.4" font-family="sans-serif" font-size="14.00" fill="#000000"> &#160;Providers</text>
<polygon fill="#fb8072" stroke="transparent" points="464,-10 464,-30 484,-30 484,-10 464,-10"/>
<text text-anchor="start" x="487.7258" y="-15.4" font-family="sans-serif" font-size="14.00" fill="#000000"> &#160;Exports</text>
<g id="clust1" class="cluster">
<title>cluster_AngularCesiumEntitiesEditorModule</title>
<polygon fill="none" stroke="#000000" stroke-dasharray="1,5" points="8,-70 8,-268 604,-268 604,-70 8,-70"/>
</g>
<g id="clust2" class="cluster">
<title>cluster_AngularCesiumEntitiesEditorModule_declarations</title>
<polygon fill="none" stroke="#000000" points="412,-78 412,-130 596,-130 596,-78 412,-78"/>
</g>
<g id="clust4" class="cluster">
<title>cluster_AngularCesiumEntitiesEditorModule_imports</title>
<polygon fill="none" stroke="#000000" points="240,-78 240,-130 404,-130 404,-78 240,-78"/>
</g>
<g id="clust5" class="cluster">
<title>cluster_AngularCesiumEntitiesEditorModule_exports</title>
<polygon fill="none" stroke="#000000" points="228,-208 228,-260 416,-260 416,-208 228,-208"/>
</g>
<g id="clust7" class="cluster">
<title>cluster_AngularCesiumEntitiesEditorModule_providers</title>
<polygon fill="none" stroke="#000000" points="16,-78 16,-130 232,-130 232,-78 16,-78"/>
</g>
<!-- PolygonsEditorComponent -->
<g id="node1" class="node">
<title>PolygonsEditorComponent</title>
<polygon fill="#ffffb3" stroke="#000000" points="588.4452,-122 419.5548,-122 419.5548,-86 588.4452,-86 588.4452,-122"/>
<text text-anchor="middle" x="504" y="-99.8" font-family="Times,serif" font-size="14.00" fill="#000000">PolygonsEditorComponent</text>
</g>
<!-- AngularCesiumEntitiesEditorModule -->
<g id="node2" class="node">
<title>AngularCesiumEntitiesEditorModule</title>
<polygon fill="#8dd3c7" stroke="#000000" points="434.9678,-187 431.9678,-191 410.9678,-191 407.9678,-187 209.0322,-187 209.0322,-151 434.9678,-151 434.9678,-187"/>
<text text-anchor="middle" x="322" y="-164.8" font-family="Times,serif" font-size="14.00" fill="#000000">AngularCesiumEntitiesEditorModule</text>
</g>
<!-- PolygonsEditorComponent&#45;&gt;AngularCesiumEntitiesEditorModule -->
<g id="edge1" class="edge">
<title>PolygonsEditorComponent&#45;&gt;AngularCesiumEntitiesEditorModule</title>
<path fill="none" stroke="#000000" d="M427.3808,-122.1061C427.3808,-122.1061 427.3808,-140.991 427.3808,-140.991"/>
<polygon fill="#000000" stroke="#000000" points="423.8809,-140.9909 427.3808,-150.991 430.8809,-140.991 423.8809,-140.9909"/>
</g>
<!-- PolygonsEditorComponent  -->
<g id="node4" class="node">
<title>PolygonsEditorComponent </title>
<polygon fill="#fb8072" stroke="#000000" points="407.9446,-252 236.0554,-252 236.0554,-216 407.9446,-216 407.9446,-252"/>
<text text-anchor="middle" x="322" y="-229.8" font-family="Times,serif" font-size="14.00" fill="#000000">PolygonsEditorComponent </text>
</g>
<!-- AngularCesiumEntitiesEditorModule&#45;&gt;PolygonsEditorComponent  -->
<g id="edge3" class="edge">
<title>AngularCesiumEntitiesEditorModule&#45;&gt;PolygonsEditorComponent </title>
<path fill="none" stroke="#000000" stroke-dasharray="5,2" d="M322,-187.1061C322,-187.1061 322,-205.991 322,-205.991"/>
<polygon fill="#000000" stroke="#000000" points="318.5001,-205.9909 322,-215.991 325.5001,-205.991 318.5001,-205.9909"/>
</g>
<!-- AngularCesiumModule -->
<g id="node3" class="node">
<title>AngularCesiumModule</title>
<polygon fill="#8dd3c7" stroke="#000000" points="396.1993,-122 393.1993,-126 372.1993,-126 369.1993,-122 247.8007,-122 247.8007,-86 396.1993,-86 396.1993,-122"/>
<text text-anchor="middle" x="322" y="-99.8" font-family="Times,serif" font-size="14.00" fill="#000000">AngularCesiumModule</text>
</g>
<!-- AngularCesiumModule&#45;&gt;AngularCesiumEntitiesEditorModule -->
<g id="edge2" class="edge">
<title>AngularCesiumModule&#45;&gt;AngularCesiumEntitiesEditorModule</title>
<path fill="none" stroke="#000000" d="M322,-122.1061C322,-122.1061 322,-140.991 322,-140.991"/>
<polygon fill="#000000" stroke="#000000" points="318.5001,-140.9909 322,-150.991 325.5001,-140.991 318.5001,-140.9909"/>
</g>
<!-- PolygonsEditorService -->
<g id="node5" class="node">
<title>PolygonsEditorService</title>
<ellipse fill="#fdb462" stroke="#000000" cx="124" cy="-104" rx="100.1607" ry="18"/>
<text text-anchor="middle" x="124" y="-99.8" font-family="Times,serif" font-size="14.00" fill="#000000">PolygonsEditorService</text>
</g>
<!-- PolygonsEditorService&#45;&gt;AngularCesiumEntitiesEditorModule -->
<g id="edge4" class="edge">
<title>PolygonsEditorService&#45;&gt;AngularCesiumEntitiesEditorModule</title>
<path fill="none" stroke="#000000" d="M216.5482,-110.9561C216.5482,-110.9561 216.5482,-140.8074 216.5482,-140.8074"/>
<polygon fill="#000000" stroke="#000000" points="213.0483,-140.8074 216.5482,-150.8074 220.0483,-140.8075 213.0483,-140.8074"/>
</g>
</g>
</svg>
