<?xml version="1.0" encoding="UTF-8" standalone="no"?>
<!DOCTYPE svg PUBLIC "-//W3C//DTD SVG 1.1//EN"
 "http://www.w3.org/Graphics/SVG/1.1/DTD/svg11.dtd">
<!-- Generated by graphviz version 2.40.1 (20161225.0304)
 -->
<!-- Title: dependencies Pages: 1 -->
<svg width="1850pt" height="284pt"
 viewBox="0.00 0.00 1850.00 284.00" xmlns="http://www.w3.org/2000/svg" xmlns:xlink="http://www.w3.org/1999/xlink">
<g id="graph0" class="graph" transform="scale(1 1) rotate(0) translate(4 280)">
<title>dependencies</title>
<polygon fill="#ffffff" stroke="transparent" points="-4,4 -4,-280 1846,-280 1846,4 -4,4"/>
<text text-anchor="start" x="900.0091" y="-42.4" font-family="sans-serif" font-weight="bold" font-size="14.00" fill="#000000">Legend</text>
<polygon fill="#ffffb3" stroke="transparent" points="687,-10 687,-30 707,-30 707,-10 687,-10"/>
<text text-anchor="start" x="710.629" y="-15.4" font-family="sans-serif" font-size="14.00" fill="#000000"> &#160;Declarations</text>
<polygon fill="#8dd3c7" stroke="transparent" points="800,-10 800,-30 820,-30 820,-10 800,-10"/>
<text text-anchor="start" x="823.7251" y="-15.4" font-family="sans-serif" font-size="14.00" fill="#000000"> &#160;Module</text>
<polygon fill="#80b1d3" stroke="transparent" points="886,-10 886,-30 906,-30 906,-10 886,-10"/>
<text text-anchor="start" x="909.7812" y="-15.4" font-family="sans-serif" font-size="14.00" fill="#000000"> &#160;Bootstrap</text>
<polygon fill="#fdb462" stroke="transparent" points="983,-10 983,-30 1003,-30 1003,-10 983,-10"/>
<text text-anchor="start" x="1006.6732" y="-15.4" font-family="sans-serif" font-size="14.00" fill="#000000"> &#160;Providers</text>
<polygon fill="#fb8072" stroke="transparent" points="1079,-10 1079,-30 1099,-30 1099,-10 1079,-10"/>
<text text-anchor="start" x="1102.7258" y="-15.4" font-family="sans-serif" font-size="14.00" fill="#000000"> &#160;Exports</text>
<g id="clust1" class="cluster">
<title>cluster_AngularCesiumEntitiesEditorModule</title>
<polygon fill="none" stroke="#000000" stroke-dasharray="1,5" points="8,-70 8,-268 1834,-268 1834,-70 8,-70"/>
</g>
<g id="clust2" class="cluster">
<title>cluster_AngularCesiumEntitiesEditorModule_declarations</title>
<polygon fill="none" stroke="#000000" points="1076,-78 1076,-130 1826,-130 1826,-78 1076,-78"/>
</g>
<g id="clust7" class="cluster">
<title>cluster_AngularCesiumEntitiesEditorModule_imports</title>
<polygon fill="none" stroke="#000000" points="904,-78 904,-130 1068,-130 1068,-78 904,-78"/>
</g>
<g id="clust8" class="cluster">
<title>cluster_AngularCesiumEntitiesEditorModule_exports</title>
<polygon fill="none" stroke="#000000" points="616,-208 616,-260 1380,-260 1380,-208 616,-208"/>
</g>
<g id="clust10" class="cluster">
<title>cluster_AngularCesiumEntitiesEditorModule_providers</title>
<polygon fill="none" stroke="#000000" points="16,-78 16,-130 896,-130 896,-78 16,-78"/>
</g>
<!-- HippodromeEditorComponent -->
<g id="node1" class="node">
<title>HippodromeEditorComponent</title>
<polygon fill="#ffffb3" stroke="#000000" points="1817.5898,-122 1630.4102,-122 1630.4102,-86 1817.5898,-86 1817.5898,-122"/>
<text text-anchor="middle" x="1724" y="-99.8" font-family="Times,serif" font-size="14.00" fill="#000000">HippodromeEditorComponent</text>
</g>
<!-- AngularCesiumEntitiesEditorModule -->
<g id="node5" class="node">
<title>AngularCesiumEntitiesEditorModule</title>
<polygon fill="#8dd3c7" stroke="#000000" points="1098.9678,-187 1095.9678,-191 1074.9678,-191 1071.9678,-187 873.0322,-187 873.0322,-151 1098.9678,-151 1098.9678,-187"/>
<text text-anchor="middle" x="986" y="-164.8" font-family="Times,serif" font-size="14.00" fill="#000000">AngularCesiumEntitiesEditorModule</text>
</g>
<!-- HippodromeEditorComponent&#45;&gt;AngularCesiumEntitiesEditorModule -->
<g id="edge1" class="edge">
<title>HippodromeEditorComponent&#45;&gt;AngularCesiumEntitiesEditorModule</title>
<path fill="none" stroke="#000000" d="M1724,-122.1289C1724,-142.5724 1724,-173 1724,-173 1724,-173 1109.2921,-173 1109.2921,-173"/>
<polygon fill="#000000" stroke="#000000" points="1109.2922,-169.5001 1099.2921,-173 1109.2921,-176.5001 1109.2922,-169.5001"/>
</g>
<!-- PolygonsEditorComponent -->
<g id="node2" class="node">
<title>PolygonsEditorComponent</title>
<polygon fill="#ffffb3" stroke="#000000" points="1612.4452,-122 1443.5548,-122 1443.5548,-86 1612.4452,-86 1612.4452,-122"/>
<text text-anchor="middle" x="1528" y="-99.8" font-family="Times,serif" font-size="14.00" fill="#000000">PolygonsEditorComponent</text>
</g>
<!-- PolygonsEditorComponent&#45;&gt;AngularCesiumEntitiesEditorModule -->
<g id="edge2" class="edge">
<title>PolygonsEditorComponent&#45;&gt;AngularCesiumEntitiesEditorModule</title>
<path fill="none" stroke="#000000" d="M1528,-122.2667C1528,-140.5552 1528,-166 1528,-166 1528,-166 1109.2909,-166 1109.2909,-166"/>
<polygon fill="#000000" stroke="#000000" points="1109.291,-162.5001 1099.2909,-166 1109.2909,-169.5001 1109.291,-162.5001"/>
</g>
<!-- CirclesEditorComponent -->
<g id="node3" class="node">
<title>CirclesEditorComponent</title>
<polygon fill="#ffffb3" stroke="#000000" points="1425.979,-122 1270.021,-122 1270.021,-86 1425.979,-86 1425.979,-122"/>
<text text-anchor="middle" x="1348" y="-99.8" font-family="Times,serif" font-size="14.00" fill="#000000">CirclesEditorComponent</text>
</g>
<!-- CirclesEditorComponent&#45;&gt;AngularCesiumEntitiesEditorModule -->
<g id="edge3" class="edge">
<title>CirclesEditorComponent&#45;&gt;AngularCesiumEntitiesEditorModule</title>
<path fill="none" stroke="#000000" d="M1321.1527,-122.0091C1321.1527,-138.0494 1321.1527,-159 1321.1527,-159 1321.1527,-159 1109.0002,-159 1109.0002,-159"/>
<polygon fill="#000000" stroke="#000000" points="1109.0002,-155.5001 1099.0002,-159 1109.0001,-162.5001 1109.0002,-155.5001"/>
</g>
<!-- PolylinesEditorComponent -->
<g id="node4" class="node">
<title>PolylinesEditorComponent</title>
<polygon fill="#ffffb3" stroke="#000000" points="1252.441,-122 1083.559,-122 1083.559,-86 1252.441,-86 1252.441,-122"/>
<text text-anchor="middle" x="1168" y="-99.8" font-family="Times,serif" font-size="14.00" fill="#000000">PolylinesEditorComponent</text>
</g>
<!-- PolylinesEditorComponent&#45;&gt;AngularCesiumEntitiesEditorModule -->
<g id="edge4" class="edge">
<title>PolylinesEditorComponent&#45;&gt;AngularCesiumEntitiesEditorModule</title>
<path fill="none" stroke="#000000" d="M1091.3819,-122.1061C1091.3819,-122.1061 1091.3819,-140.991 1091.3819,-140.991"/>
<polygon fill="#000000" stroke="#000000" points="1087.8819,-140.9909 1091.3819,-150.991 1094.8819,-140.991 1087.8819,-140.9909"/>
</g>
<!-- HippodromeEditorComponent  -->
<g id="node7" class="node">
<title>HippodromeEditorComponent </title>
<polygon fill="#fb8072" stroke="#000000" points="1372.0902,-252 1181.9098,-252 1181.9098,-216 1372.0902,-216 1372.0902,-252"/>
<text text-anchor="middle" x="1277" y="-229.8" font-family="Times,serif" font-size="14.00" fill="#000000">HippodromeEditorComponent </text>
</g>
<!-- AngularCesiumEntitiesEditorModule&#45;&gt;HippodromeEditorComponent  -->
<g id="edge6" class="edge">
<title>AngularCesiumEntitiesEditorModule&#45;&gt;HippodromeEditorComponent </title>
<path fill="none" stroke="#000000" stroke-dasharray="5,2" d="M1099.1132,-180C1157.6323,-180 1216.9627,-180 1216.9627,-180 1216.9627,-180 1216.9627,-205.7181 1216.9627,-205.7181"/>
<polygon fill="#000000" stroke="#000000" points="1213.4627,-205.718 1216.9627,-215.7181 1220.4627,-205.7181 1213.4627,-205.718"/>
</g>
<!-- PolygonsEditorComponent  -->
<g id="node8" class="node">
<title>PolygonsEditorComponent </title>
<polygon fill="#fb8072" stroke="#000000" points="1163.9446,-252 992.0554,-252 992.0554,-216 1163.9446,-216 1163.9446,-252"/>
<text text-anchor="middle" x="1078" y="-229.8" font-family="Times,serif" font-size="14.00" fill="#000000">PolygonsEditorComponent </text>
</g>
<!-- AngularCesiumEntitiesEditorModule&#45;&gt;PolygonsEditorComponent  -->
<g id="edge7" class="edge">
<title>AngularCesiumEntitiesEditorModule&#45;&gt;PolygonsEditorComponent </title>
<path fill="none" stroke="#000000" stroke-dasharray="5,2" d="M1045.5058,-187.1061C1045.5058,-187.1061 1045.5058,-205.991 1045.5058,-205.991"/>
<polygon fill="#000000" stroke="#000000" points="1042.0059,-205.9909 1045.5058,-215.991 1049.0059,-205.991 1042.0059,-205.9909"/>
</g>
<!-- CirclesEditorComponent  -->
<g id="node9" class="node">
<title>CirclesEditorComponent </title>
<polygon fill="#fb8072" stroke="#000000" points="973.9797,-252 814.0203,-252 814.0203,-216 973.9797,-216 973.9797,-252"/>
<text text-anchor="middle" x="894" y="-229.8" font-family="Times,serif" font-size="14.00" fill="#000000">CirclesEditorComponent </text>
</g>
<!-- AngularCesiumEntitiesEditorModule&#45;&gt;CirclesEditorComponent  -->
<g id="edge8" class="edge">
<title>AngularCesiumEntitiesEditorModule&#45;&gt;CirclesEditorComponent </title>
<path fill="none" stroke="#000000" stroke-dasharray="5,2" d="M923.3778,-187.1061C923.3778,-187.1061 923.3778,-205.991 923.3778,-205.991"/>
<polygon fill="#000000" stroke="#000000" points="919.8779,-205.9909 923.3778,-215.991 926.8779,-205.991 919.8779,-205.9909"/>
</g>
<!-- PolylinesEditorComponent  -->
<g id="node10" class="node">
<title>PolylinesEditorComponent </title>
<polygon fill="#fb8072" stroke="#000000" points="795.9404,-252 624.0596,-252 624.0596,-216 795.9404,-216 795.9404,-252"/>
<text text-anchor="middle" x="710" y="-229.8" font-family="Times,serif" font-size="14.00" fill="#000000">PolylinesEditorComponent </text>
</g>
<!-- AngularCesiumEntitiesEditorModule&#45;&gt;PolylinesEditorComponent  -->
<g id="edge9" class="edge">
<title>AngularCesiumEntitiesEditorModule&#45;&gt;PolylinesEditorComponent </title>
<path fill="none" stroke="#000000" stroke-dasharray="5,2" d="M872.9029,-180C809.0626,-180 741.945,-180 741.945,-180 741.945,-180 741.945,-205.7181 741.945,-205.7181"/>
<polygon fill="#000000" stroke="#000000" points="738.4451,-205.718 741.945,-215.7181 745.4451,-205.7181 738.4451,-205.718"/>
</g>
<!-- AngularCesiumModule -->
<g id="node6" class="node">
<title>AngularCesiumModule</title>
<polygon fill="#8dd3c7" stroke="#000000" points="1060.1993,-122 1057.1993,-126 1036.1993,-126 1033.1993,-122 911.8007,-122 911.8007,-86 1060.1993,-86 1060.1993,-122"/>
<text text-anchor="middle" x="986" y="-99.8" font-family="Times,serif" font-size="14.00" fill="#000000">AngularCesiumModule</text>
</g>
<!-- AngularCesiumModule&#45;&gt;AngularCesiumEntitiesEditorModule -->
<g id="edge5" class="edge">
<title>AngularCesiumModule&#45;&gt;AngularCesiumEntitiesEditorModule</title>
<path fill="none" stroke="#000000" d="M986,-122.1061C986,-122.1061 986,-140.991 986,-140.991"/>
<polygon fill="#000000" stroke="#000000" points="982.5001,-140.9909 986,-150.991 989.5001,-140.991 982.5001,-140.9909"/>
</g>
<!-- PolygonsEditorService -->
<g id="node11" class="node">
<title>PolygonsEditorService</title>
<ellipse fill="#fdb462" stroke="#000000" cx="788" cy="-104" rx="100.1607" ry="18"/>
<text text-anchor="middle" x="788" y="-99.8" font-family="Times,serif" font-size="14.00" fill="#000000">PolygonsEditorService</text>
</g>
<!-- PolygonsEditorService&#45;&gt;AngularCesiumEntitiesEditorModule -->
<g id="edge10" class="edge">
<title>PolygonsEditorService&#45;&gt;AngularCesiumEntitiesEditorModule</title>
<path fill="none" stroke="#000000" d="M880.5482,-110.9561C880.5482,-110.9561 880.5482,-140.8074 880.5482,-140.8074"/>
<polygon fill="#000000" stroke="#000000" points="877.0483,-140.8074 880.5482,-150.8074 884.0483,-140.8075 877.0483,-140.8074"/>
</g>
<!-- CirclesEditorService -->
<g id="node12" class="node">
<title>CirclesEditorService</title>
<ellipse fill="#fdb462" stroke="#000000" cx="578" cy="-104" rx="91.4635" ry="18"/>
<text text-anchor="middle" x="578" y="-99.8" font-family="Times,serif" font-size="14.00" fill="#000000">CirclesEditorService</text>
</g>
<!-- CirclesEditorService&#45;&gt;AngularCesiumEntitiesEditorModule -->
<g id="edge11" class="edge">
<title>CirclesEditorService&#45;&gt;AngularCesiumEntitiesEditorModule</title>
<path fill="none" stroke="#000000" d="M646.7558,-115.9342C646.7558,-132.1101 646.7558,-159 646.7558,-159 646.7558,-159 862.5649,-159 862.5649,-159"/>
<polygon fill="#000000" stroke="#000000" points="862.565,-162.5001 872.5649,-159 862.5649,-155.5001 862.565,-162.5001"/>
</g>
<!-- PolylinesEditorService -->
<g id="node13" class="node">
<title>PolylinesEditorService</title>
<ellipse fill="#fdb462" stroke="#000000" cx="368" cy="-104" rx="100.1549" ry="18"/>
<text text-anchor="middle" x="368" y="-99.8" font-family="Times,serif" font-size="14.00" fill="#000000">PolylinesEditorService</text>
</g>
<!-- PolylinesEditorService&#45;&gt;AngularCesiumEntitiesEditorModule -->
<g id="edge12" class="edge">
<title>PolylinesEditorService&#45;&gt;AngularCesiumEntitiesEditorModule</title>
<path fill="none" stroke="#000000" d="M368,-122.2667C368,-140.5552 368,-166 368,-166 368,-166 863.0088,-166 863.0088,-166"/>
<polygon fill="#000000" stroke="#000000" points="863.0088,-169.5001 873.0088,-166 863.0087,-162.5001 863.0088,-169.5001"/>
</g>
<!-- HippodromeEditorService -->
<g id="node14" class="node">
<title>HippodromeEditorService</title>
<ellipse fill="#fdb462" stroke="#000000" cx="137" cy="-104" rx="112.8829" ry="18"/>
<text text-anchor="middle" x="137" y="-99.8" font-family="Times,serif" font-size="14.00" fill="#000000">HippodromeEditorService</text>
</g>
<!-- HippodromeEditorService&#45;&gt;AngularCesiumEntitiesEditorModule -->
<g id="edge13" class="edge">
<title>HippodromeEditorService&#45;&gt;AngularCesiumEntitiesEditorModule</title>
<path fill="none" stroke="#000000" d="M137,-122.1289C137,-142.5724 137,-173 137,-173 137,-173 862.8205,-173 862.8205,-173"/>
<polygon fill="#000000" stroke="#000000" points="862.8206,-176.5001 872.8205,-173 862.8205,-169.5001 862.8206,-176.5001"/>
</g>
</g>
</svg>
