<?xml version="1.0" encoding="UTF-8" standalone="no"?>
<!DOCTYPE svg PUBLIC "-//W3C//DTD SVG 1.1//EN"
 "http://www.w3.org/Graphics/SVG/1.1/DTD/svg11.dtd">
<!-- Generated by graphviz version 2.40.1 (20161225.0304)
 -->
<!-- Title: dependencies Pages: 1 -->
<svg width="3645pt" height="349pt"
     viewBox="0.00 0.00 3645.00 349.00" xmlns="http://www.w3.org/2000/svg">
<g id="graph0" class="graph" transform="scale(1 1) rotate(0) translate(4 345)">
<title>dependencies</title>
<polygon fill="#ffffff" stroke="transparent" points="-4,4 -4,-345 3641,-345 3641,4 -4,4"/>
<text text-anchor="start" x="1797.5091" y="-42.4" font-family="sans-serif" font-weight="bold" font-size="14.00" fill="#000000">Legend</text>
<polygon fill="#ffffb3" stroke="transparent" points="1584.5,-10 1584.5,-30 1604.5,-30 1604.5,-10 1584.5,-10"/>
<text text-anchor="start" x="1608.129" y="-15.4" font-family="sans-serif" font-size="14.00" fill="#000000"> &#160;Declarations</text>
<polygon fill="#8dd3c7" stroke="transparent" points="1697.5,-10 1697.5,-30 1717.5,-30 1717.5,-10 1697.5,-10"/>
<text text-anchor="start" x="1721.2251" y="-15.4" font-family="sans-serif" font-size="14.00" fill="#000000"> &#160;Module</text>
<polygon fill="#80b1d3" stroke="transparent" points="1783.5,-10 1783.5,-30 1803.5,-30 1803.5,-10 1783.5,-10"/>
<text text-anchor="start" x="1807.2812" y="-15.4" font-family="sans-serif" font-size="14.00" fill="#000000"> &#160;Bootstrap</text>
<polygon fill="#fdb462" stroke="transparent" points="1880.5,-10 1880.5,-30 1900.5,-30 1900.5,-10 1880.5,-10"/>
<text text-anchor="start" x="1904.1732" y="-15.4" font-family="sans-serif" font-size="14.00" fill="#000000"> &#160;Providers</text>
<polygon fill="#fb8072" stroke="transparent" points="1976.5,-10 1976.5,-30 1996.5,-30 1996.5,-10 1976.5,-10"/>
<text text-anchor="start" x="2000.2258" y="-15.4" font-family="sans-serif" font-size="14.00" fill="#000000"> &#160;Exports</text>
<g id="clust1" class="cluster">
<title>cluster_AngularCesiumModule</title>
<polygon fill="none" stroke="#000000" stroke-dasharray="1,5" points="8,-70 8,-333 3629,-333 3629,-70 8,-70"/>
</g>
<g id="clust3" class="cluster">
<title>cluster_AngularCesiumModule_imports</title>
<polygon fill="none" stroke="#000000" points="1704,-78 1704,-195 1992,-195 1992,-78 1704,-78"/>
</g>
<g id="clust4" class="cluster">
<title>cluster_AngularCesiumModule_exports</title>
<polygon fill="none" stroke="#000000" points="16,-273 16,-325 3621,-325 3621,-273 16,-273"/>
</g>
<!-- CommonModule -->
<g id="node1" class="node">
<title>CommonModule</title>
<polygon fill="#8dd3c7" stroke="#000000" points="1823.6681,-122 1820.6681,-126 1799.6681,-126 1796.6681,-122 1712.3319,-122 1712.3319,-86 1823.6681,-86 1823.6681,-122"/>
<text text-anchor="middle" x="1768" y="-99.8" font-family="Times,serif" font-size="14.00" fill="#000000">CommonModule</text>
</g>
<!-- UtilsModule -->
<g id="node3" class="node">
<title>UtilsModule</title>
<polygon fill="#8dd3c7" stroke="#000000" points="1811.2731,-187 1808.2731,-191 1787.2731,-191 1784.2731,-187 1724.7269,-187 1724.7269,-151 1811.2731,-151 1811.2731,-187"/>
<text text-anchor="middle" x="1768" y="-164.8" font-family="Times,serif" font-size="14.00" fill="#000000">UtilsModule</text>
</g>
<!-- CommonModule&#45;&gt;UtilsModule -->
<g id="edge26" class="edge">
<title>CommonModule&#45;&gt;UtilsModule</title>
<path fill="none" stroke="#000000" d="M1768,-122.1061C1768,-122.1061 1768,-140.991 1768,-140.991"/>
<polygon fill="#000000" stroke="#000000" points="1764.5001,-140.9909 1768,-150.991 1771.5001,-140.991 1764.5001,-140.9909"/>
</g>
<!-- AngularCesiumModule -->
<g id="node4" class="node">
<title>AngularCesiumModule</title>
<polygon fill="#8dd3c7" stroke="#000000" points="1904.1993,-252 1901.1993,-256 1880.1993,-256 1877.1993,-252 1755.8007,-252 1755.8007,-216 1904.1993,-216 1904.1993,-252"/>
<text text-anchor="middle" x="1830" y="-229.8" font-family="Times,serif" font-size="14.00" fill="#000000">AngularCesiumModule</text>
</g>
<!-- CommonModule&#45;&gt;AngularCesiumModule -->
<g id="edge1" class="edge">
<title>CommonModule&#45;&gt;AngularCesiumModule</title>
<path fill="none" stroke="#000000" d="M1817.6101,-122.0759C1817.6101,-122.0759 1817.6101,-205.6585 1817.6101,-205.6585"/>
<polygon fill="#000000" stroke="#000000" points="1814.1102,-205.6585 1817.6101,-215.6585 1821.1102,-205.6585 1814.1102,-205.6585"/>
</g>
<!-- Angular2ParseModule -->
<g id="node2" class="node">
<title>Angular2ParseModule</title>
<polygon fill="#8dd3c7" stroke="#000000" points="1984.2394,-122 1981.2394,-126 1960.2394,-126 1957.2394,-122 1841.7606,-122 1841.7606,-86 1984.2394,-86 1984.2394,-122"/>
<text text-anchor="middle" x="1913" y="-99.8" font-family="Times,serif" font-size="14.00" fill="#000000">Angular2ParseModule</text>
</g>
<!-- Angular2ParseModule&#45;&gt;AngularCesiumModule -->
<g id="edge2" class="edge">
<title>Angular2ParseModule&#45;&gt;AngularCesiumModule</title>
<path fill="none" stroke="#000000" d="M1872.865,-122.0759C1872.865,-122.0759 1872.865,-205.6585 1872.865,-205.6585"/>
<polygon fill="#000000" stroke="#000000" points="1869.3651,-205.6585 1872.865,-215.6585 1876.3651,-205.6585 1869.3651,-205.6585"/>
</g>
<!-- UtilsModule&#45;&gt;AngularCesiumModule -->
<g id="edge3" class="edge">
<title>UtilsModule&#45;&gt;AngularCesiumModule</title>
<path fill="none" stroke="#000000" d="M1783.6434,-187.1061C1783.6434,-187.1061 1783.6434,-205.991 1783.6434,-205.991"/>
<polygon fill="#000000" stroke="#000000" points="1780.1435,-205.9909 1783.6434,-215.991 1787.1435,-205.991 1780.1435,-205.9909"/>
</g>
<!-- AcMapComponent  -->
<g id="node5" class="node">
<title>AcMapComponent </title>
<polygon fill="#fb8072" stroke="#000000" points="3613.3129,-317 3486.6871,-317 3486.6871,-281 3613.3129,-281 3613.3129,-317"/>
<text text-anchor="middle" x="3550" y="-294.8" font-family="Times,serif" font-size="14.00" fill="#000000">AcMapComponent </text>
</g>
<!-- AngularCesiumModule&#45;&gt;AcMapComponent  -->
<g id="edge4" class="edge">
<title>AngularCesiumModule&#45;&gt;AcMapComponent </title>
<path fill="none" stroke="#000000" stroke-dasharray="5,2" d="M1904.1821,-220C2233.8598,-220 3550,-220 3550,-220 3550,-220 3550,-270.6772 3550,-270.6772"/>
<polygon fill="#000000" stroke="#000000" points="3546.5001,-270.6772 3550,-280.6772 3553.5001,-270.6773 3546.5001,-270.6772"/>
</g>
<!-- AcBillboardComponent  -->
<g id="node6" class="node">
<title>AcBillboardComponent </title>
<polygon fill="#fb8072" stroke="#000000" points="3469.0372,-317 3314.9628,-317 3314.9628,-281 3469.0372,-281 3469.0372,-317"/>
<text text-anchor="middle" x="3392" y="-294.8" font-family="Times,serif" font-size="14.00" fill="#000000">AcBillboardComponent </text>
</g>
<!-- AngularCesiumModule&#45;&gt;AcBillboardComponent  -->
<g id="edge5" class="edge">
<title>AngularCesiumModule&#45;&gt;AcBillboardComponent </title>
<path fill="none" stroke="#000000" stroke-dasharray="5,2" d="M1904.1003,-226C2210.9874,-226 3366.3271,-226 3366.3271,-226 3366.3271,-226 3366.3271,-270.9551 3366.3271,-270.9551"/>
<polygon fill="#000000" stroke="#000000" points="3362.8272,-270.955 3366.3271,-280.9551 3369.8272,-270.9551 3362.8272,-270.955"/>
</g>
<!-- AngularCesiumModule&#45;&gt;AcBillboardComponent  -->
<g id="edge19" class="edge">
<title>AngularCesiumModule&#45;&gt;AcBillboardComponent </title>
<path fill="none" stroke="#000000" stroke-dasharray="5,2" d="M1904.183,-223C2217.6623,-223 3417.6729,-223 3417.6729,-223 3417.6729,-223 3417.6729,-270.9891 3417.6729,-270.9891"/>
<polygon fill="#000000" stroke="#000000" points="3414.173,-270.989 3417.6729,-280.9891 3421.173,-270.9891 3414.173,-270.989"/>
</g>
<!-- AcBillboardDescComponent  -->
<g id="node7" class="node">
<title>AcBillboardDescComponent </title>
<polygon fill="#fb8072" stroke="#000000" points="3297.0176,-317 3114.9824,-317 3114.9824,-281 3297.0176,-281 3297.0176,-317"/>
<text text-anchor="middle" x="3206" y="-294.8" font-family="Times,serif" font-size="14.00" fill="#000000">AcBillboardDescComponent </text>
</g>
<!-- AngularCesiumModule&#45;&gt;AcBillboardDescComponent  -->
<g id="edge6" class="edge">
<title>AngularCesiumModule&#45;&gt;AcBillboardDescComponent </title>
<path fill="none" stroke="#000000" stroke-dasharray="5,2" d="M1904.4676,-230C2190.9435,-230 3206,-230 3206,-230 3206,-230 3206,-270.8711 3206,-270.8711"/>
<polygon fill="#000000" stroke="#000000" points="3202.5001,-270.871 3206,-280.8711 3209.5001,-270.8711 3202.5001,-270.871"/>
</g>
<!-- AcLabelDescComponent  -->
<g id="node8" class="node">
<title>AcLabelDescComponent </title>
<polygon fill="#fb8072" stroke="#000000" points="3096.5064,-317 2935.4936,-317 2935.4936,-281 3096.5064,-281 3096.5064,-317"/>
<text text-anchor="middle" x="3016" y="-294.8" font-family="Times,serif" font-size="14.00" fill="#000000">AcLabelDescComponent </text>
</g>
<!-- AngularCesiumModule&#45;&gt;AcLabelDescComponent  -->
<g id="edge7" class="edge">
<title>AngularCesiumModule&#45;&gt;AcLabelDescComponent </title>
<path fill="none" stroke="#000000" stroke-dasharray="5,2" d="M1904.1896,-233C2163.834,-233 3016,-233 3016,-233 3016,-233 3016,-270.9652 3016,-270.9652"/>
<polygon fill="#000000" stroke="#000000" points="3012.5001,-270.9652 3016,-280.9652 3019.5001,-270.9652 3012.5001,-270.9652"/>
</g>
<!-- AcEllipseDescComponent  -->
<g id="node9" class="node">
<title>AcEllipseDescComponent </title>
<polygon fill="#fb8072" stroke="#000000" points="2917.0176,-317 2748.9824,-317 2748.9824,-281 2917.0176,-281 2917.0176,-317"/>
<text text-anchor="middle" x="2833" y="-294.8" font-family="Times,serif" font-size="14.00" fill="#000000">AcEllipseDescComponent </text>
</g>
<!-- AngularCesiumModule&#45;&gt;AcEllipseDescComponent  -->
<g id="edge8" class="edge">
<title>AngularCesiumModule&#45;&gt;AcEllipseDescComponent </title>
<path fill="none" stroke="#000000" stroke-dasharray="5,2" d="M1904.1603,-236C2136.2001,-236 2833,-236 2833,-236 2833,-236 2833,-270.7778 2833,-270.7778"/>
<polygon fill="#000000" stroke="#000000" points="2829.5001,-270.7778 2833,-280.7778 2836.5001,-270.7778 2829.5001,-270.7778"/>
</g>
<!-- AcPolylineDescComponent  -->
<g id="node10" class="node">
<title>AcPolylineDescComponent </title>
<polygon fill="#fb8072" stroke="#000000" points="2730.8031,-317 2555.1969,-317 2555.1969,-281 2730.8031,-281 2730.8031,-317"/>
<text text-anchor="middle" x="2643" y="-294.8" font-family="Times,serif" font-size="14.00" fill="#000000">AcPolylineDescComponent </text>
</g>
<!-- AngularCesiumModule&#45;&gt;AcPolylineDescComponent  -->
<g id="edge9" class="edge">
<title>AngularCesiumModule&#45;&gt;AcPolylineDescComponent </title>
<path fill="none" stroke="#000000" stroke-dasharray="5,2" d="M1904.3036,-239C2105.002,-239 2643,-239 2643,-239 2643,-239 2643,-270.998 2643,-270.998"/>
<polygon fill="#000000" stroke="#000000" points="2639.5001,-270.998 2643,-280.998 2646.5001,-270.9981 2639.5001,-270.998"/>
</g>
<!-- AcLayerComponent  -->
<g id="node11" class="node">
<title>AcLayerComponent </title>
<polygon fill="#fb8072" stroke="#000000" points="2536.7962,-317 2403.2038,-317 2403.2038,-281 2536.7962,-281 2536.7962,-317"/>
<text text-anchor="middle" x="2470" y="-294.8" font-family="Times,serif" font-size="14.00" fill="#000000">AcLayerComponent </text>
</g>
<!-- AngularCesiumModule&#45;&gt;AcLayerComponent  -->
<g id="edge10" class="edge">
<title>AngularCesiumModule&#45;&gt;AcLayerComponent </title>
<path fill="none" stroke="#000000" stroke-dasharray="5,2" d="M1904.3548,-243C2073.0016,-243 2470,-243 2470,-243 2470,-243 2470,-270.973 2470,-270.973"/>
<polygon fill="#000000" stroke="#000000" points="2466.5001,-270.973 2470,-280.973 2473.5001,-270.973 2466.5001,-270.973"/>
</g>
<!-- AcCircleDescComponent  -->
<g id="node12" class="node">
<title>AcCircleDescComponent </title>
<polygon fill="#fb8072" stroke="#000000" points="2384.842,-317 2221.158,-317 2221.158,-281 2384.842,-281 2384.842,-317"/>
<text text-anchor="middle" x="2303" y="-294.8" font-family="Times,serif" font-size="14.00" fill="#000000">AcCircleDescComponent </text>
</g>
<!-- AngularCesiumModule&#45;&gt;AcCircleDescComponent  -->
<g id="edge11" class="edge">
<title>AngularCesiumModule&#45;&gt;AcCircleDescComponent </title>
<path fill="none" stroke="#000000" stroke-dasharray="5,2" d="M1904.1662,-246C2037.2838,-246 2303,-246 2303,-246 2303,-246 2303,-270.7604 2303,-270.7604"/>
<polygon fill="#000000" stroke="#000000" points="2299.5001,-270.7604 2303,-280.7604 2306.5001,-270.7604 2299.5001,-270.7604"/>
</g>
<!-- AcArcDescComponent  -->
<g id="node13" class="node">
<title>AcArcDescComponent </title>
<polygon fill="#fb8072" stroke="#000000" points="2203.1158,-317 2052.8842,-317 2052.8842,-281 2203.1158,-281 2203.1158,-317"/>
<text text-anchor="middle" x="2128" y="-294.8" font-family="Times,serif" font-size="14.00" fill="#000000">AcArcDescComponent </text>
</g>
<!-- AngularCesiumModule&#45;&gt;AcArcDescComponent  -->
<g id="edge12" class="edge">
<title>AngularCesiumModule&#45;&gt;AcArcDescComponent </title>
<path fill="none" stroke="#000000" stroke-dasharray="5,2" d="M1904.4293,-249C1992.6948,-249 2128,-249 2128,-249 2128,-249 2128,-270.9489 2128,-270.9489"/>
<polygon fill="#000000" stroke="#000000" points="2124.5001,-270.9488 2128,-280.9489 2131.5001,-270.9489 2124.5001,-270.9488"/>
</g>
<!-- AcMapLayerProviderComponent  -->
<g id="node14" class="node">
<title>AcMapLayerProviderComponent </title>
<polygon fill="#fb8072" stroke="#000000" points="2034.6645,-317 1827.3355,-317 1827.3355,-281 2034.6645,-281 2034.6645,-317"/>
<text text-anchor="middle" x="1931" y="-294.8" font-family="Times,serif" font-size="14.00" fill="#000000">AcMapLayerProviderComponent </text>
</g>
<!-- AngularCesiumModule&#45;&gt;AcMapLayerProviderComponent  -->
<g id="edge13" class="edge">
<title>AngularCesiumModule&#45;&gt;AcMapLayerProviderComponent </title>
<path fill="none" stroke="#000000" stroke-dasharray="5,2" d="M1865.6338,-252.1061C1865.6338,-252.1061 1865.6338,-270.991 1865.6338,-270.991"/>
<polygon fill="#000000" stroke="#000000" points="1862.1338,-270.9909 1865.6338,-280.991 1869.1338,-270.991 1862.1338,-270.9909"/>
</g>
<!-- AcPointDescComponent  -->
<g id="node15" class="node">
<title>AcPointDescComponent </title>
<polygon fill="#fb8072" stroke="#000000" points="1809.1981,-317 1650.8019,-317 1650.8019,-281 1809.1981,-281 1809.1981,-317"/>
<text text-anchor="middle" x="1730" y="-294.8" font-family="Times,serif" font-size="14.00" fill="#000000">AcPointDescComponent </text>
</g>
<!-- AngularCesiumModule&#45;&gt;AcPointDescComponent  -->
<g id="edge14" class="edge">
<title>AngularCesiumModule&#45;&gt;AcPointDescComponent </title>
<path fill="none" stroke="#000000" stroke-dasharray="5,2" d="M1782.6247,-252.1061C1782.6247,-252.1061 1782.6247,-270.991 1782.6247,-270.991"/>
<polygon fill="#000000" stroke="#000000" points="1779.1247,-270.9909 1782.6247,-280.991 1786.1247,-270.991 1779.1247,-270.9909"/>
</g>
<!-- AcLabelComponent  -->
<g id="node16" class="node">
<title>AcLabelComponent </title>
<polygon fill="#fb8072" stroke="#000000" points="1632.526,-317 1499.474,-317 1499.474,-281 1632.526,-281 1632.526,-317"/>
<text text-anchor="middle" x="1566" y="-294.8" font-family="Times,serif" font-size="14.00" fill="#000000">AcLabelComponent </text>
</g>
<!-- AngularCesiumModule&#45;&gt;AcLabelComponent  -->
<g id="edge15" class="edge">
<title>AngularCesiumModule&#45;&gt;AcLabelComponent </title>
<path fill="none" stroke="#000000" stroke-dasharray="5,2" d="M1755.7587,-249C1677.6741,-249 1566,-249 1566,-249 1566,-249 1566,-270.9489 1566,-270.9489"/>
<polygon fill="#000000" stroke="#000000" points="1562.5001,-270.9488 1566,-280.9489 1569.5001,-270.9489 1562.5001,-270.9488"/>
</g>
<!-- AcPolylineComponent  -->
<g id="node17" class="node">
<title>AcPolylineComponent </title>
<polygon fill="#fb8072" stroke="#000000" points="1481.8227,-317 1334.1773,-317 1334.1773,-281 1481.8227,-281 1481.8227,-317"/>
<text text-anchor="middle" x="1408" y="-294.8" font-family="Times,serif" font-size="14.00" fill="#000000">AcPolylineComponent </text>
</g>
<!-- AngularCesiumModule&#45;&gt;AcPolylineComponent  -->
<g id="edge16" class="edge">
<title>AngularCesiumModule&#45;&gt;AcPolylineComponent </title>
<path fill="none" stroke="#000000" stroke-dasharray="5,2" d="M1755.5263,-246C1634.3784,-246 1408,-246 1408,-246 1408,-246 1408,-270.7604 1408,-270.7604"/>
<polygon fill="#000000" stroke="#000000" points="1404.5001,-270.7604 1408,-280.7604 1411.5001,-270.7604 1404.5001,-270.7604"/>
</g>
<!-- AcEllipseComponent  -->
<g id="node18" class="node">
<title>AcEllipseComponent </title>
<polygon fill="#fb8072" stroke="#000000" points="1316.0372,-317 1175.9628,-317 1175.9628,-281 1316.0372,-281 1316.0372,-317"/>
<text text-anchor="middle" x="1246" y="-294.8" font-family="Times,serif" font-size="14.00" fill="#000000">AcEllipseComponent </text>
</g>
<!-- AngularCesiumModule&#45;&gt;AcEllipseComponent  -->
<g id="edge17" class="edge">
<title>AngularCesiumModule&#45;&gt;AcEllipseComponent </title>
<path fill="none" stroke="#000000" stroke-dasharray="5,2" d="M1755.7396,-243C1598.4466,-243 1246,-243 1246,-243 1246,-243 1246,-270.973 1246,-270.973"/>
<polygon fill="#000000" stroke="#000000" points="1242.5001,-270.973 1246,-280.973 1249.5001,-270.973 1242.5001,-270.973"/>
</g>
<!-- AcPointComponent  -->
<g id="node19" class="node">
<title>AcPointComponent </title>
<polygon fill="#fb8072" stroke="#000000" points="1158.2177,-317 1027.7823,-317 1027.7823,-281 1158.2177,-281 1158.2177,-317"/>
<text text-anchor="middle" x="1093" y="-294.8" font-family="Times,serif" font-size="14.00" fill="#000000">AcPointComponent </text>
</g>
<!-- AngularCesiumModule&#45;&gt;AcPointComponent  -->
<g id="edge18" class="edge">
<title>AngularCesiumModule&#45;&gt;AcPointComponent </title>
<path fill="none" stroke="#000000" stroke-dasharray="5,2" d="M1755.6183,-239C1568.4878,-239 1093,-239 1093,-239 1093,-239 1093,-270.998 1093,-270.998"/>
<polygon fill="#000000" stroke="#000000" points="1089.5001,-270.998 1093,-280.998 1096.5001,-270.9981 1089.5001,-270.998"/>
</g>
<!-- AcHtmlComponent  -->
<g id="node20" class="node">
<title>AcHtmlComponent </title>
<polygon fill="#fb8072" stroke="#000000" points="1009.932,-317 880.068,-317 880.068,-281 1009.932,-281 1009.932,-317"/>
<text text-anchor="middle" x="945" y="-294.8" font-family="Times,serif" font-size="14.00" fill="#000000">AcHtmlComponent </text>
</g>
<!-- AngularCesiumModule&#45;&gt;AcHtmlComponent  -->
<g id="edge20" class="edge">
<title>AngularCesiumModule&#45;&gt;AcHtmlComponent </title>
<path fill="none" stroke="#000000" stroke-dasharray="5,2" d="M1755.6883,-236C1542.6564,-236 945,-236 945,-236 945,-236 945,-270.7778 945,-270.7778"/>
<polygon fill="#000000" stroke="#000000" points="941.5001,-270.7778 945,-280.7778 948.5001,-270.7778 941.5001,-270.7778"/>
</g>
<!-- AcCircleComponent  -->
<g id="node21" class="node">
<title>AcCircleComponent </title>
<polygon fill="#fb8072" stroke="#000000" points="861.8617,-317 726.1383,-317 726.1383,-281 861.8617,-281 861.8617,-317"/>
<text text-anchor="middle" x="794" y="-294.8" font-family="Times,serif" font-size="14.00" fill="#000000">AcCircleComponent </text>
</g>
<!-- AngularCesiumModule&#45;&gt;AcCircleComponent  -->
<g id="edge21" class="edge">
<title>AngularCesiumModule&#45;&gt;AcCircleComponent </title>
<path fill="none" stroke="#000000" stroke-dasharray="5,2" d="M1755.4934,-233C1517.948,-233 794,-233 794,-233 794,-233 794,-270.9652 794,-270.9652"/>
<polygon fill="#000000" stroke="#000000" points="790.5001,-270.9652 794,-280.9652 797.5001,-270.9652 790.5001,-270.9652"/>
</g>
<!-- AcArcComponent  -->
<g id="node22" class="node">
<title>AcArcComponent </title>
<polygon fill="#fb8072" stroke="#000000" points="708.1355,-317 585.8645,-317 585.8645,-281 708.1355,-281 708.1355,-317"/>
<text text-anchor="middle" x="647" y="-294.8" font-family="Times,serif" font-size="14.00" fill="#000000">AcArcComponent </text>
</g>
<!-- AngularCesiumModule&#45;&gt;AcArcComponent  -->
<g id="edge22" class="edge">
<title>AngularCesiumModule&#45;&gt;AcArcComponent </title>
<path fill="none" stroke="#000000" stroke-dasharray="5,2" d="M1755.5499,-230C1496.0315,-230 647,-230 647,-230 647,-230 647,-270.8711 647,-270.8711"/>
<polygon fill="#000000" stroke="#000000" points="643.5001,-270.871 647,-280.8711 650.5001,-270.8711 643.5001,-270.871"/>
</g>
<!-- AcPolygonDescComponent  -->
<g id="node23" class="node">
<title>AcPolygonDescComponent </title>
<polygon fill="#fb8072" stroke="#000000" points="567.8073,-317 392.1927,-317 392.1927,-281 567.8073,-281 567.8073,-317"/>
<text text-anchor="middle" x="480" y="-294.8" font-family="Times,serif" font-size="14.00" fill="#000000">AcPolygonDescComponent </text>
</g>
<!-- AngularCesiumModule&#45;&gt;AcPolygonDescComponent  -->
<g id="edge23" class="edge">
<title>AngularCesiumModule&#45;&gt;AcPolygonDescComponent </title>
<path fill="none" stroke="#000000" stroke-dasharray="5,2" d="M1755.4952,-226C1472.4826,-226 480,-226 480,-226 480,-226 480,-270.9551 480,-270.9551"/>
<polygon fill="#000000" stroke="#000000" points="476.5001,-270.955 480,-280.9551 483.5001,-270.9551 476.5001,-270.955"/>
</g>
<!-- AcPolygonComponent  -->
<g id="node24" class="node">
<title>AcPolygonComponent </title>
<polygon fill="#fb8072" stroke="#000000" points="373.8269,-317 226.1731,-317 226.1731,-281 373.8269,-281 373.8269,-317"/>
<text text-anchor="middle" x="300" y="-294.8" font-family="Times,serif" font-size="14.00" fill="#000000">AcPolygonComponent </text>
</g>
<!-- AngularCesiumModule&#45;&gt;AcPolygonComponent  -->
<g id="edge24" class="edge">
<title>AngularCesiumModule&#45;&gt;AcPolygonComponent </title>
<path fill="none" stroke="#000000" stroke-dasharray="5,2" d="M1755.6879,-223C1449.2863,-223 300,-223 300,-223 300,-223 300,-270.9891 300,-270.9891"/>
<polygon fill="#000000" stroke="#000000" points="296.5001,-270.989 300,-280.9891 303.5001,-270.9891 296.5001,-270.989"/>
</g>
<!-- AcDefaultPlonterComponent  -->
<g id="node25" class="node">
<title>AcDefaultPlonterComponent </title>
<polygon fill="#fb8072" stroke="#000000" points="207.5707,-317 24.4293,-317 24.4293,-281 207.5707,-281 207.5707,-317"/>
<text text-anchor="middle" x="116" y="-294.8" font-family="Times,serif" font-size="14.00" fill="#000000">AcDefaultPlonterComponent </text>
</g>
<!-- AngularCesiumModule&#45;&gt;AcDefaultPlonterComponent  -->
<g id="edge25" class="edge">
<title>AngularCesiumModule&#45;&gt;AcDefaultPlonterComponent </title>
<path fill="none" stroke="#000000" stroke-dasharray="5,2" d="M1755.8014,-220C1426.8171,-220 116,-220 116,-220 116,-220 116,-270.6772 116,-270.6772"/>
<polygon fill="#000000" stroke="#000000" points="112.5001,-270.6772 116,-280.6772 119.5001,-270.6773 112.5001,-270.6772"/>
</g>
</g>
</svg>
