<?xml version="1.0" encoding="UTF-8" standalone="no"?>
<!DOCTYPE svg PUBLIC "-//W3C//DTD SVG 1.1//EN"
 "http://www.w3.org/Graphics/SVG/1.1/DTD/svg11.dtd">
<!-- Generated by graphviz version 2.40.1 (20161225.0304)
 -->
<!-- Title: dependencies Pages: 1 -->
<svg width="4118pt" height="349pt"
 viewBox="0.00 0.00 4118.00 349.00" xmlns="http://www.w3.org/2000/svg" xmlns:xlink="http://www.w3.org/1999/xlink">
<g id="graph0" class="graph" transform="scale(1 1) rotate(0) translate(4 345)">
<title>dependencies</title>
<polygon fill="#ffffff" stroke="transparent" points="-4,4 -4,-345 4114,-345 4114,4 -4,4"/>
<text text-anchor="start" x="2034.0091" y="-42.4" font-family="sans-serif" font-weight="bold" font-size="14.00" fill="#000000">Legend</text>
<polygon fill="#ffffb3" stroke="transparent" points="1821,-10 1821,-30 1841,-30 1841,-10 1821,-10"/>
<text text-anchor="start" x="1844.629" y="-15.4" font-family="sans-serif" font-size="14.00" fill="#000000"> &#160;Declarations</text>
<polygon fill="#8dd3c7" stroke="transparent" points="1934,-10 1934,-30 1954,-30 1954,-10 1934,-10"/>
<text text-anchor="start" x="1957.7251" y="-15.4" font-family="sans-serif" font-size="14.00" fill="#000000"> &#160;Module</text>
<polygon fill="#80b1d3" stroke="transparent" points="2020,-10 2020,-30 2040,-30 2040,-10 2020,-10"/>
<text text-anchor="start" x="2043.7812" y="-15.4" font-family="sans-serif" font-size="14.00" fill="#000000"> &#160;Bootstrap</text>
<polygon fill="#fdb462" stroke="transparent" points="2117,-10 2117,-30 2137,-30 2137,-10 2117,-10"/>
<text text-anchor="start" x="2140.6732" y="-15.4" font-family="sans-serif" font-size="14.00" fill="#000000"> &#160;Providers</text>
<polygon fill="#fb8072" stroke="transparent" points="2213,-10 2213,-30 2233,-30 2233,-10 2213,-10"/>
<text text-anchor="start" x="2236.7258" y="-15.4" font-family="sans-serif" font-size="14.00" fill="#000000"> &#160;Exports</text>
<g id="clust1" class="cluster">
<title>cluster_AngularCesiumModule</title>
<polygon fill="none" stroke="#000000" stroke-dasharray="1,5" points="8,-70 8,-333 4102,-333 4102,-70 8,-70"/>
</g>
<g id="clust3" class="cluster">
<title>cluster_AngularCesiumModule_imports</title>
<polygon fill="none" stroke="#000000" points="1866,-78 1866,-195 2154,-195 2154,-78 1866,-78"/>
</g>
<g id="clust4" class="cluster">
<title>cluster_AngularCesiumModule_exports</title>
<polygon fill="none" stroke="#000000" points="16,-273 16,-325 4094,-325 4094,-273 16,-273"/>
</g>
<!-- CommonModule -->
<g id="node1" class="node">
<title>CommonModule</title>
<polygon fill="#8dd3c7" stroke="#000000" points="1985.6681,-122 1982.6681,-126 1961.6681,-126 1958.6681,-122 1874.3319,-122 1874.3319,-86 1985.6681,-86 1985.6681,-122"/>
<text text-anchor="middle" x="1930" y="-99.8" font-family="Times,serif" font-size="14.00" fill="#000000">CommonModule</text>
</g>
<!-- UtilsModule -->
<g id="node3" class="node">
<title>UtilsModule</title>
<polygon fill="#8dd3c7" stroke="#000000" points="1973.2731,-187 1970.2731,-191 1949.2731,-191 1946.2731,-187 1886.7269,-187 1886.7269,-151 1973.2731,-151 1973.2731,-187"/>
<text text-anchor="middle" x="1930" y="-164.8" font-family="Times,serif" font-size="14.00" fill="#000000">UtilsModule</text>
</g>
<!-- CommonModule&#45;&gt;UtilsModule -->
<g id="edge27" class="edge">
<title>CommonModule&#45;&gt;UtilsModule</title>
<path fill="none" stroke="#000000" d="M1930,-122.1061C1930,-122.1061 1930,-140.991 1930,-140.991"/>
<polygon fill="#000000" stroke="#000000" points="1926.5001,-140.9909 1930,-150.991 1933.5001,-140.991 1926.5001,-140.9909"/>
</g>
<!-- AngularCesiumModule -->
<g id="node4" class="node">
<title>AngularCesiumModule</title>
<polygon fill="#8dd3c7" stroke="#000000" points="2066.1993,-252 2063.1993,-256 2042.1993,-256 2039.1993,-252 1917.8007,-252 1917.8007,-216 2066.1993,-216 2066.1993,-252"/>
<text text-anchor="middle" x="1992" y="-229.8" font-family="Times,serif" font-size="14.00" fill="#000000">AngularCesiumModule</text>
</g>
<!-- CommonModule&#45;&gt;AngularCesiumModule -->
<g id="edge1" class="edge">
<title>CommonModule&#45;&gt;AngularCesiumModule</title>
<path fill="none" stroke="#000000" d="M1979.6101,-122.0759C1979.6101,-122.0759 1979.6101,-205.6585 1979.6101,-205.6585"/>
<polygon fill="#000000" stroke="#000000" points="1976.1102,-205.6585 1979.6101,-215.6585 1983.1102,-205.6585 1976.1102,-205.6585"/>
</g>
<!-- Angular2ParseModule -->
<g id="node2" class="node">
<title>Angular2ParseModule</title>
<polygon fill="#8dd3c7" stroke="#000000" points="2146.2394,-122 2143.2394,-126 2122.2394,-126 2119.2394,-122 2003.7606,-122 2003.7606,-86 2146.2394,-86 2146.2394,-122"/>
<text text-anchor="middle" x="2075" y="-99.8" font-family="Times,serif" font-size="14.00" fill="#000000">Angular2ParseModule</text>
</g>
<!-- Angular2ParseModule&#45;&gt;AngularCesiumModule -->
<g id="edge2" class="edge">
<title>Angular2ParseModule&#45;&gt;AngularCesiumModule</title>
<path fill="none" stroke="#000000" d="M2034.865,-122.0759C2034.865,-122.0759 2034.865,-205.6585 2034.865,-205.6585"/>
<polygon fill="#000000" stroke="#000000" points="2031.3651,-205.6585 2034.865,-215.6585 2038.3651,-205.6585 2031.3651,-205.6585"/>
</g>
<!-- UtilsModule&#45;&gt;AngularCesiumModule -->
<g id="edge3" class="edge">
<title>UtilsModule&#45;&gt;AngularCesiumModule</title>
<path fill="none" stroke="#000000" d="M1945.6434,-187.1061C1945.6434,-187.1061 1945.6434,-205.991 1945.6434,-205.991"/>
<polygon fill="#000000" stroke="#000000" points="1942.1435,-205.9909 1945.6434,-215.991 1949.1435,-205.991 1942.1435,-205.9909"/>
</g>
<!-- AcMapComponent  -->
<g id="node5" class="node">
<title>AcMapComponent </title>
<polygon fill="#fb8072" stroke="#000000" points="4086.3129,-317 3959.6871,-317 3959.6871,-281 4086.3129,-281 4086.3129,-317"/>
<text text-anchor="middle" x="4023" y="-294.8" font-family="Times,serif" font-size="14.00" fill="#000000">AcMapComponent </text>
</g>
<!-- AngularCesiumModule&#45;&gt;AcMapComponent  -->
<g id="edge4" class="edge">
<title>AngularCesiumModule&#45;&gt;AcMapComponent </title>
<path fill="none" stroke="#000000" stroke-dasharray="5,2" d="M2066.39,-219C2432.2349,-219 4023,-219 4023,-219 4023,-219 4023,-270.8468 4023,-270.8468"/>
<polygon fill="#000000" stroke="#000000" points="4019.5001,-270.8467 4023,-280.8468 4026.5001,-270.8468 4019.5001,-270.8467"/>
</g>
<!-- AcBillboardComponent  -->
<g id="node6" class="node">
<title>AcBillboardComponent </title>
<polygon fill="#fb8072" stroke="#000000" points="3942.0372,-317 3787.9628,-317 3787.9628,-281 3942.0372,-281 3942.0372,-317"/>
<text text-anchor="middle" x="3865" y="-294.8" font-family="Times,serif" font-size="14.00" fill="#000000">AcBillboardComponent </text>
</g>
<!-- AngularCesiumModule&#45;&gt;AcBillboardComponent  -->
<g id="edge5" class="edge">
<title>AngularCesiumModule&#45;&gt;AcBillboardComponent </title>
<path fill="none" stroke="#000000" stroke-dasharray="5,2" d="M2066.1304,-225C2410.7249,-225 3839.3271,-225 3839.3271,-225 3839.3271,-225 3839.3271,-270.7079 3839.3271,-270.7079"/>
<polygon fill="#000000" stroke="#000000" points="3835.8272,-270.7078 3839.3271,-280.7079 3842.8272,-270.7079 3835.8272,-270.7078"/>
</g>
<!-- AngularCesiumModule&#45;&gt;AcBillboardComponent  -->
<g id="edge23" class="edge">
<title>AngularCesiumModule&#45;&gt;AcBillboardComponent </title>
<path fill="none" stroke="#000000" stroke-dasharray="5,2" d="M2066.1386,-222C2416.6507,-222 3890.6729,-222 3890.6729,-222 3890.6729,-222 3890.6729,-270.7521 3890.6729,-270.7521"/>
<polygon fill="#000000" stroke="#000000" points="3887.173,-270.752 3890.6729,-280.7521 3894.173,-270.7521 3887.173,-270.752"/>
</g>
<!-- AcBillboardDescComponent  -->
<g id="node7" class="node">
<title>AcBillboardDescComponent </title>
<polygon fill="#fb8072" stroke="#000000" points="3770.0176,-317 3587.9824,-317 3587.9824,-281 3770.0176,-281 3770.0176,-317"/>
<text text-anchor="middle" x="3679" y="-294.8" font-family="Times,serif" font-size="14.00" fill="#000000">AcBillboardDescComponent </text>
</g>
<!-- AngularCesiumModule&#45;&gt;AcBillboardDescComponent  -->
<g id="edge6" class="edge">
<title>AngularCesiumModule&#45;&gt;AcBillboardDescComponent </title>
<path fill="none" stroke="#000000" stroke-dasharray="5,2" d="M2066.1181,-228C2391.7116,-228 3679,-228 3679,-228 3679,-228 3679,-270.7157 3679,-270.7157"/>
<polygon fill="#000000" stroke="#000000" points="3675.5001,-270.7157 3679,-280.7157 3682.5001,-270.7158 3675.5001,-270.7157"/>
</g>
<!-- AcLabelDescComponent  -->
<g id="node8" class="node">
<title>AcLabelDescComponent </title>
<polygon fill="#fb8072" stroke="#000000" points="3569.5064,-317 3408.4936,-317 3408.4936,-281 3569.5064,-281 3569.5064,-317"/>
<text text-anchor="middle" x="3489" y="-294.8" font-family="Times,serif" font-size="14.00" fill="#000000">AcLabelDescComponent </text>
</g>
<!-- AngularCesiumModule&#45;&gt;AcLabelDescComponent  -->
<g id="edge7" class="edge">
<title>AngularCesiumModule&#45;&gt;AcLabelDescComponent </title>
<path fill="none" stroke="#000000" stroke-dasharray="5,2" d="M2066.2365,-231C2368.3001,-231 3489,-231 3489,-231 3489,-231 3489,-270.7772 3489,-270.7772"/>
<polygon fill="#000000" stroke="#000000" points="3485.5001,-270.7772 3489,-280.7772 3492.5001,-270.7773 3485.5001,-270.7772"/>
</g>
<!-- AcStaticEllipseDescComponent  -->
<g id="node9" class="node">
<title>AcStaticEllipseDescComponent </title>
<polygon fill="#fb8072" stroke="#000000" points="3390.9012,-317 3191.0988,-317 3191.0988,-281 3390.9012,-281 3390.9012,-317"/>
<text text-anchor="middle" x="3291" y="-294.8" font-family="Times,serif" font-size="14.00" fill="#000000">AcStaticEllipseDescComponent </text>
</g>
<!-- AngularCesiumModule&#45;&gt;AcStaticEllipseDescComponent  -->
<g id="edge8" class="edge">
<title>AngularCesiumModule&#45;&gt;AcStaticEllipseDescComponent </title>
<path fill="none" stroke="#000000" stroke-dasharray="5,2" d="M2066.5055,-234C2342.5262,-234 3291,-234 3291,-234 3291,-234 3291,-270.8939 3291,-270.8939"/>
<polygon fill="#000000" stroke="#000000" points="3287.5001,-270.8938 3291,-280.8939 3294.5001,-270.8939 3287.5001,-270.8938"/>
</g>
<!-- AcDynamicEllipseDescComponent  -->
<g id="node10" class="node">
<title>AcDynamicEllipseDescComponent </title>
<polygon fill="#fb8072" stroke="#000000" points="3172.8349,-317 2953.1651,-317 2953.1651,-281 3172.8349,-281 3172.8349,-317"/>
<text text-anchor="middle" x="3063" y="-294.8" font-family="Times,serif" font-size="14.00" fill="#000000">AcDynamicEllipseDescComponent </text>
</g>
<!-- AngularCesiumModule&#45;&gt;AcDynamicEllipseDescComponent  -->
<g id="edge9" class="edge">
<title>AngularCesiumModule&#45;&gt;AcDynamicEllipseDescComponent </title>
<path fill="none" stroke="#000000" stroke-dasharray="5,2" d="M2066.4603,-237C2309.3393,-237 3063,-237 3063,-237 3063,-237 3063,-270.7333 3063,-270.7333"/>
<polygon fill="#000000" stroke="#000000" points="3059.5001,-270.7333 3063,-280.7333 3066.5001,-270.7333 3059.5001,-270.7333"/>
</g>
<!-- AcDynamicPolylineDescComponent  -->
<g id="node11" class="node">
<title>AcDynamicPolylineDescComponent </title>
<polygon fill="#fb8072" stroke="#000000" points="2935.62,-317 2708.38,-317 2708.38,-281 2935.62,-281 2935.62,-317"/>
<text text-anchor="middle" x="2822" y="-294.8" font-family="Times,serif" font-size="14.00" fill="#000000">AcDynamicPolylineDescComponent </text>
</g>
<!-- AngularCesiumModule&#45;&gt;AcDynamicPolylineDescComponent  -->
<g id="edge10" class="edge">
<title>AngularCesiumModule&#45;&gt;AcDynamicPolylineDescComponent </title>
<path fill="none" stroke="#000000" stroke-dasharray="5,2" d="M2066.3874,-240C2270.1118,-240 2822,-240 2822,-240 2822,-240 2822,-270.9775 2822,-270.9775"/>
<polygon fill="#000000" stroke="#000000" points="2818.5001,-270.9774 2822,-280.9775 2825.5001,-270.9775 2818.5001,-270.9774"/>
</g>
<!-- AcStaticPolygonDescComponent  -->
<g id="node12" class="node">
<title>AcStaticPolygonDescComponent </title>
<polygon fill="#fb8072" stroke="#000000" points="2690.691,-317 2483.309,-317 2483.309,-281 2690.691,-281 2690.691,-317"/>
<text text-anchor="middle" x="2587" y="-294.8" font-family="Times,serif" font-size="14.00" fill="#000000">AcStaticPolygonDescComponent </text>
</g>
<!-- AngularCesiumModule&#45;&gt;AcStaticPolygonDescComponent  -->
<g id="edge11" class="edge">
<title>AngularCesiumModule&#45;&gt;AcStaticPolygonDescComponent </title>
<path fill="none" stroke="#000000" stroke-dasharray="5,2" d="M2066.1541,-243C2225.6543,-243 2587,-243 2587,-243 2587,-243 2587,-270.973 2587,-270.973"/>
<polygon fill="#000000" stroke="#000000" points="2583.5001,-270.973 2587,-280.973 2590.5001,-270.973 2583.5001,-270.973"/>
</g>
<!-- AcLayerComponent  -->
<g id="node13" class="node">
<title>AcLayerComponent </title>
<polygon fill="#fb8072" stroke="#000000" points="2464.7962,-317 2331.2038,-317 2331.2038,-281 2464.7962,-281 2464.7962,-317"/>
<text text-anchor="middle" x="2398" y="-294.8" font-family="Times,serif" font-size="14.00" fill="#000000">AcLayerComponent </text>
</g>
<!-- AngularCesiumModule&#45;&gt;AcLayerComponent  -->
<g id="edge12" class="edge">
<title>AngularCesiumModule&#45;&gt;AcLayerComponent </title>
<path fill="none" stroke="#000000" stroke-dasharray="5,2" d="M2066.4667,-246C2183.6754,-246 2398,-246 2398,-246 2398,-246 2398,-270.7604 2398,-270.7604"/>
<polygon fill="#000000" stroke="#000000" points="2394.5001,-270.7604 2398,-280.7604 2401.5001,-270.7604 2394.5001,-270.7604"/>
</g>
<!-- AcStaticCircleDescComponent  -->
<g id="node14" class="node">
<title>AcStaticCircleDescComponent </title>
<polygon fill="#fb8072" stroke="#000000" points="2312.7253,-317 2117.2747,-317 2117.2747,-281 2312.7253,-281 2312.7253,-317"/>
<text text-anchor="middle" x="2215" y="-294.8" font-family="Times,serif" font-size="14.00" fill="#000000">AcStaticCircleDescComponent </text>
</g>
<!-- AngularCesiumModule&#45;&gt;AcStaticCircleDescComponent  -->
<g id="edge13" class="edge">
<title>AngularCesiumModule&#45;&gt;AcStaticCircleDescComponent </title>
<path fill="none" stroke="#000000" stroke-dasharray="5,2" d="M2066.4443,-249C2099.8495,-249 2131.8785,-249 2131.8785,-249 2131.8785,-249 2131.8785,-270.9489 2131.8785,-270.9489"/>
<polygon fill="#000000" stroke="#000000" points="2128.3786,-270.9488 2131.8785,-280.9489 2135.3786,-270.9489 2128.3786,-270.9488"/>
</g>
<!-- AcDynamicCircleDescComponent  -->
<g id="node15" class="node">
<title>AcDynamicCircleDescComponent </title>
<polygon fill="#fb8072" stroke="#000000" points="2099.1589,-317 1884.8411,-317 1884.8411,-281 2099.1589,-281 2099.1589,-317"/>
<text text-anchor="middle" x="1992" y="-294.8" font-family="Times,serif" font-size="14.00" fill="#000000">AcDynamicCircleDescComponent </text>
</g>
<!-- AngularCesiumModule&#45;&gt;AcDynamicCircleDescComponent  -->
<g id="edge14" class="edge">
<title>AngularCesiumModule&#45;&gt;AcDynamicCircleDescComponent </title>
<path fill="none" stroke="#000000" stroke-dasharray="5,2" d="M1992,-252.1061C1992,-252.1061 1992,-270.991 1992,-270.991"/>
<polygon fill="#000000" stroke="#000000" points="1988.5001,-270.9909 1992,-280.991 1995.5001,-270.991 1988.5001,-270.9909"/>
</g>
<!-- AcStaticPolylineDescComponent  -->
<g id="node16" class="node">
<title>AcStaticPolylineDescComponent </title>
<polygon fill="#fb8072" stroke="#000000" points="1866.6868,-317 1659.3132,-317 1659.3132,-281 1866.6868,-281 1866.6868,-317"/>
<text text-anchor="middle" x="1763" y="-294.8" font-family="Times,serif" font-size="14.00" fill="#000000">AcStaticPolylineDescComponent </text>
</g>
<!-- AngularCesiumModule&#45;&gt;AcStaticPolylineDescComponent  -->
<g id="edge15" class="edge">
<title>AngularCesiumModule&#45;&gt;AcStaticPolylineDescComponent </title>
<path fill="none" stroke="#000000" stroke-dasharray="5,2" d="M1917.6503,-249C1850.7837,-249 1763,-249 1763,-249 1763,-249 1763,-270.9489 1763,-270.9489"/>
<polygon fill="#000000" stroke="#000000" points="1759.5001,-270.9488 1763,-280.9489 1766.5001,-270.9489 1759.5001,-270.9488"/>
</g>
<!-- AcArcDescComponent  -->
<g id="node17" class="node">
<title>AcArcDescComponent </title>
<polygon fill="#fb8072" stroke="#000000" points="1641.1158,-317 1490.8842,-317 1490.8842,-281 1641.1158,-281 1641.1158,-317"/>
<text text-anchor="middle" x="1566" y="-294.8" font-family="Times,serif" font-size="14.00" fill="#000000">AcArcDescComponent </text>
</g>
<!-- AngularCesiumModule&#45;&gt;AcArcDescComponent  -->
<g id="edge16" class="edge">
<title>AngularCesiumModule&#45;&gt;AcArcDescComponent </title>
<path fill="none" stroke="#000000" stroke-dasharray="5,2" d="M1917.7965,-246C1795.7446,-246 1566,-246 1566,-246 1566,-246 1566,-270.7604 1566,-270.7604"/>
<polygon fill="#000000" stroke="#000000" points="1562.5001,-270.7604 1566,-280.7604 1569.5001,-270.7604 1562.5001,-270.7604"/>
</g>
<!-- AcMapLayerProviderComponent  -->
<g id="node18" class="node">
<title>AcMapLayerProviderComponent </title>
<polygon fill="#fb8072" stroke="#000000" points="1472.6645,-317 1265.3355,-317 1265.3355,-281 1472.6645,-281 1472.6645,-317"/>
<text text-anchor="middle" x="1369" y="-294.8" font-family="Times,serif" font-size="14.00" fill="#000000">AcMapLayerProviderComponent </text>
</g>
<!-- AngularCesiumModule&#45;&gt;AcMapLayerProviderComponent  -->
<g id="edge17" class="edge">
<title>AngularCesiumModule&#45;&gt;AcMapLayerProviderComponent </title>
<path fill="none" stroke="#000000" stroke-dasharray="5,2" d="M1917.7791,-243C1752.5835,-243 1369,-243 1369,-243 1369,-243 1369,-270.973 1369,-270.973"/>
<polygon fill="#000000" stroke="#000000" points="1365.5001,-270.973 1369,-280.973 1372.5001,-270.973 1365.5001,-270.973"/>
</g>
<!-- AcPointDescComponent  -->
<g id="node19" class="node">
<title>AcPointDescComponent </title>
<polygon fill="#fb8072" stroke="#000000" points="1247.1981,-317 1088.8019,-317 1088.8019,-281 1247.1981,-281 1247.1981,-317"/>
<text text-anchor="middle" x="1168" y="-294.8" font-family="Times,serif" font-size="14.00" fill="#000000">AcPointDescComponent </text>
</g>
<!-- AngularCesiumModule&#45;&gt;AcPointDescComponent  -->
<g id="edge18" class="edge">
<title>AngularCesiumModule&#45;&gt;AcPointDescComponent </title>
<path fill="none" stroke="#000000" stroke-dasharray="5,2" d="M1917.7866,-240C1715.2427,-240 1168,-240 1168,-240 1168,-240 1168,-270.9775 1168,-270.9775"/>
<polygon fill="#000000" stroke="#000000" points="1164.5001,-270.9774 1168,-280.9775 1171.5001,-270.9775 1164.5001,-270.9774"/>
</g>
<!-- AcLabelComponent  -->
<g id="node20" class="node">
<title>AcLabelComponent </title>
<polygon fill="#fb8072" stroke="#000000" points="1070.526,-317 937.474,-317 937.474,-281 1070.526,-281 1070.526,-317"/>
<text text-anchor="middle" x="1004" y="-294.8" font-family="Times,serif" font-size="14.00" fill="#000000">AcLabelComponent </text>
</g>
<!-- AngularCesiumModule&#45;&gt;AcLabelComponent  -->
<g id="edge19" class="edge">
<title>AngularCesiumModule&#45;&gt;AcLabelComponent </title>
<path fill="none" stroke="#000000" stroke-dasharray="5,2" d="M1917.7394,-237C1687.9687,-237 1004,-237 1004,-237 1004,-237 1004,-270.7333 1004,-270.7333"/>
<polygon fill="#000000" stroke="#000000" points="1000.5001,-270.7333 1004,-280.7333 1007.5001,-270.7333 1000.5001,-270.7333"/>
</g>
<!-- AcPolylineComponent  -->
<g id="node21" class="node">
<title>AcPolylineComponent </title>
<polygon fill="#fb8072" stroke="#000000" points="919.8227,-317 772.1773,-317 772.1773,-281 919.8227,-281 919.8227,-317"/>
<text text-anchor="middle" x="846" y="-294.8" font-family="Times,serif" font-size="14.00" fill="#000000">AcPolylineComponent </text>
</g>
<!-- AngularCesiumModule&#45;&gt;AcPolylineComponent  -->
<g id="edge20" class="edge">
<title>AngularCesiumModule&#45;&gt;AcPolylineComponent </title>
<path fill="none" stroke="#000000" stroke-dasharray="5,2" d="M1917.6907,-234C1663.7432,-234 846,-234 846,-234 846,-234 846,-270.8939 846,-270.8939"/>
<polygon fill="#000000" stroke="#000000" points="842.5001,-270.8938 846,-280.8939 849.5001,-270.8939 842.5001,-270.8938"/>
</g>
<!-- AcEllipseComponent  -->
<g id="node22" class="node">
<title>AcEllipseComponent </title>
<polygon fill="#fb8072" stroke="#000000" points="754.0372,-317 613.9628,-317 613.9628,-281 754.0372,-281 754.0372,-317"/>
<text text-anchor="middle" x="684" y="-294.8" font-family="Times,serif" font-size="14.00" fill="#000000">AcEllipseComponent </text>
</g>
<!-- AngularCesiumModule&#45;&gt;AcEllipseComponent  -->
<g id="edge21" class="edge">
<title>AngularCesiumModule&#45;&gt;AcEllipseComponent </title>
<path fill="none" stroke="#000000" stroke-dasharray="5,2" d="M1917.4541,-231C1640.137,-231 684,-231 684,-231 684,-231 684,-270.7772 684,-270.7772"/>
<polygon fill="#000000" stroke="#000000" points="680.5001,-270.7772 684,-280.7772 687.5001,-270.7773 680.5001,-270.7772"/>
</g>
<!-- AcPointComponent  -->
<g id="node23" class="node">
<title>AcPointComponent </title>
<polygon fill="#fb8072" stroke="#000000" points="596.2177,-317 465.7823,-317 465.7823,-281 596.2177,-281 596.2177,-317"/>
<text text-anchor="middle" x="531" y="-294.8" font-family="Times,serif" font-size="14.00" fill="#000000">AcPointComponent </text>
</g>
<!-- AngularCesiumModule&#45;&gt;AcPointComponent  -->
<g id="edge22" class="edge">
<title>AngularCesiumModule&#45;&gt;AcPointComponent </title>
<path fill="none" stroke="#000000" stroke-dasharray="5,2" d="M1917.7926,-228C1620.4328,-228 531,-228 531,-228 531,-228 531,-270.7157 531,-270.7157"/>
<polygon fill="#000000" stroke="#000000" points="527.5001,-270.7157 531,-280.7157 534.5001,-270.7158 527.5001,-270.7157"/>
</g>
<!-- AcHtmlComponent  -->
<g id="node24" class="node">
<title>AcHtmlComponent </title>
<polygon fill="#fb8072" stroke="#000000" points="447.932,-317 318.068,-317 318.068,-281 447.932,-281 447.932,-317"/>
<text text-anchor="middle" x="383" y="-294.8" font-family="Times,serif" font-size="14.00" fill="#000000">AcHtmlComponent </text>
</g>
<!-- AngularCesiumModule&#45;&gt;AcHtmlComponent  -->
<g id="edge24" class="edge">
<title>AngularCesiumModule&#45;&gt;AcHtmlComponent </title>
<path fill="none" stroke="#000000" stroke-dasharray="5,2" d="M1917.8877,-225C1601.8639,-225 383,-225 383,-225 383,-225 383,-270.7079 383,-270.7079"/>
<polygon fill="#000000" stroke="#000000" points="379.5001,-270.7078 383,-280.7079 386.5001,-270.7079 379.5001,-270.7078"/>
</g>
<!-- AcCircleComponent  -->
<g id="node25" class="node">
<title>AcCircleComponent </title>
<polygon fill="#fb8072" stroke="#000000" points="299.8617,-317 164.1383,-317 164.1383,-281 299.8617,-281 299.8617,-317"/>
<text text-anchor="middle" x="232" y="-294.8" font-family="Times,serif" font-size="14.00" fill="#000000">AcCircleComponent </text>
</g>
<!-- AngularCesiumModule&#45;&gt;AcCircleComponent  -->
<g id="edge25" class="edge">
<title>AngularCesiumModule&#45;&gt;AcCircleComponent </title>
<path fill="none" stroke="#000000" stroke-dasharray="5,2" d="M1917.779,-222C1583.2624,-222 232,-222 232,-222 232,-222 232,-270.7521 232,-270.7521"/>
<polygon fill="#000000" stroke="#000000" points="228.5001,-270.752 232,-280.7521 235.5001,-270.7521 228.5001,-270.752"/>
</g>
<!-- AcArcComponent  -->
<g id="node26" class="node">
<title>AcArcComponent </title>
<polygon fill="#fb8072" stroke="#000000" points="146.1355,-317 23.8645,-317 23.8645,-281 146.1355,-281 146.1355,-317"/>
<text text-anchor="middle" x="85" y="-294.8" font-family="Times,serif" font-size="14.00" fill="#000000">AcArcComponent </text>
</g>
<!-- AngularCesiumModule&#45;&gt;AcArcComponent  -->
<g id="edge26" class="edge">
<title>AngularCesiumModule&#45;&gt;AcArcComponent </title>
<path fill="none" stroke="#000000" stroke-dasharray="5,2" d="M1917.8286,-219C1566.3074,-219 85,-219 85,-219 85,-219 85,-270.8468 85,-270.8468"/>
<polygon fill="#000000" stroke="#000000" points="81.5001,-270.8467 85,-280.8468 88.5001,-270.8468 81.5001,-270.8467"/>
</g>
</g>
</svg>
