<?xml version="1.0" encoding="UTF-8" standalone="no"?>
<!DOCTYPE svg PUBLIC "-//W3C//DTD SVG 1.1//EN"
 "http://www.w3.org/Graphics/SVG/1.1/DTD/svg11.dtd">
<!-- Generated by graphviz version 2.40.1 (20161225.0304)
 -->
<!-- Title: dependencies Pages: 1 -->
<svg width="4062pt" height="349pt"
 viewBox="0.00 0.00 4062.00 349.00" xmlns="http://www.w3.org/2000/svg" xmlns:xlink="http://www.w3.org/1999/xlink">
<g id="graph0" class="graph" transform="scale(1 1) rotate(0) translate(4 345)">
<title>dependencies</title>
<polygon fill="#ffffff" stroke="transparent" points="-4,4 -4,-345 4058,-345 4058,4 -4,4"/>
<text text-anchor="start" x="2006.0091" y="-42.4" font-family="sans-serif" font-weight="bold" font-size="14.00" fill="#000000">Legend</text>
<polygon fill="#ffffb3" stroke="transparent" points="1793,-10 1793,-30 1813,-30 1813,-10 1793,-10"/>
<text text-anchor="start" x="1816.629" y="-15.4" font-family="sans-serif" font-size="14.00" fill="#000000"> &#160;Declarations</text>
<polygon fill="#8dd3c7" stroke="transparent" points="1906,-10 1906,-30 1926,-30 1926,-10 1906,-10"/>
<text text-anchor="start" x="1929.7251" y="-15.4" font-family="sans-serif" font-size="14.00" fill="#000000"> &#160;Module</text>
<polygon fill="#80b1d3" stroke="transparent" points="1992,-10 1992,-30 2012,-30 2012,-10 1992,-10"/>
<text text-anchor="start" x="2015.7812" y="-15.4" font-family="sans-serif" font-size="14.00" fill="#000000"> &#160;Bootstrap</text>
<polygon fill="#fdb462" stroke="transparent" points="2089,-10 2089,-30 2109,-30 2109,-10 2089,-10"/>
<text text-anchor="start" x="2112.6732" y="-15.4" font-family="sans-serif" font-size="14.00" fill="#000000"> &#160;Providers</text>
<polygon fill="#fb8072" stroke="transparent" points="2185,-10 2185,-30 2205,-30 2205,-10 2185,-10"/>
<text text-anchor="start" x="2208.7258" y="-15.4" font-family="sans-serif" font-size="14.00" fill="#000000"> &#160;Exports</text>
<g id="clust1" class="cluster">
<title>cluster_AngularCesiumModule</title>
<polygon fill="none" stroke="#000000" stroke-dasharray="1,5" points="8,-70 8,-333 4046,-333 4046,-70 8,-70"/>
</g>
<g id="clust2" class="cluster">
<title>cluster_AngularCesiumModule_declarations</title>
<polygon fill="none" stroke="#000000" points="954,-143 954,-195 4038,-195 4038,-143 954,-143"/>
</g>
<g id="clust19" class="cluster">
<title>cluster_AngularCesiumModule_imports</title>
<polygon fill="none" stroke="#000000" points="658,-78 658,-195 946,-195 946,-78 658,-78"/>
</g>
<g id="clust20" class="cluster">
<title>cluster_AngularCesiumModule_exports</title>
<polygon fill="none" stroke="#000000" points="344,-273 344,-325 3357,-325 3357,-273 344,-273"/>
</g>
<g id="clust22" class="cluster">
<title>cluster_AngularCesiumModule_providers</title>
<polygon fill="none" stroke="#000000" points="16,-143 16,-195 650,-195 650,-143 16,-143"/>
</g>
<!-- AcMapComponent -->
<g id="node1" class="node">
<title>AcMapComponent</title>
<polygon fill="#ffffb3" stroke="#000000" points="4029.8132,-187 3906.1868,-187 3906.1868,-151 4029.8132,-151 4029.8132,-187"/>
<text text-anchor="middle" x="3968" y="-164.8" font-family="Times,serif" font-size="14.00" fill="#000000">AcMapComponent</text>
</g>
<!-- AngularCesiumModule -->
<g id="node17" class="node">
<title>AngularCesiumModule</title>
<polygon fill="#8dd3c7" stroke="#000000" points="1924.1993,-252 1921.1993,-256 1900.1993,-256 1897.1993,-252 1775.8007,-252 1775.8007,-216 1924.1993,-216 1924.1993,-252"/>
<text text-anchor="middle" x="1850" y="-229.8" font-family="Times,serif" font-size="14.00" fill="#000000">AngularCesiumModule</text>
</g>
<!-- AcMapComponent&#45;&gt;AngularCesiumModule -->
<g id="edge1" class="edge">
<title>AcMapComponent&#45;&gt;AngularCesiumModule</title>
<path fill="none" stroke="#000000" d="M3968,-187.2228C3968,-207.3652 3968,-237 3968,-237 3968,-237 1934.1388,-237 1934.1388,-237"/>
<polygon fill="#000000" stroke="#000000" points="1934.1389,-233.5001 1924.1388,-237 1934.1388,-240.5001 1934.1389,-233.5001"/>
</g>
<!-- AcLayerComponent -->
<g id="node2" class="node">
<title>AcLayerComponent</title>
<polygon fill="#ffffb3" stroke="#000000" points="3888.2963,-187 3757.7037,-187 3757.7037,-151 3888.2963,-151 3888.2963,-187"/>
<text text-anchor="middle" x="3823" y="-164.8" font-family="Times,serif" font-size="14.00" fill="#000000">AcLayerComponent</text>
</g>
<!-- AcLayerComponent&#45;&gt;AngularCesiumModule -->
<g id="edge2" class="edge">
<title>AcLayerComponent&#45;&gt;AngularCesiumModule</title>
<path fill="none" stroke="#000000" d="M3823,-187.0348C3823,-206.5762 3823,-235 3823,-235 3823,-235 1934.3378,-235 1934.3378,-235"/>
<polygon fill="#000000" stroke="#000000" points="1934.3378,-231.5001 1924.3378,-235 1934.3377,-238.5001 1934.3378,-231.5001"/>
</g>
<!-- AcBillboardComponent -->
<g id="node3" class="node">
<title>AcBillboardComponent</title>
<polygon fill="#ffffb3" stroke="#000000" points="3740.0379,-187 3589.9621,-187 3589.9621,-151 3740.0379,-151 3740.0379,-187"/>
<text text-anchor="middle" x="3665" y="-164.8" font-family="Times,serif" font-size="14.00" fill="#000000">AcBillboardComponent</text>
</g>
<!-- AcBillboardComponent&#45;&gt;AngularCesiumModule -->
<g id="edge3" class="edge">
<title>AcBillboardComponent&#45;&gt;AngularCesiumModule</title>
<path fill="none" stroke="#000000" d="M3665,-187.1061C3665,-206.3391 3665,-234 3665,-234 3665,-234 1934.2492,-234 1934.2492,-234"/>
<polygon fill="#000000" stroke="#000000" points="1934.2492,-230.5001 1924.2492,-234 1934.2492,-237.5001 1934.2492,-230.5001"/>
</g>
<!-- AcBillboardDescComponent -->
<g id="node4" class="node">
<title>AcBillboardDescComponent</title>
<polygon fill="#ffffb3" stroke="#000000" points="3571.0183,-187 3392.9817,-187 3392.9817,-151 3571.0183,-151 3571.0183,-187"/>
<text text-anchor="middle" x="3482" y="-164.8" font-family="Times,serif" font-size="14.00" fill="#000000">AcBillboardDescComponent</text>
</g>
<!-- AcBillboardDescComponent&#45;&gt;AngularCesiumModule -->
<g id="edge4" class="edge">
<title>AcBillboardDescComponent&#45;&gt;AngularCesiumModule</title>
<path fill="none" stroke="#000000" d="M3482,-187.2222C3482,-205.8285 3482,-232 3482,-232 3482,-232 1934.3644,-232 1934.3644,-232"/>
<polygon fill="#000000" stroke="#000000" points="1934.3645,-228.5001 1924.3644,-232 1934.3644,-235.5001 1934.3645,-228.5001"/>
</g>
<!-- AcLabelDescComponent -->
<g id="node5" class="node">
<title>AcLabelDescComponent</title>
<polygon fill="#ffffb3" stroke="#000000" points="3374.5072,-187 3217.4928,-187 3217.4928,-151 3374.5072,-151 3374.5072,-187"/>
<text text-anchor="middle" x="3296" y="-164.8" font-family="Times,serif" font-size="14.00" fill="#000000">AcLabelDescComponent</text>
</g>
<!-- AcLabelDescComponent&#45;&gt;AngularCesiumModule -->
<g id="edge5" class="edge">
<title>AcLabelDescComponent&#45;&gt;AngularCesiumModule</title>
<path fill="none" stroke="#000000" d="M3264.8645,-187.302C3264.8645,-205.2699 3264.8645,-230 3264.8645,-230 3264.8645,-230 1934.573,-230 1934.573,-230"/>
<polygon fill="#000000" stroke="#000000" points="1934.573,-226.5001 1924.573,-230 1934.573,-233.5001 1934.573,-226.5001"/>
</g>
<!-- AcStaticEllipseDescComponent -->
<g id="node6" class="node">
<title>AcStaticEllipseDescComponent</title>
<polygon fill="#ffffb3" stroke="#000000" points="3199.4016,-187 3002.5984,-187 3002.5984,-151 3199.4016,-151 3199.4016,-187"/>
<text text-anchor="middle" x="3101" y="-164.8" font-family="Times,serif" font-size="14.00" fill="#000000">AcStaticEllipseDescComponent</text>
</g>
<!-- AcStaticEllipseDescComponent&#45;&gt;AngularCesiumModule -->
<g id="edge6" class="edge">
<title>AcStaticEllipseDescComponent&#45;&gt;AngularCesiumModule</title>
<path fill="none" stroke="#000000" d="M3017.9041,-187.0225C3017.9041,-204.3734 3017.9041,-228 3017.9041,-228 3017.9041,-228 1934.3884,-228 1934.3884,-228"/>
<polygon fill="#000000" stroke="#000000" points="1934.3884,-224.5001 1924.3884,-228 1934.3884,-231.5001 1934.3884,-224.5001"/>
</g>
<!-- AcDynamicEllipseDescComponent -->
<g id="node7" class="node">
<title>AcDynamicEllipseDescComponent</title>
<polygon fill="#ffffb3" stroke="#000000" points="2984.8347,-187 2769.1653,-187 2769.1653,-151 2984.8347,-151 2984.8347,-187"/>
<text text-anchor="middle" x="2877" y="-164.8" font-family="Times,serif" font-size="14.00" fill="#000000">AcDynamicEllipseDescComponent</text>
</g>
<!-- AcDynamicEllipseDescComponent&#45;&gt;AngularCesiumModule -->
<g id="edge7" class="edge">
<title>AcDynamicEllipseDescComponent&#45;&gt;AngularCesiumModule</title>
<path fill="none" stroke="#000000" d="M2800.793,-187.0352C2800.793,-203.7344 2800.793,-226 2800.793,-226 2800.793,-226 1934.2111,-226 1934.2111,-226"/>
<polygon fill="#000000" stroke="#000000" points="1934.2111,-222.5001 1924.2111,-226 1934.2111,-229.5001 1934.2111,-222.5001"/>
</g>
<!-- AcDynamicPolylineDescComponent -->
<g id="node8" class="node">
<title>AcDynamicPolylineDescComponent</title>
<polygon fill="#ffffb3" stroke="#000000" points="2750.6203,-187 2527.3797,-187 2527.3797,-151 2750.6203,-151 2750.6203,-187"/>
<text text-anchor="middle" x="2639" y="-164.8" font-family="Times,serif" font-size="14.00" fill="#000000">AcDynamicPolylineDescComponent</text>
</g>
<!-- AcDynamicPolylineDescComponent&#45;&gt;AngularCesiumModule -->
<g id="edge8" class="edge">
<title>AcDynamicPolylineDescComponent&#45;&gt;AngularCesiumModule</title>
<path fill="none" stroke="#000000" d="M2590.5703,-187.0091C2590.5703,-203.0494 2590.5703,-224 2590.5703,-224 2590.5703,-224 1934.3995,-224 1934.3995,-224"/>
<polygon fill="#000000" stroke="#000000" points="1934.3995,-220.5001 1924.3995,-224 1934.3994,-227.5001 1934.3995,-220.5001"/>
</g>
<!-- AcStaticPolygonDescComponent -->
<g id="node9" class="node">
<title>AcStaticPolygonDescComponent</title>
<polygon fill="#ffffb3" stroke="#000000" points="2509.1909,-187 2304.8091,-187 2304.8091,-151 2509.1909,-151 2509.1909,-187"/>
<text text-anchor="middle" x="2407" y="-164.8" font-family="Times,serif" font-size="14.00" fill="#000000">AcStaticPolygonDescComponent</text>
</g>
<!-- AcStaticPolygonDescComponent&#45;&gt;AngularCesiumModule -->
<g id="edge9" class="edge">
<title>AcStaticPolygonDescComponent&#45;&gt;AngularCesiumModule</title>
<path fill="none" stroke="#000000" d="M2370.286,-187.2396C2370.286,-202.5706 2370.286,-222 2370.286,-222 2370.286,-222 1934.2678,-222 1934.2678,-222"/>
<polygon fill="#000000" stroke="#000000" points="1934.2679,-218.5001 1924.2678,-222 1934.2678,-225.5001 1934.2679,-218.5001"/>
</g>
<!-- PixelOffsetPipe -->
<g id="node10" class="node">
<title>PixelOffsetPipe</title>
<polygon fill="#ffffb3" stroke="#000000" points="2287.1444,-187 2182.8556,-187 2182.8556,-151 2287.1444,-151 2287.1444,-187"/>
<text text-anchor="middle" x="2235" y="-164.8" font-family="Times,serif" font-size="14.00" fill="#000000">PixelOffsetPipe</text>
</g>
<!-- PixelOffsetPipe&#45;&gt;AngularCesiumModule -->
<g id="edge10" class="edge">
<title>PixelOffsetPipe&#45;&gt;AngularCesiumModule</title>
<path fill="none" stroke="#000000" d="M2190.6191,-187.1243C2190.6191,-201.7832 2190.6191,-220 2190.6191,-220 2190.6191,-220 1934.3294,-220 1934.3294,-220"/>
<polygon fill="#000000" stroke="#000000" points="1934.3294,-216.5001 1924.3294,-220 1934.3294,-223.5001 1934.3294,-216.5001"/>
</g>
<!-- AcStaticCircleDescComponent -->
<g id="node11" class="node">
<title>AcStaticCircleDescComponent</title>
<polygon fill="#ffffb3" stroke="#000000" points="2164.7254,-187 1973.2746,-187 1973.2746,-151 2164.7254,-151 2164.7254,-187"/>
<text text-anchor="middle" x="2069" y="-164.8" font-family="Times,serif" font-size="14.00" fill="#000000">AcStaticCircleDescComponent</text>
</g>
<!-- AcStaticCircleDescComponent&#45;&gt;AngularCesiumModule -->
<g id="edge11" class="edge">
<title>AcStaticCircleDescComponent&#45;&gt;AngularCesiumModule</title>
<path fill="none" stroke="#000000" d="M2100.9542,-187.2458C2100.9542,-201.1772 2100.9542,-218 2100.9542,-218 2100.9542,-218 1934.2759,-218 1934.2759,-218"/>
<polygon fill="#000000" stroke="#000000" points="1934.276,-214.5001 1924.2759,-218 1934.2759,-221.5001 1934.276,-214.5001"/>
</g>
<!-- AcDynamicCircleDescComponent -->
<g id="node12" class="node">
<title>AcDynamicCircleDescComponent</title>
<polygon fill="#ffffb3" stroke="#000000" points="1955.6587,-187 1744.3413,-187 1744.3413,-151 1955.6587,-151 1955.6587,-187"/>
<text text-anchor="middle" x="1850" y="-164.8" font-family="Times,serif" font-size="14.00" fill="#000000">AcDynamicCircleDescComponent</text>
</g>
<!-- AcDynamicCircleDescComponent&#45;&gt;AngularCesiumModule -->
<g id="edge12" class="edge">
<title>AcDynamicCircleDescComponent&#45;&gt;AngularCesiumModule</title>
<path fill="none" stroke="#000000" d="M1850,-187.1061C1850,-187.1061 1850,-205.991 1850,-205.991"/>
<polygon fill="#000000" stroke="#000000" points="1846.5001,-205.9909 1850,-215.991 1853.5001,-205.991 1846.5001,-205.9909"/>
</g>
<!-- AcStaticPolylineDescComponent -->
<g id="node13" class="node">
<title>AcStaticPolylineDescComponent</title>
<polygon fill="#ffffb3" stroke="#000000" points="1726.1867,-187 1521.8133,-187 1521.8133,-151 1726.1867,-151 1726.1867,-187"/>
<text text-anchor="middle" x="1624" y="-164.8" font-family="Times,serif" font-size="14.00" fill="#000000">AcStaticPolylineDescComponent</text>
</g>
<!-- AcStaticPolylineDescComponent&#45;&gt;AngularCesiumModule -->
<g id="edge13" class="edge">
<title>AcStaticPolylineDescComponent&#45;&gt;AngularCesiumModule</title>
<path fill="none" stroke="#000000" d="M1638.0991,-187.2458C1638.0991,-201.1772 1638.0991,-218 1638.0991,-218 1638.0991,-218 1765.8873,-218 1765.8873,-218"/>
<polygon fill="#000000" stroke="#000000" points="1765.8874,-221.5001 1775.8873,-218 1765.8873,-214.5001 1765.8874,-221.5001"/>
</g>
<!-- AcArcDescComponent -->
<g id="node14" class="node">
<title>AcArcDescComponent</title>
<polygon fill="#ffffb3" stroke="#000000" points="1504.1163,-187 1357.8837,-187 1357.8837,-151 1504.1163,-151 1504.1163,-187"/>
<text text-anchor="middle" x="1431" y="-164.8" font-family="Times,serif" font-size="14.00" fill="#000000">AcArcDescComponent</text>
</g>
<!-- AcArcDescComponent&#45;&gt;AngularCesiumModule -->
<g id="edge14" class="edge">
<title>AcArcDescComponent&#45;&gt;AngularCesiumModule</title>
<path fill="none" stroke="#000000" d="M1442.3477,-187.1243C1442.3477,-201.7832 1442.3477,-220 1442.3477,-220 1442.3477,-220 1765.7043,-220 1765.7043,-220"/>
<polygon fill="#000000" stroke="#000000" points="1765.7043,-223.5001 1775.7043,-220 1765.7043,-216.5001 1765.7043,-223.5001"/>
</g>
<!-- AcMapLayerProviderComponent -->
<g id="node15" class="node">
<title>AcMapLayerProviderComponent</title>
<polygon fill="#ffffb3" stroke="#000000" points="1340.1643,-187 1135.8357,-187 1135.8357,-151 1340.1643,-151 1340.1643,-187"/>
<text text-anchor="middle" x="1238" y="-164.8" font-family="Times,serif" font-size="14.00" fill="#000000">AcMapLayerProviderComponent</text>
</g>
<!-- AcMapLayerProviderComponent&#45;&gt;AngularCesiumModule -->
<g id="edge15" class="edge">
<title>AcMapLayerProviderComponent&#45;&gt;AngularCesiumModule</title>
<path fill="none" stroke="#000000" d="M1243.8764,-187.2396C1243.8764,-202.5706 1243.8764,-222 1243.8764,-222 1243.8764,-222 1765.6773,-222 1765.6773,-222"/>
<polygon fill="#000000" stroke="#000000" points="1765.6774,-225.5001 1775.6773,-222 1765.6773,-218.5001 1765.6774,-225.5001"/>
</g>
<!-- AcPointDescComponent -->
<g id="node16" class="node">
<title>AcPointDescComponent</title>
<polygon fill="#ffffb3" stroke="#000000" points="1117.6979,-187 962.3021,-187 962.3021,-151 1117.6979,-151 1117.6979,-187"/>
<text text-anchor="middle" x="1040" y="-164.8" font-family="Times,serif" font-size="14.00" fill="#000000">AcPointDescComponent</text>
</g>
<!-- AcPointDescComponent&#45;&gt;AngularCesiumModule -->
<g id="edge16" class="edge">
<title>AcPointDescComponent&#45;&gt;AngularCesiumModule</title>
<path fill="none" stroke="#000000" d="M1040,-187.0091C1040,-203.0494 1040,-224 1040,-224 1040,-224 1765.6102,-224 1765.6102,-224"/>
<polygon fill="#000000" stroke="#000000" points="1765.6102,-227.5001 1775.6102,-224 1765.6101,-220.5001 1765.6102,-227.5001"/>
</g>
<!-- AcMapComponent  -->
<g id="node21" class="node">
<title>AcMapComponent </title>
<polygon fill="#fb8072" stroke="#000000" points="3349.3129,-317 3222.6871,-317 3222.6871,-281 3349.3129,-281 3349.3129,-317"/>
<text text-anchor="middle" x="3286" y="-294.8" font-family="Times,serif" font-size="14.00" fill="#000000">AcMapComponent </text>
</g>
<!-- AngularCesiumModule&#45;&gt;AcMapComponent  -->
<g id="edge20" class="edge">
<title>AngularCesiumModule&#45;&gt;AcMapComponent </title>
<path fill="none" stroke="#000000" stroke-dasharray="5,2" d="M1924.2628,-239C2221.1987,-239 3307.1355,-239 3307.1355,-239 3307.1355,-239 3307.1355,-270.998 3307.1355,-270.998"/>
<polygon fill="#000000" stroke="#000000" points="3303.6356,-270.998 3307.1355,-280.998 3310.6356,-270.9981 3303.6356,-270.998"/>
</g>
<!-- AcBillboardComponent  -->
<g id="node22" class="node">
<title>AcBillboardComponent </title>
<polygon fill="#fb8072" stroke="#000000" points="3205.0372,-317 3050.9628,-317 3050.9628,-281 3205.0372,-281 3205.0372,-317"/>
<text text-anchor="middle" x="3128" y="-294.8" font-family="Times,serif" font-size="14.00" fill="#000000">AcBillboardComponent </text>
</g>
<!-- AngularCesiumModule&#45;&gt;AcBillboardComponent  -->
<g id="edge21" class="edge">
<title>AngularCesiumModule&#45;&gt;AcBillboardComponent </title>
<path fill="none" stroke="#000000" stroke-dasharray="5,2" d="M1924.5334,-241C2197.2638,-241 3125.091,-241 3125.091,-241 3125.091,-241 3125.091,-270.9664 3125.091,-270.9664"/>
<polygon fill="#000000" stroke="#000000" points="3121.5911,-270.9663 3125.091,-280.9664 3128.5911,-270.9664 3121.5911,-270.9663"/>
</g>
<!-- AcBillboardDescComponent  -->
<g id="node23" class="node">
<title>AcBillboardDescComponent </title>
<polygon fill="#fb8072" stroke="#000000" points="3033.0176,-317 2850.9824,-317 2850.9824,-281 3033.0176,-281 3033.0176,-317"/>
<text text-anchor="middle" x="2942" y="-294.8" font-family="Times,serif" font-size="14.00" fill="#000000">AcBillboardDescComponent </text>
</g>
<!-- AngularCesiumModule&#45;&gt;AcBillboardDescComponent  -->
<g id="edge22" class="edge">
<title>AngularCesiumModule&#45;&gt;AcBillboardDescComponent </title>
<path fill="none" stroke="#000000" stroke-dasharray="5,2" d="M1924.2486,-243C2166.4368,-243 2917.9542,-243 2917.9542,-243 2917.9542,-243 2917.9542,-270.973 2917.9542,-270.973"/>
<polygon fill="#000000" stroke="#000000" points="2914.4543,-270.973 2917.9542,-280.973 2921.4543,-270.973 2914.4543,-270.973"/>
</g>
<!-- AcLabelDescComponent  -->
<g id="node24" class="node">
<title>AcLabelDescComponent </title>
<polygon fill="#fb8072" stroke="#000000" points="2832.5064,-317 2671.4936,-317 2671.4936,-281 2832.5064,-281 2832.5064,-317"/>
<text text-anchor="middle" x="2752" y="-294.8" font-family="Times,serif" font-size="14.00" fill="#000000">AcLabelDescComponent </text>
</g>
<!-- AngularCesiumModule&#45;&gt;AcLabelDescComponent  -->
<g id="edge23" class="edge">
<title>AngularCesiumModule&#45;&gt;AcLabelDescComponent </title>
<path fill="none" stroke="#000000" stroke-dasharray="5,2" d="M1924.1668,-245C2133.0513,-245 2711.1534,-245 2711.1534,-245 2711.1534,-245 2711.1534,-270.7181 2711.1534,-270.7181"/>
<polygon fill="#000000" stroke="#000000" points="2707.6535,-270.718 2711.1534,-280.7181 2714.6535,-270.7181 2707.6535,-270.718"/>
</g>
<!-- AcStaticEllipseDescComponent  -->
<g id="node25" class="node">
<title>AcStaticEllipseDescComponent </title>
<polygon fill="#fb8072" stroke="#000000" points="2653.9012,-317 2454.0988,-317 2454.0988,-281 2653.9012,-281 2653.9012,-317"/>
<text text-anchor="middle" x="2554" y="-294.8" font-family="Times,serif" font-size="14.00" fill="#000000">AcStaticEllipseDescComponent </text>
</g>
<!-- AngularCesiumModule&#45;&gt;AcStaticEllipseDescComponent  -->
<g id="edge24" class="edge">
<title>AngularCesiumModule&#45;&gt;AcStaticEllipseDescComponent </title>
<path fill="none" stroke="#000000" stroke-dasharray="5,2" d="M1924.3066,-247C2091.2576,-247 2481.5724,-247 2481.5724,-247 2481.5724,-247 2481.5724,-270.8129 2481.5724,-270.8129"/>
<polygon fill="#000000" stroke="#000000" points="2478.0725,-270.8129 2481.5724,-280.8129 2485.0725,-270.813 2478.0725,-270.8129"/>
</g>
<!-- AcDynamicEllipseDescComponent  -->
<g id="node26" class="node">
<title>AcDynamicEllipseDescComponent </title>
<polygon fill="#fb8072" stroke="#000000" points="2435.8349,-317 2216.1651,-317 2216.1651,-281 2435.8349,-281 2435.8349,-317"/>
<text text-anchor="middle" x="2326" y="-294.8" font-family="Times,serif" font-size="14.00" fill="#000000">AcDynamicEllipseDescComponent </text>
</g>
<!-- AngularCesiumModule&#45;&gt;AcDynamicEllipseDescComponent  -->
<g id="edge25" class="edge">
<title>AngularCesiumModule&#45;&gt;AcDynamicEllipseDescComponent </title>
<path fill="none" stroke="#000000" stroke-dasharray="5,2" d="M1924.1696,-249C2040.2753,-249 2251.8273,-249 2251.8273,-249 2251.8273,-249 2251.8273,-270.9489 2251.8273,-270.9489"/>
<polygon fill="#000000" stroke="#000000" points="2248.3274,-270.9488 2251.8273,-280.9489 2255.3274,-270.9489 2248.3274,-270.9488"/>
</g>
<!-- AcDynamicPolylineDescComponent  -->
<g id="node27" class="node">
<title>AcDynamicPolylineDescComponent </title>
<polygon fill="#fb8072" stroke="#000000" points="2198.62,-317 1971.38,-317 1971.38,-281 2198.62,-281 2198.62,-317"/>
<text text-anchor="middle" x="2085" y="-294.8" font-family="Times,serif" font-size="14.00" fill="#000000">AcDynamicPolylineDescComponent </text>
</g>
<!-- AngularCesiumModule&#45;&gt;AcDynamicPolylineDescComponent  -->
<g id="edge26" class="edge">
<title>AngularCesiumModule&#45;&gt;AcDynamicPolylineDescComponent </title>
<path fill="none" stroke="#000000" stroke-dasharray="5,2" d="M1924.1941,-251C1976.4161,-251 2037.0458,-251 2037.0458,-251 2037.0458,-251 2037.0458,-270.8533 2037.0458,-270.8533"/>
<polygon fill="#000000" stroke="#000000" points="2033.5459,-270.8532 2037.0458,-280.8533 2040.5459,-270.8533 2033.5459,-270.8532"/>
</g>
<!-- AcStaticPolygonDescComponent  -->
<g id="node28" class="node">
<title>AcStaticPolygonDescComponent </title>
<polygon fill="#fb8072" stroke="#000000" points="1953.691,-317 1746.309,-317 1746.309,-281 1953.691,-281 1953.691,-317"/>
<text text-anchor="middle" x="1850" y="-294.8" font-family="Times,serif" font-size="14.00" fill="#000000">AcStaticPolygonDescComponent </text>
</g>
<!-- AngularCesiumModule&#45;&gt;AcStaticPolygonDescComponent  -->
<g id="edge27" class="edge">
<title>AngularCesiumModule&#45;&gt;AcStaticPolygonDescComponent </title>
<path fill="none" stroke="#000000" stroke-dasharray="5,2" d="M1850,-252.1061C1850,-252.1061 1850,-270.991 1850,-270.991"/>
<polygon fill="#000000" stroke="#000000" points="1846.5001,-270.9909 1850,-280.991 1853.5001,-270.991 1846.5001,-270.9909"/>
</g>
<!-- AcLayerComponent  -->
<g id="node29" class="node">
<title>AcLayerComponent </title>
<polygon fill="#fb8072" stroke="#000000" points="1727.7962,-317 1594.2038,-317 1594.2038,-281 1727.7962,-281 1727.7962,-317"/>
<text text-anchor="middle" x="1661" y="-294.8" font-family="Times,serif" font-size="14.00" fill="#000000">AcLayerComponent </text>
</g>
<!-- AngularCesiumModule&#45;&gt;AcLayerComponent  -->
<g id="edge28" class="edge">
<title>AngularCesiumModule&#45;&gt;AcLayerComponent </title>
<path fill="none" stroke="#000000" stroke-dasharray="5,2" d="M1775.8662,-251C1730.8871,-251 1682.0962,-251 1682.0962,-251 1682.0962,-251 1682.0962,-270.8533 1682.0962,-270.8533"/>
<polygon fill="#000000" stroke="#000000" points="1678.5963,-270.8532 1682.0962,-280.8533 1685.5963,-270.8533 1678.5963,-270.8532"/>
</g>
<!-- AcStaticCircleDescComponent  -->
<g id="node30" class="node">
<title>AcStaticCircleDescComponent </title>
<polygon fill="#fb8072" stroke="#000000" points="1575.7253,-317 1380.2747,-317 1380.2747,-281 1575.7253,-281 1575.7253,-317"/>
<text text-anchor="middle" x="1478" y="-294.8" font-family="Times,serif" font-size="14.00" fill="#000000">AcStaticCircleDescComponent </text>
</g>
<!-- AngularCesiumModule&#45;&gt;AcStaticCircleDescComponent  -->
<g id="edge29" class="edge">
<title>AngularCesiumModule&#45;&gt;AcStaticCircleDescComponent </title>
<path fill="none" stroke="#000000" stroke-dasharray="5,2" d="M1775.5361,-249C1686.3302,-249 1548.7597,-249 1548.7597,-249 1548.7597,-249 1548.7597,-270.9489 1548.7597,-270.9489"/>
<polygon fill="#000000" stroke="#000000" points="1545.2597,-270.9488 1548.7597,-280.9489 1552.2597,-270.9489 1545.2597,-270.9488"/>
</g>
<!-- AcDynamicCircleDescComponent  -->
<g id="node31" class="node">
<title>AcDynamicCircleDescComponent </title>
<polygon fill="#fb8072" stroke="#000000" points="1362.1589,-317 1147.8411,-317 1147.8411,-281 1362.1589,-281 1362.1589,-317"/>
<text text-anchor="middle" x="1255" y="-294.8" font-family="Times,serif" font-size="14.00" fill="#000000">AcDynamicCircleDescComponent </text>
</g>
<!-- AngularCesiumModule&#45;&gt;AcDynamicCircleDescComponent  -->
<g id="edge30" class="edge">
<title>AngularCesiumModule&#45;&gt;AcDynamicCircleDescComponent </title>
<path fill="none" stroke="#000000" stroke-dasharray="5,2" d="M1775.7894,-247C1636.2954,-247 1348.8871,-247 1348.8871,-247 1348.8871,-247 1348.8871,-270.8129 1348.8871,-270.8129"/>
<polygon fill="#000000" stroke="#000000" points="1345.3872,-270.8129 1348.8871,-280.8129 1352.3872,-270.813 1345.3872,-270.8129"/>
</g>
<!-- AcStaticPolylineDescComponent  -->
<g id="node32" class="node">
<title>AcStaticPolylineDescComponent </title>
<polygon fill="#fb8072" stroke="#000000" points="1129.6868,-317 922.3132,-317 922.3132,-281 1129.6868,-281 1129.6868,-317"/>
<text text-anchor="middle" x="1026" y="-294.8" font-family="Times,serif" font-size="14.00" fill="#000000">AcStaticPolylineDescComponent </text>
</g>
<!-- AngularCesiumModule&#45;&gt;AcStaticPolylineDescComponent  -->
<g id="edge31" class="edge">
<title>AngularCesiumModule&#45;&gt;AcStaticPolylineDescComponent </title>
<path fill="none" stroke="#000000" stroke-dasharray="5,2" d="M1775.6885,-245C1590.5845,-245 1123.7211,-245 1123.7211,-245 1123.7211,-245 1123.7211,-270.7181 1123.7211,-270.7181"/>
<polygon fill="#000000" stroke="#000000" points="1120.2212,-270.718 1123.7211,-280.7181 1127.2212,-270.7181 1120.2212,-270.718"/>
</g>
<!-- AcArcDescComponent  -->
<g id="node33" class="node">
<title>AcArcDescComponent </title>
<polygon fill="#fb8072" stroke="#000000" points="904.1158,-317 753.8842,-317 753.8842,-281 904.1158,-281 904.1158,-317"/>
<text text-anchor="middle" x="829" y="-294.8" font-family="Times,serif" font-size="14.00" fill="#000000">AcArcDescComponent </text>
</g>
<!-- AngularCesiumModule&#45;&gt;AcArcDescComponent  -->
<g id="edge32" class="edge">
<title>AngularCesiumModule&#45;&gt;AcArcDescComponent </title>
<path fill="none" stroke="#000000" stroke-dasharray="5,2" d="M1775.8197,-243C1544.5822,-243 852.2222,-243 852.2222,-243 852.2222,-243 852.2222,-270.973 852.2222,-270.973"/>
<polygon fill="#000000" stroke="#000000" points="848.7222,-270.973 852.2222,-280.973 855.7222,-270.973 848.7222,-270.973"/>
</g>
<!-- AcMapLayerProviderComponent  -->
<g id="node34" class="node">
<title>AcMapLayerProviderComponent </title>
<polygon fill="#fb8072" stroke="#000000" points="735.6645,-317 528.3355,-317 528.3355,-281 735.6645,-281 735.6645,-317"/>
<text text-anchor="middle" x="632" y="-294.8" font-family="Times,serif" font-size="14.00" fill="#000000">AcMapLayerProviderComponent </text>
</g>
<!-- AngularCesiumModule&#45;&gt;AcMapLayerProviderComponent  -->
<g id="edge33" class="edge">
<title>AngularCesiumModule&#45;&gt;AcMapLayerProviderComponent </title>
<path fill="none" stroke="#000000" stroke-dasharray="5,2" d="M1775.7322,-241C1524.8965,-241 724.7229,-241 724.7229,-241 724.7229,-241 724.7229,-270.9664 724.7229,-270.9664"/>
<polygon fill="#000000" stroke="#000000" points="721.2229,-270.9663 724.7229,-280.9664 728.2229,-270.9664 721.2229,-270.9663"/>
</g>
<!-- AcPointDescComponent  -->
<g id="node35" class="node">
<title>AcPointDescComponent </title>
<polygon fill="#fb8072" stroke="#000000" points="510.1981,-317 351.8019,-317 351.8019,-281 510.1981,-281 510.1981,-317"/>
<text text-anchor="middle" x="431" y="-294.8" font-family="Times,serif" font-size="14.00" fill="#000000">AcPointDescComponent </text>
</g>
<!-- AngularCesiumModule&#45;&gt;AcPointDescComponent  -->
<g id="edge34" class="edge">
<title>AngularCesiumModule&#45;&gt;AcPointDescComponent </title>
<path fill="none" stroke="#000000" stroke-dasharray="5,2" d="M1775.5282,-239C1486.5912,-239 455.68,-239 455.68,-239 455.68,-239 455.68,-270.998 455.68,-270.998"/>
<polygon fill="#000000" stroke="#000000" points="452.1799,-270.9981 455.68,-280.998 459.1799,-270.998 452.1799,-270.9981"/>
</g>
<!-- CommonModule -->
<g id="node18" class="node">
<title>CommonModule</title>
<polygon fill="#8dd3c7" stroke="#000000" points="777.6681,-122 774.6681,-126 753.6681,-126 750.6681,-122 666.3319,-122 666.3319,-86 777.6681,-86 777.6681,-122"/>
<text text-anchor="middle" x="722" y="-99.8" font-family="Times,serif" font-size="14.00" fill="#000000">CommonModule</text>
</g>
<!-- CommonModule&#45;&gt;AngularCesiumModule -->
<g id="edge17" class="edge">
<title>CommonModule&#45;&gt;AngularCesiumModule</title>
<path fill="none" stroke="#000000" d="M689.8899,-122.0527C689.8899,-156.8929 689.8899,-230 689.8899,-230 689.8899,-230 1765.6651,-230 1765.6651,-230"/>
<polygon fill="#000000" stroke="#000000" points="1765.6651,-233.5001 1775.6651,-230 1765.6651,-226.5001 1765.6651,-233.5001"/>
</g>
<!-- UtilsModule -->
<g id="node20" class="node">
<title>UtilsModule</title>
<polygon fill="#8dd3c7" stroke="#000000" points="800.2731,-187 797.2731,-191 776.2731,-191 773.2731,-187 713.7269,-187 713.7269,-151 800.2731,-151 800.2731,-187"/>
<text text-anchor="middle" x="757" y="-164.8" font-family="Times,serif" font-size="14.00" fill="#000000">UtilsModule</text>
</g>
<!-- CommonModule&#45;&gt;UtilsModule -->
<g id="edge39" class="edge">
<title>CommonModule&#45;&gt;UtilsModule</title>
<path fill="none" stroke="#000000" d="M745.7237,-122.1061C745.7237,-122.1061 745.7237,-140.991 745.7237,-140.991"/>
<polygon fill="#000000" stroke="#000000" points="742.2238,-140.9909 745.7237,-150.991 749.2238,-140.991 742.2238,-140.9909"/>
</g>
<!-- Angular2ParseModule -->
<g id="node19" class="node">
<title>Angular2ParseModule</title>
<polygon fill="#8dd3c7" stroke="#000000" points="938.2394,-122 935.2394,-126 914.2394,-126 911.2394,-122 795.7606,-122 795.7606,-86 938.2394,-86 938.2394,-122"/>
<text text-anchor="middle" x="867" y="-99.8" font-family="Times,serif" font-size="14.00" fill="#000000">Angular2ParseModule</text>
</g>
<!-- Angular2ParseModule&#45;&gt;AngularCesiumModule -->
<g id="edge18" class="edge">
<title>Angular2ParseModule&#45;&gt;AngularCesiumModule</title>
<path fill="none" stroke="#000000" d="M930.2632,-122.0015C930.2632,-155.9379 930.2632,-226 930.2632,-226 930.2632,-226 1765.5131,-226 1765.5131,-226"/>
<polygon fill="#000000" stroke="#000000" points="1765.5132,-229.5001 1775.5131,-226 1765.5131,-222.5001 1765.5132,-229.5001"/>
</g>
<!-- UtilsModule&#45;&gt;AngularCesiumModule -->
<g id="edge19" class="edge">
<title>UtilsModule&#45;&gt;AngularCesiumModule</title>
<path fill="none" stroke="#000000" d="M777.1643,-187.0225C777.1643,-204.3734 777.1643,-228 777.1643,-228 777.1643,-228 1765.8364,-228 1765.8364,-228"/>
<polygon fill="#000000" stroke="#000000" points="1765.8364,-231.5001 1775.8364,-228 1765.8363,-224.5001 1765.8364,-231.5001"/>
</g>
<!-- JsonMapper -->
<g id="node36" class="node">
<title>JsonMapper</title>
<ellipse fill="#fdb462" stroke="#000000" cx="584" cy="-169" rx="58.4687" ry="18"/>
<text text-anchor="middle" x="584" y="-164.8" font-family="Times,serif" font-size="14.00" fill="#000000">JsonMapper</text>
</g>
<!-- JsonMapper&#45;&gt;AngularCesiumModule -->
<g id="edge35" class="edge">
<title>JsonMapper&#45;&gt;AngularCesiumModule</title>
<path fill="none" stroke="#000000" d="M585.2009,-187.2222C585.2009,-205.8285 585.2009,-232 585.2009,-232 585.2009,-232 1765.603,-232 1765.603,-232"/>
<polygon fill="#000000" stroke="#000000" points="1765.603,-235.5001 1775.603,-232 1765.603,-228.5001 1765.603,-235.5001"/>
</g>
<!-- CesiumProperties -->
<g id="node37" class="node">
<title>CesiumProperties</title>
<ellipse fill="#fdb462" stroke="#000000" cx="428" cy="-169" rx="79.8895" ry="18"/>
<text text-anchor="middle" x="428" y="-164.8" font-family="Times,serif" font-size="14.00" fill="#000000">CesiumProperties</text>
</g>
<!-- CesiumProperties&#45;&gt;AngularCesiumModule -->
<g id="edge36" class="edge">
<title>CesiumProperties&#45;&gt;AngularCesiumModule</title>
<path fill="none" stroke="#000000" d="M403.6656,-186.4188C403.6656,-205.6726 403.6656,-234 403.6656,-234 403.6656,-234 1765.7868,-234 1765.7868,-234"/>
<polygon fill="#000000" stroke="#000000" points="1765.7868,-237.5001 1775.7868,-234 1765.7867,-230.5001 1765.7868,-237.5001"/>
</g>
<!-- GeoUtilsService -->
<g id="node38" class="node">
<title>GeoUtilsService</title>
<ellipse fill="#fdb462" stroke="#000000" cx="255" cy="-169" rx="74.713" ry="18"/>
<text text-anchor="middle" x="255" y="-164.8" font-family="Times,serif" font-size="14.00" fill="#000000">GeoUtilsService</text>
</g>
<!-- GeoUtilsService&#45;&gt;AngularCesiumModule -->
<g id="edge37" class="edge">
<title>GeoUtilsService&#45;&gt;AngularCesiumModule</title>
<path fill="none" stroke="#000000" d="M255,-187.0348C255,-206.5762 255,-235 255,-235 255,-235 1765.7398,-235 1765.7398,-235"/>
<polygon fill="#000000" stroke="#000000" points="1765.7398,-238.5001 1775.7398,-235 1765.7397,-231.5001 1765.7398,-238.5001"/>
</g>
<!-- ViewerFactory -->
<g id="node39" class="node">
<title>ViewerFactory</title>
<ellipse fill="#fdb462" stroke="#000000" cx="93" cy="-169" rx="68.8965" ry="18"/>
<text text-anchor="middle" x="93" y="-164.8" font-family="Times,serif" font-size="14.00" fill="#000000">ViewerFactory</text>
</g>
<!-- ViewerFactory&#45;&gt;AngularCesiumModule -->
<g id="edge38" class="edge">
<title>ViewerFactory&#45;&gt;AngularCesiumModule</title>
<path fill="none" stroke="#000000" d="M93,-187.2228C93,-207.3652 93,-237 93,-237 93,-237 1765.6261,-237 1765.6261,-237"/>
<polygon fill="#000000" stroke="#000000" points="1765.6262,-240.5001 1775.6261,-237 1765.6261,-233.5001 1765.6262,-240.5001"/>
</g>
</g>
</svg>
