<?xml version="1.0" encoding="UTF-8" standalone="no"?>
<!DOCTYPE svg PUBLIC "-//W3C//DTD SVG 1.1//EN"
 "http://www.w3.org/Graphics/SVG/1.1/DTD/svg11.dtd">
<!-- Generated by graphviz version 2.40.1 (20161225.0304)
 -->
<!-- Title: dependencies Pages: 1 -->
<svg width="2524pt" height="284pt"
 viewBox="0.00 0.00 2524.00 284.00" xmlns="http://www.w3.org/2000/svg" xmlns:xlink="http://www.w3.org/1999/xlink">
<g id="graph0" class="graph" transform="scale(1 1) rotate(0) translate(4 280)">
<title>dependencies</title>
<polygon fill="#ffffff" stroke="transparent" points="-4,4 -4,-280 2520,-280 2520,4 -4,4"/>
<text text-anchor="start" x="1237.0091" y="-42.4" font-family="sans-serif" font-weight="bold" font-size="14.00" fill="#000000">Legend</text>
<polygon fill="#ffffb3" stroke="transparent" points="1024,-10 1024,-30 1044,-30 1044,-10 1024,-10"/>
<text text-anchor="start" x="1047.629" y="-15.4" font-family="sans-serif" font-size="14.00" fill="#000000"> &#160;Declarations</text>
<polygon fill="#8dd3c7" stroke="transparent" points="1137,-10 1137,-30 1157,-30 1157,-10 1137,-10"/>
<text text-anchor="start" x="1160.7251" y="-15.4" font-family="sans-serif" font-size="14.00" fill="#000000"> &#160;Module</text>
<polygon fill="#80b1d3" stroke="transparent" points="1223,-10 1223,-30 1243,-30 1243,-10 1223,-10"/>
<text text-anchor="start" x="1246.7812" y="-15.4" font-family="sans-serif" font-size="14.00" fill="#000000"> &#160;Bootstrap</text>
<polygon fill="#fdb462" stroke="transparent" points="1320,-10 1320,-30 1340,-30 1340,-10 1320,-10"/>
<text text-anchor="start" x="1343.6732" y="-15.4" font-family="sans-serif" font-size="14.00" fill="#000000"> &#160;Providers</text>
<polygon fill="#fb8072" stroke="transparent" points="1416,-10 1416,-30 1436,-30 1436,-10 1416,-10"/>
<text text-anchor="start" x="1439.7258" y="-15.4" font-family="sans-serif" font-size="14.00" fill="#000000"> &#160;Exports</text>
<g id="clust1" class="cluster">
<title>cluster_AngularCesiumWidgetsModule</title>
<polygon fill="none" stroke="#000000" stroke-dasharray="1,5" points="8,-70 8,-268 2508,-268 2508,-70 8,-70"/>
</g>
<g id="clust2" class="cluster">
<title>cluster_AngularCesiumWidgetsModule_declarations</title>
<polygon fill="none" stroke="#000000" points="672,-78 672,-130 2500,-130 2500,-78 672,-78"/>
</g>
<g id="clust13" class="cluster">
<title>cluster_AngularCesiumWidgetsModule_imports</title>
<polygon fill="none" stroke="#000000" points="500,-78 500,-130 664,-130 664,-78 500,-78"/>
</g>
<g id="clust14" class="cluster">
<title>cluster_AngularCesiumWidgetsModule_exports</title>
<polygon fill="none" stroke="#000000" points="465,-208 465,-260 2172,-260 2172,-208 465,-208"/>
</g>
<g id="clust16" class="cluster">
<title>cluster_AngularCesiumWidgetsModule_providers</title>
<polygon fill="none" stroke="#000000" points="16,-78 16,-130 492,-130 492,-78 16,-78"/>
</g>
<!-- AcToolbarButtonComponent -->
<g id="node1" class="node">
<title>AcToolbarButtonComponent</title>
<polygon fill="#ffffb3" stroke="#000000" points="2492.0898,-122 2311.9102,-122 2311.9102,-86 2492.0898,-86 2492.0898,-122"/>
<text text-anchor="middle" x="2402" y="-99.8" font-family="Times,serif" font-size="14.00" fill="#000000">AcToolbarButtonComponent</text>
</g>
<!-- AngularCesiumWidgetsModule -->
<g id="node11" class="node">
<title>AngularCesiumWidgetsModule</title>
<polygon fill="#8dd3c7" stroke="#000000" points="1447.3543,-187 1444.3543,-191 1423.3543,-191 1420.3543,-187 1252.6457,-187 1252.6457,-151 1447.3543,-151 1447.3543,-187"/>
<text text-anchor="middle" x="1350" y="-164.8" font-family="Times,serif" font-size="14.00" fill="#000000">AngularCesiumWidgetsModule</text>
</g>
<!-- AcToolbarButtonComponent&#45;&gt;AngularCesiumWidgetsModule -->
<g id="edge1" class="edge">
<title>AcToolbarButtonComponent&#45;&gt;AngularCesiumWidgetsModule</title>
<path fill="none" stroke="#000000" d="M2402,-122.308C2402,-142.1455 2402,-171 2402,-171 2402,-171 1457.554,-171 1457.554,-171"/>
<polygon fill="#000000" stroke="#000000" points="1457.554,-167.5001 1447.554,-171 1457.5539,-174.5001 1457.554,-167.5001"/>
</g>
<!-- AcToolbarComponent -->
<g id="node2" class="node">
<title>AcToolbarComponent</title>
<polygon fill="#ffffb3" stroke="#000000" points="2293.972,-122 2152.028,-122 2152.028,-86 2293.972,-86 2293.972,-122"/>
<text text-anchor="middle" x="2223" y="-99.8" font-family="Times,serif" font-size="14.00" fill="#000000">AcToolbarComponent</text>
</g>
<!-- AcToolbarComponent&#45;&gt;AngularCesiumWidgetsModule -->
<g id="edge2" class="edge">
<title>AcToolbarComponent&#45;&gt;AngularCesiumWidgetsModule</title>
<path fill="none" stroke="#000000" d="M2157.9045,-122.1686C2157.9045,-141.0898 2157.9045,-168 2157.9045,-168 2157.9045,-168 1457.4522,-168 1457.4522,-168"/>
<polygon fill="#000000" stroke="#000000" points="1457.4522,-164.5001 1447.4522,-168 1457.4521,-171.5001 1457.4522,-164.5001"/>
</g>
<!-- CirclesEditorComponent -->
<g id="node3" class="node">
<title>CirclesEditorComponent</title>
<polygon fill="#ffffb3" stroke="#000000" points="2133.979,-122 1978.021,-122 1978.021,-86 2133.979,-86 2133.979,-122"/>
<text text-anchor="middle" x="2056" y="-99.8" font-family="Times,serif" font-size="14.00" fill="#000000">CirclesEditorComponent</text>
</g>
<!-- CirclesEditorComponent&#45;&gt;AngularCesiumWidgetsModule -->
<g id="edge3" class="edge">
<title>CirclesEditorComponent&#45;&gt;AngularCesiumWidgetsModule</title>
<path fill="none" stroke="#000000" d="M2082.728,-122.302C2082.728,-140.2699 2082.728,-165 2082.728,-165 2082.728,-165 1457.6794,-165 1457.6794,-165"/>
<polygon fill="#000000" stroke="#000000" points="1457.6794,-161.5001 1447.6794,-165 1457.6793,-168.5001 1457.6794,-161.5001"/>
</g>
<!-- DragIconComponent -->
<g id="node4" class="node">
<title>DragIconComponent</title>
<polygon fill="#ffffb3" stroke="#000000" points="1960.1895,-122 1825.8105,-122 1825.8105,-86 1960.1895,-86 1960.1895,-122"/>
<text text-anchor="middle" x="1893" y="-99.8" font-family="Times,serif" font-size="14.00" fill="#000000">DragIconComponent</text>
</g>
<!-- DragIconComponent&#45;&gt;AngularCesiumWidgetsModule -->
<g id="edge4" class="edge">
<title>DragIconComponent&#45;&gt;AngularCesiumWidgetsModule</title>
<path fill="none" stroke="#000000" d="M1893,-122.0352C1893,-138.7344 1893,-161 1893,-161 1893,-161 1457.3909,-161 1457.3909,-161"/>
<polygon fill="#000000" stroke="#000000" points="1457.3909,-157.5001 1447.3909,-161 1457.3909,-164.5001 1457.3909,-157.5001"/>
</g>
<!-- DraggableToMapDirective -->
<g id="node5" class="node">
<title>DraggableToMapDirective</title>
<polygon fill="#ffffb3" stroke="#000000" points="1807.5967,-122 1640.4033,-122 1640.4033,-86 1807.5967,-86 1807.5967,-122"/>
<text text-anchor="middle" x="1724" y="-99.8" font-family="Times,serif" font-size="14.00" fill="#000000">DraggableToMapDirective</text>
</g>
<!-- DraggableToMapDirective&#45;&gt;AngularCesiumWidgetsModule -->
<g id="edge5" class="edge">
<title>DraggableToMapDirective&#45;&gt;AngularCesiumWidgetsModule</title>
<path fill="none" stroke="#000000" d="M1693.0478,-122.2819C1693.0478,-137.9478 1693.0478,-158 1693.0478,-158 1693.0478,-158 1457.3861,-158 1457.3861,-158"/>
<polygon fill="#000000" stroke="#000000" points="1457.3862,-154.5001 1447.3861,-158 1457.3861,-161.5001 1457.3862,-154.5001"/>
</g>
<!-- EllipsesEditorComponent -->
<g id="node6" class="node">
<title>EllipsesEditorComponent</title>
<polygon fill="#ffffb3" stroke="#000000" points="1622.1554,-122 1461.8446,-122 1461.8446,-86 1622.1554,-86 1622.1554,-122"/>
<text text-anchor="middle" x="1542" y="-99.8" font-family="Times,serif" font-size="14.00" fill="#000000">EllipsesEditorComponent</text>
</g>
<!-- EllipsesEditorComponent&#45;&gt;AngularCesiumWidgetsModule -->
<g id="edge6" class="edge">
<title>EllipsesEditorComponent&#45;&gt;AngularCesiumWidgetsModule</title>
<path fill="none" stroke="#000000" d="M1541.6103,-122.1243C1541.6103,-136.7832 1541.6103,-155 1541.6103,-155 1541.6103,-155 1457.4891,-155 1457.4891,-155"/>
<polygon fill="#000000" stroke="#000000" points="1457.4892,-151.5001 1447.4891,-155 1457.4891,-158.5001 1457.4892,-151.5001"/>
</g>
<!-- HippodromeEditorComponent -->
<g id="node7" class="node">
<title>HippodromeEditorComponent</title>
<polygon fill="#ffffb3" stroke="#000000" points="1443.5898,-122 1256.4102,-122 1256.4102,-86 1443.5898,-86 1443.5898,-122"/>
<text text-anchor="middle" x="1350" y="-99.8" font-family="Times,serif" font-size="14.00" fill="#000000">HippodromeEditorComponent</text>
</g>
<!-- HippodromeEditorComponent&#45;&gt;AngularCesiumWidgetsModule -->
<g id="edge7" class="edge">
<title>HippodromeEditorComponent&#45;&gt;AngularCesiumWidgetsModule</title>
<path fill="none" stroke="#000000" d="M1350,-122.1061C1350,-122.1061 1350,-140.991 1350,-140.991"/>
<polygon fill="#000000" stroke="#000000" points="1346.5001,-140.9909 1350,-150.991 1353.5001,-140.991 1346.5001,-140.9909"/>
</g>
<!-- PolygonsEditorComponent -->
<g id="node8" class="node">
<title>PolygonsEditorComponent</title>
<polygon fill="#ffffb3" stroke="#000000" points="1238.4452,-122 1069.5548,-122 1069.5548,-86 1238.4452,-86 1238.4452,-122"/>
<text text-anchor="middle" x="1154" y="-99.8" font-family="Times,serif" font-size="14.00" fill="#000000">PolygonsEditorComponent</text>
</g>
<!-- PolygonsEditorComponent&#45;&gt;AngularCesiumWidgetsModule -->
<g id="edge8" class="edge">
<title>PolygonsEditorComponent&#45;&gt;AngularCesiumWidgetsModule</title>
<path fill="none" stroke="#000000" d="M1154,-122.1243C1154,-136.7832 1154,-155 1154,-155 1154,-155 1242.5742,-155 1242.5742,-155"/>
<polygon fill="#000000" stroke="#000000" points="1242.5743,-158.5001 1252.5742,-155 1242.5742,-151.5001 1242.5743,-158.5001"/>
</g>
<!-- PolylinesEditorComponent -->
<g id="node9" class="node">
<title>PolylinesEditorComponent</title>
<polygon fill="#ffffb3" stroke="#000000" points="1052.441,-122 883.559,-122 883.559,-86 1052.441,-86 1052.441,-122"/>
<text text-anchor="middle" x="968" y="-99.8" font-family="Times,serif" font-size="14.00" fill="#000000">PolylinesEditorComponent</text>
</g>
<!-- PolylinesEditorComponent&#45;&gt;AngularCesiumWidgetsModule -->
<g id="edge9" class="edge">
<title>PolylinesEditorComponent&#45;&gt;AngularCesiumWidgetsModule</title>
<path fill="none" stroke="#000000" d="M1047.0963,-122.2819C1047.0963,-137.9478 1047.0963,-158 1047.0963,-158 1047.0963,-158 1242.492,-158 1242.492,-158"/>
<polygon fill="#000000" stroke="#000000" points="1242.4921,-161.5001 1252.492,-158 1242.492,-154.5001 1242.4921,-161.5001"/>
</g>
<!-- RangeAndBearingComponent -->
<g id="node10" class="node">
<title>RangeAndBearingComponent</title>
<polygon fill="#ffffb3" stroke="#000000" points="865.5224,-122 680.4776,-122 680.4776,-86 865.5224,-86 865.5224,-122"/>
<text text-anchor="middle" x="773" y="-99.8" font-family="Times,serif" font-size="14.00" fill="#000000">RangeAndBearingComponent</text>
</g>
<!-- RangeAndBearingComponent&#45;&gt;AngularCesiumWidgetsModule -->
<g id="edge10" class="edge">
<title>RangeAndBearingComponent&#45;&gt;AngularCesiumWidgetsModule</title>
<path fill="none" stroke="#000000" d="M858.8656,-122.0352C858.8656,-138.7344 858.8656,-161 858.8656,-161 858.8656,-161 1242.3804,-161 1242.3804,-161"/>
<polygon fill="#000000" stroke="#000000" points="1242.3805,-164.5001 1252.3804,-161 1242.3804,-157.5001 1242.3805,-164.5001"/>
</g>
<!-- AcToolbarButtonComponent  -->
<g id="node13" class="node">
<title>AcToolbarButtonComponent </title>
<polygon fill="#fb8072" stroke="#000000" points="2163.5903,-252 1980.4097,-252 1980.4097,-216 2163.5903,-216 2163.5903,-252"/>
<text text-anchor="middle" x="2072" y="-229.8" font-family="Times,serif" font-size="14.00" fill="#000000">AcToolbarButtonComponent </text>
</g>
<!-- AngularCesiumWidgetsModule&#45;&gt;AcToolbarButtonComponent  -->
<g id="edge12" class="edge">
<title>AngularCesiumWidgetsModule&#45;&gt;AcToolbarButtonComponent </title>
<path fill="none" stroke="#000000" stroke-dasharray="5,2" d="M1447.6375,-174C1636.0691,-174 2031.4666,-174 2031.4666,-174 2031.4666,-174 2031.4666,-205.998 2031.4666,-205.998"/>
<polygon fill="#000000" stroke="#000000" points="2027.9667,-205.998 2031.4666,-215.998 2034.9667,-205.9981 2027.9667,-205.998"/>
</g>
<!-- AcToolbarComponent  -->
<g id="node14" class="node">
<title>AcToolbarComponent </title>
<polygon fill="#fb8072" stroke="#000000" points="1961.9728,-252 1816.0272,-252 1816.0272,-216 1961.9728,-216 1961.9728,-252"/>
<text text-anchor="middle" x="1889" y="-229.8" font-family="Times,serif" font-size="14.00" fill="#000000">AcToolbarComponent </text>
</g>
<!-- AngularCesiumWidgetsModule&#45;&gt;AcToolbarComponent  -->
<g id="edge13" class="edge">
<title>AngularCesiumWidgetsModule&#45;&gt;AcToolbarComponent </title>
<path fill="none" stroke="#000000" stroke-dasharray="5,2" d="M1447.609,-178C1585.5926,-178 1821.0847,-178 1821.0847,-178 1821.0847,-178 1821.0847,-205.973 1821.0847,-205.973"/>
<polygon fill="#000000" stroke="#000000" points="1817.5847,-205.973 1821.0847,-215.973 1824.5847,-205.973 1817.5847,-205.973"/>
</g>
<!-- CirclesEditorComponent  -->
<g id="node15" class="node">
<title>CirclesEditorComponent </title>
<polygon fill="#fb8072" stroke="#000000" points="1798.9797,-252 1639.0203,-252 1639.0203,-216 1798.9797,-216 1798.9797,-252"/>
<text text-anchor="middle" x="1719" y="-229.8" font-family="Times,serif" font-size="14.00" fill="#000000">CirclesEditorComponent </text>
</g>
<!-- AngularCesiumWidgetsModule&#45;&gt;CirclesEditorComponent  -->
<g id="edge14" class="edge">
<title>AngularCesiumWidgetsModule&#45;&gt;CirclesEditorComponent </title>
<path fill="none" stroke="#000000" stroke-dasharray="5,2" d="M1447.6073,-181C1564.8354,-181 1745.8936,-181 1745.8936,-181 1745.8936,-181 1745.8936,-205.7604 1745.8936,-205.7604"/>
<polygon fill="#000000" stroke="#000000" points="1742.3937,-205.7604 1745.8936,-215.7604 1749.3937,-205.7604 1742.3937,-205.7604"/>
</g>
<!-- DraggableToMapDirective  -->
<g id="node16" class="node">
<title>DraggableToMapDirective </title>
<polygon fill="#fb8072" stroke="#000000" points="1621.5962,-252 1450.4038,-252 1450.4038,-216 1621.5962,-216 1621.5962,-252"/>
<text text-anchor="middle" x="1536" y="-229.8" font-family="Times,serif" font-size="14.00" fill="#000000">DraggableToMapDirective </text>
</g>
<!-- AngularCesiumWidgetsModule&#45;&gt;DraggableToMapDirective  -->
<g id="edge15" class="edge">
<title>AngularCesiumWidgetsModule&#45;&gt;DraggableToMapDirective </title>
<path fill="none" stroke="#000000" stroke-dasharray="5,2" d="M1447.3827,-184C1452.785,-184 1456.0622,-184 1456.0622,-184 1456.0622,-184 1456.0622,-205.9489 1456.0622,-205.9489"/>
<polygon fill="#000000" stroke="#000000" points="1452.5623,-205.9488 1456.0622,-215.9489 1459.5623,-205.9489 1452.5623,-205.9488"/>
</g>
<!-- EllipsesEditorComponent  -->
<g id="node17" class="node">
<title>EllipsesEditorComponent </title>
<polygon fill="#fb8072" stroke="#000000" points="1432.1551,-252 1267.8449,-252 1267.8449,-216 1432.1551,-216 1432.1551,-252"/>
<text text-anchor="middle" x="1350" y="-229.8" font-family="Times,serif" font-size="14.00" fill="#000000">EllipsesEditorComponent </text>
</g>
<!-- AngularCesiumWidgetsModule&#45;&gt;EllipsesEditorComponent  -->
<g id="edge16" class="edge">
<title>AngularCesiumWidgetsModule&#45;&gt;EllipsesEditorComponent </title>
<path fill="none" stroke="#000000" stroke-dasharray="5,2" d="M1350,-187.1061C1350,-187.1061 1350,-205.991 1350,-205.991"/>
<polygon fill="#000000" stroke="#000000" points="1346.5001,-205.9909 1350,-215.991 1353.5001,-205.991 1346.5001,-205.9909"/>
</g>
<!-- HippodromeEditorComponent  -->
<g id="node18" class="node">
<title>HippodromeEditorComponent </title>
<polygon fill="#fb8072" stroke="#000000" points="1250.0902,-252 1059.9098,-252 1059.9098,-216 1250.0902,-216 1250.0902,-252"/>
<text text-anchor="middle" x="1155" y="-229.8" font-family="Times,serif" font-size="14.00" fill="#000000">HippodromeEditorComponent </text>
</g>
<!-- AngularCesiumWidgetsModule&#45;&gt;HippodromeEditorComponent  -->
<g id="edge17" class="edge">
<title>AngularCesiumWidgetsModule&#45;&gt;HippodromeEditorComponent </title>
<path fill="none" stroke="#000000" stroke-dasharray="5,2" d="M1252.556,-184C1247.3823,-184 1244.2586,-184 1244.2586,-184 1244.2586,-184 1244.2586,-205.9489 1244.2586,-205.9489"/>
<polygon fill="#000000" stroke="#000000" points="1240.7587,-205.9488 1244.2586,-215.9489 1247.7587,-205.9489 1240.7587,-205.9488"/>
</g>
<!-- PolygonsEditorComponent  -->
<g id="node19" class="node">
<title>PolygonsEditorComponent </title>
<polygon fill="#fb8072" stroke="#000000" points="1041.9446,-252 870.0554,-252 870.0554,-216 1041.9446,-216 1041.9446,-252"/>
<text text-anchor="middle" x="956" y="-229.8" font-family="Times,serif" font-size="14.00" fill="#000000">PolygonsEditorComponent </text>
</g>
<!-- AngularCesiumWidgetsModule&#45;&gt;PolygonsEditorComponent  -->
<g id="edge18" class="edge">
<title>AngularCesiumWidgetsModule&#45;&gt;PolygonsEditorComponent </title>
<path fill="none" stroke="#000000" stroke-dasharray="5,2" d="M1252.3123,-181C1137.63,-181 962.8761,-181 962.8761,-181 962.8761,-181 962.8761,-205.7604 962.8761,-205.7604"/>
<polygon fill="#000000" stroke="#000000" points="959.3761,-205.7604 962.8761,-215.7604 966.3761,-205.7604 959.3761,-205.7604"/>
</g>
<!-- PolylinesEditorComponent  -->
<g id="node20" class="node">
<title>PolylinesEditorComponent </title>
<polygon fill="#fb8072" stroke="#000000" points="851.9404,-252 680.0596,-252 680.0596,-216 851.9404,-216 851.9404,-252"/>
<text text-anchor="middle" x="766" y="-229.8" font-family="Times,serif" font-size="14.00" fill="#000000">PolylinesEditorComponent </text>
</g>
<!-- AngularCesiumWidgetsModule&#45;&gt;PolylinesEditorComponent  -->
<g id="edge19" class="edge">
<title>AngularCesiumWidgetsModule&#45;&gt;PolylinesEditorComponent </title>
<path fill="none" stroke="#000000" stroke-dasharray="5,2" d="M1252.5978,-178C1086.4705,-178 766.1047,-178 766.1047,-178 766.1047,-178 766.1047,-205.973 766.1047,-205.973"/>
<polygon fill="#000000" stroke="#000000" points="762.6047,-205.973 766.1047,-215.973 769.6047,-205.973 762.6047,-205.973"/>
</g>
<!-- RangeAndBearingComponent  -->
<g id="node21" class="node">
<title>RangeAndBearingComponent </title>
<polygon fill="#fb8072" stroke="#000000" points="662.5218,-252 473.4782,-252 473.4782,-216 662.5218,-216 662.5218,-252"/>
<text text-anchor="middle" x="568" y="-229.8" font-family="Times,serif" font-size="14.00" fill="#000000">RangeAndBearingComponent </text>
</g>
<!-- AngularCesiumWidgetsModule&#45;&gt;RangeAndBearingComponent  -->
<g id="edge20" class="edge">
<title>AngularCesiumWidgetsModule&#45;&gt;RangeAndBearingComponent </title>
<path fill="none" stroke="#000000" stroke-dasharray="5,2" d="M1252.4022,-174C1040.5211,-174 557.3001,-174 557.3001,-174 557.3001,-174 557.3001,-205.998 557.3001,-205.998"/>
<polygon fill="#000000" stroke="#000000" points="553.8002,-205.998 557.3001,-215.998 560.8002,-205.9981 553.8002,-205.998"/>
</g>
<!-- AngularCesiumModule -->
<g id="node12" class="node">
<title>AngularCesiumModule</title>
<polygon fill="#8dd3c7" stroke="#000000" points="656.1993,-122 653.1993,-126 632.1993,-126 629.1993,-122 507.8007,-122 507.8007,-86 656.1993,-86 656.1993,-122"/>
<text text-anchor="middle" x="582" y="-99.8" font-family="Times,serif" font-size="14.00" fill="#000000">AngularCesiumModule</text>
</g>
<!-- AngularCesiumModule&#45;&gt;AngularCesiumWidgetsModule -->
<g id="edge11" class="edge">
<title>AngularCesiumModule&#45;&gt;AngularCesiumWidgetsModule</title>
<path fill="none" stroke="#000000" d="M606.6999,-122.302C606.6999,-140.2699 606.6999,-165 606.6999,-165 606.6999,-165 1242.4446,-165 1242.4446,-165"/>
<polygon fill="#000000" stroke="#000000" points="1242.4446,-168.5001 1252.4446,-165 1242.4446,-161.5001 1242.4446,-168.5001"/>
</g>
<!-- DraggableToMapService -->
<g id="node22" class="node">
<title>DraggableToMapService</title>
<ellipse fill="#fdb462" stroke="#000000" cx="375" cy="-104" rx="108.769" ry="18"/>
<text text-anchor="middle" x="375" y="-99.8" font-family="Times,serif" font-size="14.00" fill="#000000">DraggableToMapService</text>
</g>
<!-- DraggableToMapService&#45;&gt;AngularCesiumWidgetsModule -->
<g id="edge21" class="edge">
<title>DraggableToMapService&#45;&gt;AngularCesiumWidgetsModule</title>
<path fill="none" stroke="#000000" d="M478.5618,-109.4566C478.5618,-124.9336 478.5618,-168 478.5618,-168 478.5618,-168 1242.5716,-168 1242.5716,-168"/>
<polygon fill="#000000" stroke="#000000" points="1242.5716,-171.5001 1252.5716,-168 1242.5715,-164.5001 1242.5716,-171.5001"/>
</g>
<!-- ZoomToRectangleService -->
<g id="node23" class="node">
<title>ZoomToRectangleService</title>
<ellipse fill="#fdb462" stroke="#000000" cx="136" cy="-104" rx="112.2994" ry="18"/>
<text text-anchor="middle" x="136" y="-99.8" font-family="Times,serif" font-size="14.00" fill="#000000">ZoomToRectangleService</text>
</g>
<!-- ZoomToRectangleService&#45;&gt;AngularCesiumWidgetsModule -->
<g id="edge22" class="edge">
<title>ZoomToRectangleService&#45;&gt;AngularCesiumWidgetsModule</title>
<path fill="none" stroke="#000000" d="M136,-122.308C136,-142.1455 136,-171 136,-171 136,-171 1242.4499,-171 1242.4499,-171"/>
<polygon fill="#000000" stroke="#000000" points="1242.4499,-174.5001 1252.4499,-171 1242.4499,-167.5001 1242.4499,-174.5001"/>
</g>
</g>
</svg>
