<?xml version="1.0" encoding="UTF-8" standalone="no"?>
<!DOCTYPE svg PUBLIC "-//W3C//DTD SVG 1.1//EN"
 "http://www.w3.org/Graphics/SVG/1.1/DTD/svg11.dtd">
<!-- Generated by graphviz version 2.40.1 (20161225.0304)
 -->
<!-- Title: dependencies Pages: 1 -->
<svg width="2720pt" height="284pt"
 viewBox="0.00 0.00 2720.00 284.00" xmlns="http://www.w3.org/2000/svg" xmlns:xlink="http://www.w3.org/1999/xlink">
<g id="graph0" class="graph" transform="scale(1 1) rotate(0) translate(4 280)">
<title>dependencies</title>
<polygon fill="#ffffff" stroke="transparent" points="-4,4 -4,-280 2716,-280 2716,4 -4,4"/>
<text text-anchor="start" x="1335.0091" y="-42.4" font-family="sans-serif" font-weight="bold" font-size="14.00" fill="#000000">Legend</text>
<polygon fill="#ffffb3" stroke="transparent" points="1122,-10 1122,-30 1142,-30 1142,-10 1122,-10"/>
<text text-anchor="start" x="1145.629" y="-15.4" font-family="sans-serif" font-size="14.00" fill="#000000"> &#160;Declarations</text>
<polygon fill="#8dd3c7" stroke="transparent" points="1235,-10 1235,-30 1255,-30 1255,-10 1235,-10"/>
<text text-anchor="start" x="1258.7251" y="-15.4" font-family="sans-serif" font-size="14.00" fill="#000000"> &#160;Module</text>
<polygon fill="#80b1d3" stroke="transparent" points="1321,-10 1321,-30 1341,-30 1341,-10 1321,-10"/>
<text text-anchor="start" x="1344.7812" y="-15.4" font-family="sans-serif" font-size="14.00" fill="#000000"> &#160;Bootstrap</text>
<polygon fill="#fdb462" stroke="transparent" points="1418,-10 1418,-30 1438,-30 1438,-10 1418,-10"/>
<text text-anchor="start" x="1441.6732" y="-15.4" font-family="sans-serif" font-size="14.00" fill="#000000"> &#160;Providers</text>
<polygon fill="#fb8072" stroke="transparent" points="1514,-10 1514,-30 1534,-30 1534,-10 1514,-10"/>
<text text-anchor="start" x="1537.7258" y="-15.4" font-family="sans-serif" font-size="14.00" fill="#000000"> &#160;Exports</text>
<g id="clust1" class="cluster">
<title>cluster_AngularCesiumWidgetsModule</title>
<polygon fill="none" stroke="#000000" stroke-dasharray="1,5" points="8,-70 8,-268 2704,-268 2704,-70 8,-70"/>
</g>
<g id="clust2" class="cluster">
<title>cluster_AngularCesiumWidgetsModule_declarations</title>
<polygon fill="none" stroke="#000000" points="672,-78 672,-130 2696,-130 2696,-78 672,-78"/>
</g>
<g id="clust14" class="cluster">
<title>cluster_AngularCesiumWidgetsModule_imports</title>
<polygon fill="none" stroke="#000000" points="500,-78 500,-130 664,-130 664,-78 500,-78"/>
</g>
<g id="clust15" class="cluster">
<title>cluster_AngularCesiumWidgetsModule_exports</title>
<polygon fill="none" stroke="#000000" points="462,-208 462,-260 2368,-260 2368,-208 462,-208"/>
</g>
<g id="clust17" class="cluster">
<title>cluster_AngularCesiumWidgetsModule_providers</title>
<polygon fill="none" stroke="#000000" points="16,-78 16,-130 492,-130 492,-78 16,-78"/>
</g>
<!-- AcToolbarButtonComponent -->
<g id="node1" class="node">
<title>AcToolbarButtonComponent</title>
<polygon fill="#ffffb3" stroke="#000000" points="2688.0898,-122 2507.9102,-122 2507.9102,-86 2688.0898,-86 2688.0898,-122"/>
<text text-anchor="middle" x="2598" y="-99.8" font-family="Times,serif" font-size="14.00" fill="#000000">AcToolbarButtonComponent</text>
</g>
<!-- AngularCesiumWidgetsModule -->
<g id="node12" class="node">
<title>AngularCesiumWidgetsModule</title>
<polygon fill="#8dd3c7" stroke="#000000" points="1545.3543,-187 1542.3543,-191 1521.3543,-191 1518.3543,-187 1350.6457,-187 1350.6457,-151 1545.3543,-151 1545.3543,-187"/>
<text text-anchor="middle" x="1448" y="-164.8" font-family="Times,serif" font-size="14.00" fill="#000000">AngularCesiumWidgetsModule</text>
</g>
<!-- AcToolbarButtonComponent&#45;&gt;AngularCesiumWidgetsModule -->
<g id="edge1" class="edge">
<title>AcToolbarButtonComponent&#45;&gt;AngularCesiumWidgetsModule</title>
<path fill="none" stroke="#000000" d="M2598,-122.308C2598,-142.1455 2598,-171 2598,-171 2598,-171 1555.5523,-171 1555.5523,-171"/>
<polygon fill="#000000" stroke="#000000" points="1555.5523,-167.5001 1545.5523,-171 1555.5522,-174.5001 1555.5523,-167.5001"/>
</g>
<!-- AcToolbarComponent -->
<g id="node2" class="node">
<title>AcToolbarComponent</title>
<polygon fill="#ffffb3" stroke="#000000" points="2489.972,-122 2348.028,-122 2348.028,-86 2489.972,-86 2489.972,-122"/>
<text text-anchor="middle" x="2419" y="-99.8" font-family="Times,serif" font-size="14.00" fill="#000000">AcToolbarComponent</text>
</g>
<!-- AcToolbarComponent&#45;&gt;AngularCesiumWidgetsModule -->
<g id="edge2" class="edge">
<title>AcToolbarComponent&#45;&gt;AngularCesiumWidgetsModule</title>
<path fill="none" stroke="#000000" d="M2353.9045,-122.1686C2353.9045,-141.0898 2353.9045,-168 2353.9045,-168 2353.9045,-168 1555.3776,-168 1555.3776,-168"/>
<polygon fill="#000000" stroke="#000000" points="1555.3777,-164.5001 1545.3776,-168 1555.3776,-171.5001 1555.3777,-164.5001"/>
</g>
<!-- CirclesEditorComponent -->
<g id="node3" class="node">
<title>CirclesEditorComponent</title>
<polygon fill="#ffffb3" stroke="#000000" points="2329.979,-122 2174.021,-122 2174.021,-86 2329.979,-86 2329.979,-122"/>
<text text-anchor="middle" x="2252" y="-99.8" font-family="Times,serif" font-size="14.00" fill="#000000">CirclesEditorComponent</text>
</g>
<!-- CirclesEditorComponent&#45;&gt;AngularCesiumWidgetsModule -->
<g id="edge3" class="edge">
<title>CirclesEditorComponent&#45;&gt;AngularCesiumWidgetsModule</title>
<path fill="none" stroke="#000000" d="M2278.728,-122.302C2278.728,-140.2699 2278.728,-165 2278.728,-165 2278.728,-165 1555.7379,-165 1555.7379,-165"/>
<polygon fill="#000000" stroke="#000000" points="1555.7379,-161.5001 1545.7379,-165 1555.7379,-168.5001 1555.7379,-161.5001"/>
</g>
<!-- DragIconComponent -->
<g id="node4" class="node">
<title>DragIconComponent</title>
<polygon fill="#ffffb3" stroke="#000000" points="2156.1895,-122 2021.8105,-122 2021.8105,-86 2156.1895,-86 2156.1895,-122"/>
<text text-anchor="middle" x="2089" y="-99.8" font-family="Times,serif" font-size="14.00" fill="#000000">DragIconComponent</text>
</g>
<!-- DragIconComponent&#45;&gt;AngularCesiumWidgetsModule -->
<g id="edge4" class="edge">
<title>DragIconComponent&#45;&gt;AngularCesiumWidgetsModule</title>
<path fill="none" stroke="#000000" d="M2089,-122.0352C2089,-138.7344 2089,-161 2089,-161 2089,-161 1555.7028,-161 1555.7028,-161"/>
<polygon fill="#000000" stroke="#000000" points="1555.7028,-157.5001 1545.7028,-161 1555.7027,-164.5001 1555.7028,-157.5001"/>
</g>
<!-- DraggableToMapDirective -->
<g id="node5" class="node">
<title>DraggableToMapDirective</title>
<polygon fill="#ffffb3" stroke="#000000" points="2003.5967,-122 1836.4033,-122 1836.4033,-86 2003.5967,-86 2003.5967,-122"/>
<text text-anchor="middle" x="1920" y="-99.8" font-family="Times,serif" font-size="14.00" fill="#000000">DraggableToMapDirective</text>
</g>
<!-- DraggableToMapDirective&#45;&gt;AngularCesiumWidgetsModule -->
<g id="edge5" class="edge">
<title>DraggableToMapDirective&#45;&gt;AngularCesiumWidgetsModule</title>
<path fill="none" stroke="#000000" d="M1889.0478,-122.2819C1889.0478,-137.9478 1889.0478,-158 1889.0478,-158 1889.0478,-158 1555.6092,-158 1555.6092,-158"/>
<polygon fill="#000000" stroke="#000000" points="1555.6092,-154.5001 1545.6092,-158 1555.6091,-161.5001 1555.6092,-154.5001"/>
</g>
<!-- EllipsesEditorComponent -->
<g id="node6" class="node">
<title>EllipsesEditorComponent</title>
<polygon fill="#ffffb3" stroke="#000000" points="1818.1554,-122 1657.8446,-122 1657.8446,-86 1818.1554,-86 1818.1554,-122"/>
<text text-anchor="middle" x="1738" y="-99.8" font-family="Times,serif" font-size="14.00" fill="#000000">EllipsesEditorComponent</text>
</g>
<!-- EllipsesEditorComponent&#45;&gt;AngularCesiumWidgetsModule -->
<g id="edge6" class="edge">
<title>EllipsesEditorComponent&#45;&gt;AngularCesiumWidgetsModule</title>
<path fill="none" stroke="#000000" d="M1737.6103,-122.1243C1737.6103,-136.7832 1737.6103,-155 1737.6103,-155 1737.6103,-155 1555.6451,-155 1555.6451,-155"/>
<polygon fill="#000000" stroke="#000000" points="1555.6451,-151.5001 1545.6451,-155 1555.645,-158.5001 1555.6451,-151.5001"/>
</g>
<!-- HippodromeEditorComponent -->
<g id="node7" class="node">
<title>HippodromeEditorComponent</title>
<polygon fill="#ffffb3" stroke="#000000" points="1639.5898,-122 1452.4102,-122 1452.4102,-86 1639.5898,-86 1639.5898,-122"/>
<text text-anchor="middle" x="1546" y="-99.8" font-family="Times,serif" font-size="14.00" fill="#000000">HippodromeEditorComponent</text>
</g>
<!-- HippodromeEditorComponent&#45;&gt;AngularCesiumWidgetsModule -->
<g id="edge7" class="edge">
<title>HippodromeEditorComponent&#45;&gt;AngularCesiumWidgetsModule</title>
<path fill="none" stroke="#000000" d="M1498.9411,-122.1061C1498.9411,-122.1061 1498.9411,-140.991 1498.9411,-140.991"/>
<polygon fill="#000000" stroke="#000000" points="1495.4412,-140.9909 1498.9411,-150.991 1502.4412,-140.991 1495.4412,-140.9909"/>
</g>
<!-- PolygonsEditorComponent -->
<g id="node8" class="node">
<title>PolygonsEditorComponent</title>
<polygon fill="#ffffb3" stroke="#000000" points="1434.4452,-122 1265.5548,-122 1265.5548,-86 1434.4452,-86 1434.4452,-122"/>
<text text-anchor="middle" x="1350" y="-99.8" font-family="Times,serif" font-size="14.00" fill="#000000">PolygonsEditorComponent</text>
</g>
<!-- PolygonsEditorComponent&#45;&gt;AngularCesiumWidgetsModule -->
<g id="edge8" class="edge">
<title>PolygonsEditorComponent&#45;&gt;AngularCesiumWidgetsModule</title>
<path fill="none" stroke="#000000" d="M1392.3976,-122.1061C1392.3976,-122.1061 1392.3976,-140.991 1392.3976,-140.991"/>
<polygon fill="#000000" stroke="#000000" points="1388.8977,-140.9909 1392.3976,-150.991 1395.8977,-140.991 1388.8977,-140.9909"/>
</g>
<!-- PolylinesEditorComponent -->
<g id="node9" class="node">
<title>PolylinesEditorComponent</title>
<polygon fill="#ffffb3" stroke="#000000" points="1248.441,-122 1079.559,-122 1079.559,-86 1248.441,-86 1248.441,-122"/>
<text text-anchor="middle" x="1164" y="-99.8" font-family="Times,serif" font-size="14.00" fill="#000000">PolylinesEditorComponent</text>
</g>
<!-- PolylinesEditorComponent&#45;&gt;AngularCesiumWidgetsModule -->
<g id="edge9" class="edge">
<title>PolylinesEditorComponent&#45;&gt;AngularCesiumWidgetsModule</title>
<path fill="none" stroke="#000000" d="M1243.0963,-122.1243C1243.0963,-136.7832 1243.0963,-155 1243.0963,-155 1243.0963,-155 1340.349,-155 1340.349,-155"/>
<polygon fill="#000000" stroke="#000000" points="1340.349,-158.5001 1350.349,-155 1340.349,-151.5001 1340.349,-158.5001"/>
</g>
<!-- RangeAndBearingComponent -->
<g id="node10" class="node">
<title>RangeAndBearingComponent</title>
<polygon fill="#ffffb3" stroke="#000000" points="1061.5224,-122 876.4776,-122 876.4776,-86 1061.5224,-86 1061.5224,-122"/>
<text text-anchor="middle" x="969" y="-99.8" font-family="Times,serif" font-size="14.00" fill="#000000">RangeAndBearingComponent</text>
</g>
<!-- RangeAndBearingComponent&#45;&gt;AngularCesiumWidgetsModule -->
<g id="edge10" class="edge">
<title>RangeAndBearingComponent&#45;&gt;AngularCesiumWidgetsModule</title>
<path fill="none" stroke="#000000" d="M1054.8656,-122.2819C1054.8656,-137.9478 1054.8656,-158 1054.8656,-158 1054.8656,-158 1340.5682,-158 1340.5682,-158"/>
<polygon fill="#000000" stroke="#000000" points="1340.5683,-161.5001 1350.5682,-158 1340.5682,-154.5001 1340.5683,-161.5001"/>
</g>
<!-- RectanglesEditorComponent -->
<g id="node11" class="node">
<title>RectanglesEditorComponent</title>
<polygon fill="#ffffb3" stroke="#000000" points="857.7478,-122 680.2522,-122 680.2522,-86 857.7478,-86 857.7478,-122"/>
<text text-anchor="middle" x="769" y="-99.8" font-family="Times,serif" font-size="14.00" fill="#000000">RectanglesEditorComponent</text>
</g>
<!-- RectanglesEditorComponent&#45;&gt;AngularCesiumWidgetsModule -->
<g id="edge11" class="edge">
<title>RectanglesEditorComponent&#45;&gt;AngularCesiumWidgetsModule</title>
<path fill="none" stroke="#000000" d="M798.6246,-122.0352C798.6246,-138.7344 798.6246,-161 798.6246,-161 798.6246,-161 1340.4306,-161 1340.4306,-161"/>
<polygon fill="#000000" stroke="#000000" points="1340.4307,-164.5001 1350.4306,-161 1340.4306,-157.5001 1340.4307,-164.5001"/>
</g>
<!-- AcToolbarButtonComponent  -->
<g id="node14" class="node">
<title>AcToolbarButtonComponent </title>
<polygon fill="#fb8072" stroke="#000000" points="2359.5903,-252 2176.4097,-252 2176.4097,-216 2359.5903,-216 2359.5903,-252"/>
<text text-anchor="middle" x="2268" y="-229.8" font-family="Times,serif" font-size="14.00" fill="#000000">AcToolbarButtonComponent </text>
</g>
<!-- AngularCesiumWidgetsModule&#45;&gt;AcToolbarButtonComponent  -->
<g id="edge13" class="edge">
<title>AngularCesiumWidgetsModule&#45;&gt;AcToolbarButtonComponent </title>
<path fill="none" stroke="#000000" stroke-dasharray="5,2" d="M1545.537,-174C1754.6867,-174 2227.4666,-174 2227.4666,-174 2227.4666,-174 2227.4666,-205.998 2227.4666,-205.998"/>
<polygon fill="#000000" stroke="#000000" points="2223.9667,-205.998 2227.4666,-215.998 2230.9667,-205.9981 2223.9667,-205.998"/>
</g>
<!-- AcToolbarComponent  -->
<g id="node15" class="node">
<title>AcToolbarComponent </title>
<polygon fill="#fb8072" stroke="#000000" points="2157.9728,-252 2012.0272,-252 2012.0272,-216 2157.9728,-216 2157.9728,-252"/>
<text text-anchor="middle" x="2085" y="-229.8" font-family="Times,serif" font-size="14.00" fill="#000000">AcToolbarComponent </text>
</g>
<!-- AngularCesiumWidgetsModule&#45;&gt;AcToolbarComponent  -->
<g id="edge14" class="edge">
<title>AngularCesiumWidgetsModule&#45;&gt;AcToolbarComponent </title>
<path fill="none" stroke="#000000" stroke-dasharray="5,2" d="M1545.5056,-178C1708.1295,-178 2017.0847,-178 2017.0847,-178 2017.0847,-178 2017.0847,-205.973 2017.0847,-205.973"/>
<polygon fill="#000000" stroke="#000000" points="2013.5847,-205.973 2017.0847,-215.973 2020.5847,-205.973 2013.5847,-205.973"/>
</g>
<!-- CirclesEditorComponent  -->
<g id="node16" class="node">
<title>CirclesEditorComponent </title>
<polygon fill="#fb8072" stroke="#000000" points="1994.9797,-252 1835.0203,-252 1835.0203,-216 1994.9797,-216 1994.9797,-252"/>
<text text-anchor="middle" x="1915" y="-229.8" font-family="Times,serif" font-size="14.00" fill="#000000">CirclesEditorComponent </text>
</g>
<!-- AngularCesiumWidgetsModule&#45;&gt;CirclesEditorComponent  -->
<g id="edge15" class="edge">
<title>AngularCesiumWidgetsModule&#45;&gt;CirclesEditorComponent </title>
<path fill="none" stroke="#000000" stroke-dasharray="5,2" d="M1545.5775,-181C1689.5132,-181 1941.8936,-181 1941.8936,-181 1941.8936,-181 1941.8936,-205.7604 1941.8936,-205.7604"/>
<polygon fill="#000000" stroke="#000000" points="1938.3937,-205.7604 1941.8936,-215.7604 1945.3937,-205.7604 1938.3937,-205.7604"/>
</g>
<!-- DraggableToMapDirective  -->
<g id="node17" class="node">
<title>DraggableToMapDirective </title>
<polygon fill="#fb8072" stroke="#000000" points="1817.5962,-252 1646.4038,-252 1646.4038,-216 1817.5962,-216 1817.5962,-252"/>
<text text-anchor="middle" x="1732" y="-229.8" font-family="Times,serif" font-size="14.00" fill="#000000">DraggableToMapDirective </text>
</g>
<!-- AngularCesiumWidgetsModule&#45;&gt;DraggableToMapDirective  -->
<g id="edge16" class="edge">
<title>AngularCesiumWidgetsModule&#45;&gt;DraggableToMapDirective </title>
<path fill="none" stroke="#000000" stroke-dasharray="5,2" d="M1545.5486,-184C1598.0137,-184 1652.0622,-184 1652.0622,-184 1652.0622,-184 1652.0622,-205.9489 1652.0622,-205.9489"/>
<polygon fill="#000000" stroke="#000000" points="1648.5623,-205.9488 1652.0622,-215.9489 1655.5623,-205.9489 1648.5623,-205.9488"/>
</g>
<!-- EllipsesEditorComponent  -->
<g id="node18" class="node">
<title>EllipsesEditorComponent </title>
<polygon fill="#fb8072" stroke="#000000" points="1628.1551,-252 1463.8449,-252 1463.8449,-216 1628.1551,-216 1628.1551,-252"/>
<text text-anchor="middle" x="1546" y="-229.8" font-family="Times,serif" font-size="14.00" fill="#000000">EllipsesEditorComponent </text>
</g>
<!-- AngularCesiumWidgetsModule&#45;&gt;EllipsesEditorComponent  -->
<g id="edge17" class="edge">
<title>AngularCesiumWidgetsModule&#45;&gt;EllipsesEditorComponent </title>
<path fill="none" stroke="#000000" stroke-dasharray="5,2" d="M1504.6748,-187.1061C1504.6748,-187.1061 1504.6748,-205.991 1504.6748,-205.991"/>
<polygon fill="#000000" stroke="#000000" points="1501.1749,-205.9909 1504.6748,-215.991 1508.1749,-205.991 1501.1749,-205.9909"/>
</g>
<!-- HippodromeEditorComponent  -->
<g id="node19" class="node">
<title>HippodromeEditorComponent </title>
<polygon fill="#fb8072" stroke="#000000" points="1446.0902,-252 1255.9098,-252 1255.9098,-216 1446.0902,-216 1446.0902,-252"/>
<text text-anchor="middle" x="1351" y="-229.8" font-family="Times,serif" font-size="14.00" fill="#000000">HippodromeEditorComponent </text>
</g>
<!-- AngularCesiumWidgetsModule&#45;&gt;HippodromeEditorComponent  -->
<g id="edge18" class="edge">
<title>AngularCesiumWidgetsModule&#45;&gt;HippodromeEditorComponent </title>
<path fill="none" stroke="#000000" stroke-dasharray="5,2" d="M1398.4339,-187.1061C1398.4339,-187.1061 1398.4339,-205.991 1398.4339,-205.991"/>
<polygon fill="#000000" stroke="#000000" points="1394.934,-205.9909 1398.4339,-215.991 1401.934,-205.991 1394.934,-205.9909"/>
</g>
<!-- PolygonsEditorComponent  -->
<g id="node20" class="node">
<title>PolygonsEditorComponent </title>
<polygon fill="#fb8072" stroke="#000000" points="1237.9446,-252 1066.0554,-252 1066.0554,-216 1237.9446,-216 1237.9446,-252"/>
<text text-anchor="middle" x="1152" y="-229.8" font-family="Times,serif" font-size="14.00" fill="#000000">PolygonsEditorComponent </text>
</g>
<!-- AngularCesiumWidgetsModule&#45;&gt;PolygonsEditorComponent  -->
<g id="edge19" class="edge">
<title>AngularCesiumWidgetsModule&#45;&gt;PolygonsEditorComponent </title>
<path fill="none" stroke="#000000" stroke-dasharray="5,2" d="M1350.5189,-184C1266.5831,-184 1158.876,-184 1158.876,-184 1158.876,-184 1158.876,-205.9489 1158.876,-205.9489"/>
<polygon fill="#000000" stroke="#000000" points="1155.3761,-205.9488 1158.876,-215.9489 1162.3761,-205.9489 1155.3761,-205.9488"/>
</g>
<!-- PolylinesEditorComponent  -->
<g id="node21" class="node">
<title>PolylinesEditorComponent </title>
<polygon fill="#fb8072" stroke="#000000" points="1047.9404,-252 876.0596,-252 876.0596,-216 1047.9404,-216 1047.9404,-252"/>
<text text-anchor="middle" x="962" y="-229.8" font-family="Times,serif" font-size="14.00" fill="#000000">PolylinesEditorComponent </text>
</g>
<!-- AngularCesiumWidgetsModule&#45;&gt;PolylinesEditorComponent  -->
<g id="edge20" class="edge">
<title>AngularCesiumWidgetsModule&#45;&gt;PolylinesEditorComponent </title>
<path fill="none" stroke="#000000" stroke-dasharray="5,2" d="M1350.5481,-181C1208.7048,-181 962.1047,-181 962.1047,-181 962.1047,-181 962.1047,-205.7604 962.1047,-205.7604"/>
<polygon fill="#000000" stroke="#000000" points="958.6047,-205.7604 962.1047,-215.7604 965.6047,-205.7604 958.6047,-205.7604"/>
</g>
<!-- RangeAndBearingComponent  -->
<g id="node22" class="node">
<title>RangeAndBearingComponent </title>
<polygon fill="#fb8072" stroke="#000000" points="858.5218,-252 669.4782,-252 669.4782,-216 858.5218,-216 858.5218,-252"/>
<text text-anchor="middle" x="764" y="-229.8" font-family="Times,serif" font-size="14.00" fill="#000000">RangeAndBearingComponent </text>
</g>
<!-- AngularCesiumWidgetsModule&#45;&gt;RangeAndBearingComponent  -->
<g id="edge21" class="edge">
<title>AngularCesiumWidgetsModule&#45;&gt;RangeAndBearingComponent </title>
<path fill="none" stroke="#000000" stroke-dasharray="5,2" d="M1350.584,-178C1156.3491,-178 739.3754,-178 739.3754,-178 739.3754,-178 739.3754,-205.973 739.3754,-205.973"/>
<polygon fill="#000000" stroke="#000000" points="735.8755,-205.973 739.3754,-215.973 742.8755,-205.973 735.8755,-205.973"/>
</g>
<!-- RectanglesEditorComponent  -->
<g id="node23" class="node">
<title>RectanglesEditorComponent </title>
<polygon fill="#fb8072" stroke="#000000" points="651.7478,-252 470.2522,-252 470.2522,-216 651.7478,-216 651.7478,-252"/>
<text text-anchor="middle" x="561" y="-229.8" font-family="Times,serif" font-size="14.00" fill="#000000">RectanglesEditorComponent </text>
</g>
<!-- AngularCesiumWidgetsModule&#45;&gt;RectanglesEditorComponent  -->
<g id="edge22" class="edge">
<title>AngularCesiumWidgetsModule&#45;&gt;RectanglesEditorComponent </title>
<path fill="none" stroke="#000000" stroke-dasharray="5,2" d="M1350.395,-174C1118.8925,-174 555.8082,-174 555.8082,-174 555.8082,-174 555.8082,-205.998 555.8082,-205.998"/>
<polygon fill="#000000" stroke="#000000" points="552.3083,-205.998 555.8082,-215.998 559.3083,-205.9981 552.3083,-205.998"/>
</g>
<!-- AngularCesiumModule -->
<g id="node13" class="node">
<title>AngularCesiumModule</title>
<polygon fill="#8dd3c7" stroke="#000000" points="656.1993,-122 653.1993,-126 632.1993,-126 629.1993,-122 507.8007,-122 507.8007,-86 656.1993,-86 656.1993,-122"/>
<text text-anchor="middle" x="582" y="-99.8" font-family="Times,serif" font-size="14.00" fill="#000000">AngularCesiumModule</text>
</g>
<!-- AngularCesiumModule&#45;&gt;AngularCesiumWidgetsModule -->
<g id="edge12" class="edge">
<title>AngularCesiumModule&#45;&gt;AngularCesiumWidgetsModule</title>
<path fill="none" stroke="#000000" d="M603.716,-122.302C603.716,-140.2699 603.716,-165 603.716,-165 603.716,-165 1340.3251,-165 1340.3251,-165"/>
<polygon fill="#000000" stroke="#000000" points="1340.3251,-168.5001 1350.3251,-165 1340.3251,-161.5001 1340.3251,-168.5001"/>
</g>
<!-- DraggableToMapService -->
<g id="node24" class="node">
<title>DraggableToMapService</title>
<ellipse fill="#fdb462" stroke="#000000" cx="375" cy="-104" rx="108.769" ry="18"/>
<text text-anchor="middle" x="375" y="-99.8" font-family="Times,serif" font-size="14.00" fill="#000000">DraggableToMapService</text>
</g>
<!-- DraggableToMapService&#45;&gt;AngularCesiumWidgetsModule -->
<g id="edge23" class="edge">
<title>DraggableToMapService&#45;&gt;AngularCesiumWidgetsModule</title>
<path fill="none" stroke="#000000" d="M477.0053,-110.3705C477.0053,-126.5586 477.0053,-168 477.0053,-168 477.0053,-168 1340.4516,-168 1340.4516,-168"/>
<polygon fill="#000000" stroke="#000000" points="1340.4516,-171.5001 1350.4516,-168 1340.4515,-164.5001 1340.4516,-171.5001"/>
</g>
<!-- ZoomToRectangleService -->
<g id="node25" class="node">
<title>ZoomToRectangleService</title>
<ellipse fill="#fdb462" stroke="#000000" cx="136" cy="-104" rx="112.2994" ry="18"/>
<text text-anchor="middle" x="136" y="-99.8" font-family="Times,serif" font-size="14.00" fill="#000000">ZoomToRectangleService</text>
</g>
<!-- ZoomToRectangleService&#45;&gt;AngularCesiumWidgetsModule -->
<g id="edge24" class="edge">
<title>ZoomToRectangleService&#45;&gt;AngularCesiumWidgetsModule</title>
<path fill="none" stroke="#000000" d="M136,-122.308C136,-142.1455 136,-171 136,-171 136,-171 1340.4586,-171 1340.4586,-171"/>
<polygon fill="#000000" stroke="#000000" points="1340.4587,-174.5001 1350.4586,-171 1340.4586,-167.5001 1340.4587,-174.5001"/>
</g>
</g>
</svg>
