<?xml version="1.0" encoding="UTF-8" standalone="no"?>
<!DOCTYPE svg PUBLIC "-//W3C//DTD SVG 1.1//EN"
 "http://www.w3.org/Graphics/SVG/1.1/DTD/svg11.dtd">
<!-- Generated by graphviz version 2.40.1 (20161225.0304)
 -->
<!-- Title: dependencies Pages: 1 -->
<svg width="2782pt" height="284pt"
 viewBox="0.00 0.00 2782.00 284.00" xmlns="http://www.w3.org/2000/svg" xmlns:xlink="http://www.w3.org/1999/xlink">
<g id="graph0" class="graph" transform="scale(1 1) rotate(0) translate(4 280)">
<title>dependencies</title>
<polygon fill="#ffffff" stroke="transparent" points="-4,4 -4,-280 2778,-280 2778,4 -4,4"/>
<text text-anchor="start" x="1366.0091" y="-42.4" font-family="sans-serif" font-weight="bold" font-size="14.00" fill="#000000">Legend</text>
<polygon fill="#ffffb3" stroke="transparent" points="1153,-10 1153,-30 1173,-30 1173,-10 1153,-10"/>
<text text-anchor="start" x="1176.629" y="-15.4" font-family="sans-serif" font-size="14.00" fill="#000000"> &#160;Declarations</text>
<polygon fill="#8dd3c7" stroke="transparent" points="1266,-10 1266,-30 1286,-30 1286,-10 1266,-10"/>
<text text-anchor="start" x="1289.7251" y="-15.4" font-family="sans-serif" font-size="14.00" fill="#000000"> &#160;Module</text>
<polygon fill="#80b1d3" stroke="transparent" points="1352,-10 1352,-30 1372,-30 1372,-10 1352,-10"/>
<text text-anchor="start" x="1375.7812" y="-15.4" font-family="sans-serif" font-size="14.00" fill="#000000"> &#160;Bootstrap</text>
<polygon fill="#fdb462" stroke="transparent" points="1449,-10 1449,-30 1469,-30 1469,-10 1449,-10"/>
<text text-anchor="start" x="1472.6732" y="-15.4" font-family="sans-serif" font-size="14.00" fill="#000000"> &#160;Providers</text>
<polygon fill="#fb8072" stroke="transparent" points="1545,-10 1545,-30 1565,-30 1565,-10 1545,-10"/>
<text text-anchor="start" x="1568.7258" y="-15.4" font-family="sans-serif" font-size="14.00" fill="#000000"> &#160;Exports</text>
<g id="clust1" class="cluster">
<title>cluster_AngularCesiumWidgetsModule</title>
<polygon fill="none" stroke="#000000" stroke-dasharray="1,5" points="8,-70 8,-268 2766,-268 2766,-70 8,-70"/>
</g>
<g id="clust2" class="cluster">
<title>cluster_AngularCesiumWidgetsModule_declarations</title>
<polygon fill="none" stroke="#000000" points="1312,-78 1312,-130 2758,-130 2758,-78 1312,-78"/>
</g>
<g id="clust11" class="cluster">
<title>cluster_AngularCesiumWidgetsModule_imports</title>
<polygon fill="none" stroke="#000000" points="1140,-78 1140,-130 1304,-130 1304,-78 1140,-78"/>
</g>
<g id="clust12" class="cluster">
<title>cluster_AngularCesiumWidgetsModule_exports</title>
<polygon fill="none" stroke="#000000" points="850,-208 850,-260 2169,-260 2169,-208 850,-208"/>
</g>
<g id="clust14" class="cluster">
<title>cluster_AngularCesiumWidgetsModule_providers</title>
<polygon fill="none" stroke="#000000" points="16,-78 16,-130 1132,-130 1132,-78 16,-78"/>
</g>
<!-- HippodromeEditorComponent -->
<g id="node1" class="node">
<title>HippodromeEditorComponent</title>
<polygon fill="#ffffb3" stroke="#000000" points="2749.5898,-122 2562.4102,-122 2562.4102,-86 2749.5898,-86 2749.5898,-122"/>
<text text-anchor="middle" x="2656" y="-99.8" font-family="Times,serif" font-size="14.00" fill="#000000">HippodromeEditorComponent</text>
</g>
<!-- AngularCesiumWidgetsModule -->
<g id="node9" class="node">
<title>AngularCesiumWidgetsModule</title>
<polygon fill="#8dd3c7" stroke="#000000" points="1596.3543,-187 1593.3543,-191 1572.3543,-191 1569.3543,-187 1401.6457,-187 1401.6457,-151 1596.3543,-151 1596.3543,-187"/>
<text text-anchor="middle" x="1499" y="-164.8" font-family="Times,serif" font-size="14.00" fill="#000000">AngularCesiumWidgetsModule</text>
</g>
<!-- HippodromeEditorComponent&#45;&gt;AngularCesiumWidgetsModule -->
<g id="edge1" class="edge">
<title>HippodromeEditorComponent&#45;&gt;AngularCesiumWidgetsModule</title>
<path fill="none" stroke="#000000" d="M2656,-122.2843C2656,-143.3211 2656,-175 2656,-175 2656,-175 1606.648,-175 1606.648,-175"/>
<polygon fill="#000000" stroke="#000000" points="1606.6481,-171.5001 1596.648,-175 1606.648,-178.5001 1606.6481,-171.5001"/>
</g>
<!-- PolygonsEditorComponent -->
<g id="node2" class="node">
<title>PolygonsEditorComponent</title>
<polygon fill="#ffffb3" stroke="#000000" points="2544.4452,-122 2375.5548,-122 2375.5548,-86 2544.4452,-86 2544.4452,-122"/>
<text text-anchor="middle" x="2460" y="-99.8" font-family="Times,serif" font-size="14.00" fill="#000000">PolygonsEditorComponent</text>
</g>
<!-- PolygonsEditorComponent&#45;&gt;AngularCesiumWidgetsModule -->
<g id="edge2" class="edge">
<title>PolygonsEditorComponent&#45;&gt;AngularCesiumWidgetsModule</title>
<path fill="none" stroke="#000000" d="M2460,-122.308C2460,-142.1455 2460,-171 2460,-171 2460,-171 1606.4343,-171 1606.4343,-171"/>
<polygon fill="#000000" stroke="#000000" points="1606.4344,-167.5001 1596.4343,-171 1606.4343,-174.5001 1606.4344,-167.5001"/>
</g>
<!-- CirclesEditorComponent -->
<g id="node3" class="node">
<title>CirclesEditorComponent</title>
<polygon fill="#ffffb3" stroke="#000000" points="2357.979,-122 2202.021,-122 2202.021,-86 2357.979,-86 2357.979,-122"/>
<text text-anchor="middle" x="2280" y="-99.8" font-family="Times,serif" font-size="14.00" fill="#000000">CirclesEditorComponent</text>
</g>
<!-- CirclesEditorComponent&#45;&gt;AngularCesiumWidgetsModule -->
<g id="edge3" class="edge">
<title>CirclesEditorComponent&#45;&gt;AngularCesiumWidgetsModule</title>
<path fill="none" stroke="#000000" d="M2280,-122.2222C2280,-140.8285 2280,-167 2280,-167 2280,-167 1606.7289,-167 1606.7289,-167"/>
<polygon fill="#000000" stroke="#000000" points="1606.7289,-163.5001 1596.7289,-167 1606.7289,-170.5001 1606.7289,-163.5001"/>
</g>
<!-- PolylinesEditorComponent -->
<g id="node4" class="node">
<title>PolylinesEditorComponent</title>
<polygon fill="#ffffb3" stroke="#000000" points="2184.441,-122 2015.559,-122 2015.559,-86 2184.441,-86 2184.441,-122"/>
<text text-anchor="middle" x="2100" y="-99.8" font-family="Times,serif" font-size="14.00" fill="#000000">PolylinesEditorComponent</text>
</g>
<!-- PolylinesEditorComponent&#45;&gt;AngularCesiumWidgetsModule -->
<g id="edge4" class="edge">
<title>PolylinesEditorComponent&#45;&gt;AngularCesiumWidgetsModule</title>
<path fill="none" stroke="#000000" d="M2088.5374,-122.0225C2088.5374,-139.3734 2088.5374,-163 2088.5374,-163 2088.5374,-163 1606.6808,-163 1606.6808,-163"/>
<polygon fill="#000000" stroke="#000000" points="1606.6808,-159.5001 1596.6808,-163 1606.6808,-166.5001 1606.6808,-159.5001"/>
</g>
<!-- DraggableToMapDirective -->
<g id="node5" class="node">
<title>DraggableToMapDirective</title>
<polygon fill="#ffffb3" stroke="#000000" points="1997.5967,-122 1830.4033,-122 1830.4033,-86 1997.5967,-86 1997.5967,-122"/>
<text text-anchor="middle" x="1914" y="-99.8" font-family="Times,serif" font-size="14.00" fill="#000000">DraggableToMapDirective</text>
</g>
<!-- DraggableToMapDirective&#45;&gt;AngularCesiumWidgetsModule -->
<g id="edge5" class="edge">
<title>DraggableToMapDirective&#45;&gt;AngularCesiumWidgetsModule</title>
<path fill="none" stroke="#000000" d="M1891.5871,-122.0091C1891.5871,-138.0494 1891.5871,-159 1891.5871,-159 1891.5871,-159 1606.5484,-159 1606.5484,-159"/>
<polygon fill="#000000" stroke="#000000" points="1606.5485,-155.5001 1596.5484,-159 1606.5484,-162.5001 1606.5485,-155.5001"/>
</g>
<!-- DragIconComponent -->
<g id="node6" class="node">
<title>DragIconComponent</title>
<polygon fill="#ffffb3" stroke="#000000" points="1812.1895,-122 1677.8105,-122 1677.8105,-86 1812.1895,-86 1812.1895,-122"/>
<text text-anchor="middle" x="1745" y="-99.8" font-family="Times,serif" font-size="14.00" fill="#000000">DragIconComponent</text>
</g>
<!-- DragIconComponent&#45;&gt;AngularCesiumWidgetsModule -->
<g id="edge6" class="edge">
<title>DragIconComponent&#45;&gt;AngularCesiumWidgetsModule</title>
<path fill="none" stroke="#000000" d="M1720.3224,-122.1243C1720.3224,-136.7832 1720.3224,-155 1720.3224,-155 1720.3224,-155 1606.3973,-155 1606.3973,-155"/>
<polygon fill="#000000" stroke="#000000" points="1606.3973,-151.5001 1596.3973,-155 1606.3973,-158.5001 1606.3973,-151.5001"/>
</g>
<!-- AcToolbarComponent -->
<g id="node7" class="node">
<title>AcToolbarComponent</title>
<polygon fill="#ffffb3" stroke="#000000" points="1659.972,-122 1518.028,-122 1518.028,-86 1659.972,-86 1659.972,-122"/>
<text text-anchor="middle" x="1589" y="-99.8" font-family="Times,serif" font-size="14.00" fill="#000000">AcToolbarComponent</text>
</g>
<!-- AcToolbarComponent&#45;&gt;AngularCesiumWidgetsModule -->
<g id="edge7" class="edge">
<title>AcToolbarComponent&#45;&gt;AngularCesiumWidgetsModule</title>
<path fill="none" stroke="#000000" d="M1557.2206,-122.1061C1557.2206,-122.1061 1557.2206,-140.991 1557.2206,-140.991"/>
<polygon fill="#000000" stroke="#000000" points="1553.7206,-140.9909 1557.2206,-150.991 1560.7206,-140.991 1553.7206,-140.9909"/>
</g>
<!-- AcToolbarButtonComponent -->
<g id="node8" class="node">
<title>AcToolbarButtonComponent</title>
<polygon fill="#ffffb3" stroke="#000000" points="1500.0898,-122 1319.9102,-122 1319.9102,-86 1500.0898,-86 1500.0898,-122"/>
<text text-anchor="middle" x="1410" y="-99.8" font-family="Times,serif" font-size="14.00" fill="#000000">AcToolbarButtonComponent</text>
</g>
<!-- AcToolbarButtonComponent&#45;&gt;AngularCesiumWidgetsModule -->
<g id="edge8" class="edge">
<title>AcToolbarButtonComponent&#45;&gt;AngularCesiumWidgetsModule</title>
<path fill="none" stroke="#000000" d="M1450.8089,-122.1061C1450.8089,-122.1061 1450.8089,-140.991 1450.8089,-140.991"/>
<polygon fill="#000000" stroke="#000000" points="1447.309,-140.9909 1450.8089,-150.991 1454.309,-140.991 1447.309,-140.9909"/>
</g>
<!-- HippodromeEditorComponent  -->
<g id="node11" class="node">
<title>HippodromeEditorComponent </title>
<polygon fill="#fb8072" stroke="#000000" points="2161.0902,-252 1970.9098,-252 1970.9098,-216 2161.0902,-216 2161.0902,-252"/>
<text text-anchor="middle" x="2066" y="-229.8" font-family="Times,serif" font-size="14.00" fill="#000000">HippodromeEditorComponent </text>
</g>
<!-- AngularCesiumWidgetsModule&#45;&gt;HippodromeEditorComponent  -->
<g id="edge10" class="edge">
<title>AngularCesiumWidgetsModule&#45;&gt;HippodromeEditorComponent </title>
<path fill="none" stroke="#000000" stroke-dasharray="5,2" d="M1596.6142,-179C1738.3156,-179 1984.2516,-179 1984.2516,-179 1984.2516,-179 1984.2516,-205.9909 1984.2516,-205.9909"/>
<polygon fill="#000000" stroke="#000000" points="1980.7517,-205.9909 1984.2516,-215.9909 1987.7517,-205.991 1980.7517,-205.9909"/>
</g>
<!-- PolygonsEditorComponent  -->
<g id="node12" class="node">
<title>PolygonsEditorComponent </title>
<polygon fill="#fb8072" stroke="#000000" points="1952.9446,-252 1781.0554,-252 1781.0554,-216 1952.9446,-216 1952.9446,-252"/>
<text text-anchor="middle" x="1867" y="-229.8" font-family="Times,serif" font-size="14.00" fill="#000000">PolygonsEditorComponent </text>
</g>
<!-- AngularCesiumWidgetsModule&#45;&gt;PolygonsEditorComponent  -->
<g id="edge11" class="edge">
<title>AngularCesiumWidgetsModule&#45;&gt;PolygonsEditorComponent </title>
<path fill="none" stroke="#000000" stroke-dasharray="5,2" d="M1596.4327,-183C1683.2141,-183 1796.5612,-183 1796.5612,-183 1796.5612,-183 1796.5612,-205.8757 1796.5612,-205.8757"/>
<polygon fill="#000000" stroke="#000000" points="1793.0613,-205.8757 1796.5612,-215.8757 1800.0613,-205.8757 1793.0613,-205.8757"/>
</g>
<!-- CirclesEditorComponent  -->
<g id="node13" class="node">
<title>CirclesEditorComponent </title>
<polygon fill="#fb8072" stroke="#000000" points="1762.9797,-252 1603.0203,-252 1603.0203,-216 1762.9797,-216 1762.9797,-252"/>
<text text-anchor="middle" x="1683" y="-229.8" font-family="Times,serif" font-size="14.00" fill="#000000">CirclesEditorComponent </text>
</g>
<!-- AngularCesiumWidgetsModule&#45;&gt;CirclesEditorComponent  -->
<g id="edge12" class="edge">
<title>AngularCesiumWidgetsModule&#45;&gt;CirclesEditorComponent </title>
<path fill="none" stroke="#000000" stroke-dasharray="5,2" d="M1590.6986,-187.1061C1590.6986,-206.3391 1590.6986,-234 1590.6986,-234 1590.6986,-234 1593.1468,-234 1593.1468,-234"/>
<polygon fill="#000000" stroke="#000000" points="1593.1469,-237.5001 1603.1468,-234 1593.1468,-230.5001 1593.1469,-237.5001"/>
</g>
<!-- PolylinesEditorComponent  -->
<g id="node14" class="node">
<title>PolylinesEditorComponent </title>
<polygon fill="#fb8072" stroke="#000000" points="1584.9404,-252 1413.0596,-252 1413.0596,-216 1584.9404,-216 1584.9404,-252"/>
<text text-anchor="middle" x="1499" y="-229.8" font-family="Times,serif" font-size="14.00" fill="#000000">PolylinesEditorComponent </text>
</g>
<!-- AngularCesiumWidgetsModule&#45;&gt;PolylinesEditorComponent  -->
<g id="edge13" class="edge">
<title>AngularCesiumWidgetsModule&#45;&gt;PolylinesEditorComponent </title>
<path fill="none" stroke="#000000" stroke-dasharray="5,2" d="M1499,-187.1061C1499,-187.1061 1499,-205.991 1499,-205.991"/>
<polygon fill="#000000" stroke="#000000" points="1495.5001,-205.9909 1499,-215.991 1502.5001,-205.991 1495.5001,-205.9909"/>
</g>
<!-- DraggableToMapDirective  -->
<g id="node15" class="node">
<title>DraggableToMapDirective </title>
<polygon fill="#fb8072" stroke="#000000" points="1394.5962,-252 1223.4038,-252 1223.4038,-216 1394.5962,-216 1394.5962,-252"/>
<text text-anchor="middle" x="1309" y="-229.8" font-family="Times,serif" font-size="14.00" fill="#000000">DraggableToMapDirective </text>
</g>
<!-- AngularCesiumWidgetsModule&#45;&gt;DraggableToMapDirective  -->
<g id="edge14" class="edge">
<title>AngularCesiumWidgetsModule&#45;&gt;DraggableToMapDirective </title>
<path fill="none" stroke="#000000" stroke-dasharray="5,2" d="M1407.3014,-187.1061C1407.3014,-206.3391 1407.3014,-234 1407.3014,-234 1407.3014,-234 1404.8514,-234 1404.8514,-234"/>
<polygon fill="#000000" stroke="#000000" points="1404.8515,-230.5001 1394.8514,-234 1404.8514,-237.5001 1404.8515,-230.5001"/>
</g>
<!-- AcToolbarComponent  -->
<g id="node16" class="node">
<title>AcToolbarComponent </title>
<polygon fill="#fb8072" stroke="#000000" points="1205.9728,-252 1060.0272,-252 1060.0272,-216 1205.9728,-216 1205.9728,-252"/>
<text text-anchor="middle" x="1133" y="-229.8" font-family="Times,serif" font-size="14.00" fill="#000000">AcToolbarComponent </text>
</g>
<!-- AngularCesiumWidgetsModule&#45;&gt;AcToolbarComponent  -->
<g id="edge15" class="edge">
<title>AngularCesiumWidgetsModule&#45;&gt;AcToolbarComponent </title>
<path fill="none" stroke="#000000" stroke-dasharray="5,2" d="M1401.4605,-183C1306.6341,-183 1176.8182,-183 1176.8182,-183 1176.8182,-183 1176.8182,-205.8757 1176.8182,-205.8757"/>
<polygon fill="#000000" stroke="#000000" points="1173.3183,-205.8757 1176.8182,-215.8757 1180.3183,-205.8757 1173.3183,-205.8757"/>
</g>
<!-- AcToolbarButtonComponent  -->
<g id="node17" class="node">
<title>AcToolbarButtonComponent </title>
<polygon fill="#fb8072" stroke="#000000" points="1041.5903,-252 858.4097,-252 858.4097,-216 1041.5903,-216 1041.5903,-252"/>
<text text-anchor="middle" x="950" y="-229.8" font-family="Times,serif" font-size="14.00" fill="#000000">AcToolbarButtonComponent </text>
</g>
<!-- AngularCesiumWidgetsModule&#45;&gt;AcToolbarButtonComponent  -->
<g id="edge16" class="edge">
<title>AngularCesiumWidgetsModule&#45;&gt;AcToolbarButtonComponent </title>
<path fill="none" stroke="#000000" stroke-dasharray="5,2" d="M1401.6143,-179C1252.0394,-179 982.8573,-179 982.8573,-179 982.8573,-179 982.8573,-205.9909 982.8573,-205.9909"/>
<polygon fill="#000000" stroke="#000000" points="979.3574,-205.9909 982.8573,-215.9909 986.3574,-205.991 979.3574,-205.9909"/>
</g>
<!-- AngularCesiumModule -->
<g id="node10" class="node">
<title>AngularCesiumModule</title>
<polygon fill="#8dd3c7" stroke="#000000" points="1296.1993,-122 1293.1993,-126 1272.1993,-126 1269.1993,-122 1147.8007,-122 1147.8007,-86 1296.1993,-86 1296.1993,-122"/>
<text text-anchor="middle" x="1222" y="-99.8" font-family="Times,serif" font-size="14.00" fill="#000000">AngularCesiumModule</text>
</g>
<!-- AngularCesiumModule&#45;&gt;AngularCesiumWidgetsModule -->
<g id="edge9" class="edge">
<title>AngularCesiumModule&#45;&gt;AngularCesiumWidgetsModule</title>
<path fill="none" stroke="#000000" d="M1259.7758,-122.1243C1259.7758,-136.7832 1259.7758,-155 1259.7758,-155 1259.7758,-155 1391.3533,-155 1391.3533,-155"/>
<polygon fill="#000000" stroke="#000000" points="1391.3533,-158.5001 1401.3533,-155 1391.3533,-151.5001 1391.3533,-158.5001"/>
</g>
<!-- PolygonsEditorService -->
<g id="node18" class="node">
<title>PolygonsEditorService</title>
<ellipse fill="#fdb462" stroke="#000000" cx="1024" cy="-104" rx="100.1607" ry="18"/>
<text text-anchor="middle" x="1024" y="-99.8" font-family="Times,serif" font-size="14.00" fill="#000000">PolygonsEditorService</text>
</g>
<!-- PolygonsEditorService&#45;&gt;AngularCesiumWidgetsModule -->
<g id="edge17" class="edge">
<title>PolygonsEditorService&#45;&gt;AngularCesiumWidgetsModule</title>
<path fill="none" stroke="#000000" d="M1092.1721,-117.314C1092.1721,-133.5914 1092.1721,-159 1092.1721,-159 1092.1721,-159 1391.5546,-159 1391.5546,-159"/>
<polygon fill="#000000" stroke="#000000" points="1391.5546,-162.5001 1401.5546,-159 1391.5546,-155.5001 1391.5546,-162.5001"/>
</g>
<!-- CirclesEditorService -->
<g id="node19" class="node">
<title>CirclesEditorService</title>
<ellipse fill="#fdb462" stroke="#000000" cx="814" cy="-104" rx="91.4635" ry="18"/>
<text text-anchor="middle" x="814" y="-99.8" font-family="Times,serif" font-size="14.00" fill="#000000">CirclesEditorService</text>
</g>
<!-- CirclesEditorService&#45;&gt;AngularCesiumWidgetsModule -->
<g id="edge18" class="edge">
<title>CirclesEditorService&#45;&gt;AngularCesiumWidgetsModule</title>
<path fill="none" stroke="#000000" d="M881.8434,-116.2248C881.8434,-133.5063 881.8434,-163 881.8434,-163 881.8434,-163 1391.5503,-163 1391.5503,-163"/>
<polygon fill="#000000" stroke="#000000" points="1391.5503,-166.5001 1401.5503,-163 1391.5502,-159.5001 1391.5503,-166.5001"/>
</g>
<!-- PolylinesEditorService -->
<g id="node20" class="node">
<title>PolylinesEditorService</title>
<ellipse fill="#fdb462" stroke="#000000" cx="604" cy="-104" rx="100.1549" ry="18"/>
<text text-anchor="middle" x="604" y="-99.8" font-family="Times,serif" font-size="14.00" fill="#000000">PolylinesEditorService</text>
</g>
<!-- PolylinesEditorService&#45;&gt;AngularCesiumWidgetsModule -->
<g id="edge19" class="edge">
<title>PolylinesEditorService&#45;&gt;AngularCesiumWidgetsModule</title>
<path fill="none" stroke="#000000" d="M604,-122.2222C604,-140.8285 604,-167 604,-167 604,-167 1391.5156,-167 1391.5156,-167"/>
<polygon fill="#000000" stroke="#000000" points="1391.5156,-170.5001 1401.5156,-167 1391.5155,-163.5001 1391.5156,-170.5001"/>
</g>
<!-- HippodromeEditorService -->
<g id="node21" class="node">
<title>HippodromeEditorService</title>
<ellipse fill="#fdb462" stroke="#000000" cx="373" cy="-104" rx="112.8829" ry="18"/>
<text text-anchor="middle" x="373" y="-99.8" font-family="Times,serif" font-size="14.00" fill="#000000">HippodromeEditorService</text>
</g>
<!-- HippodromeEditorService&#45;&gt;AngularCesiumWidgetsModule -->
<g id="edge20" class="edge">
<title>HippodromeEditorService&#45;&gt;AngularCesiumWidgetsModule</title>
<path fill="none" stroke="#000000" d="M373,-122.308C373,-142.1455 373,-171 373,-171 373,-171 1391.5345,-171 1391.5345,-171"/>
<polygon fill="#000000" stroke="#000000" points="1391.5345,-174.5001 1401.5345,-171 1391.5345,-167.5001 1391.5345,-174.5001"/>
</g>
<!-- DraggableToMapService -->
<g id="node22" class="node">
<title>DraggableToMapService</title>
<ellipse fill="#fdb462" stroke="#000000" cx="133" cy="-104" rx="108.769" ry="18"/>
<text text-anchor="middle" x="133" y="-99.8" font-family="Times,serif" font-size="14.00" fill="#000000">DraggableToMapService</text>
</g>
<!-- DraggableToMapService&#45;&gt;AngularCesiumWidgetsModule -->
<g id="edge21" class="edge">
<title>DraggableToMapService&#45;&gt;AngularCesiumWidgetsModule</title>
<path fill="none" stroke="#000000" d="M133,-122.2843C133,-143.3211 133,-175 133,-175 133,-175 1391.5824,-175 1391.5824,-175"/>
<polygon fill="#000000" stroke="#000000" points="1391.5825,-178.5001 1401.5824,-175 1391.5824,-171.5001 1391.5825,-178.5001"/>
</g>
</g>
</svg>
