<?xml version="1.0" encoding="UTF-8" standalone="no"?>
<!DOCTYPE svg PUBLIC "-//W3C//DTD SVG 1.1//EN"
 "http://www.w3.org/Graphics/SVG/1.1/DTD/svg11.dtd">
<!-- Generated by graphviz version 2.40.1 (20161225.0304)
 -->
<!-- Title: dependencies Pages: 1 -->
<svg width="1900pt" height="284pt"
 viewBox="0.00 0.00 1900.00 284.00" xmlns="http://www.w3.org/2000/svg" xmlns:xlink="http://www.w3.org/1999/xlink">
<g id="graph0" class="graph" transform="scale(1 1) rotate(0) translate(4 280)">
<title>dependencies</title>
<polygon fill="#ffffff" stroke="transparent" points="-4,4 -4,-280 1896,-280 1896,4 -4,4"/>
<text text-anchor="start" x="925.0091" y="-42.4" font-family="sans-serif" font-weight="bold" font-size="14.00" fill="#000000">Legend</text>
<polygon fill="#ffffb3" stroke="transparent" points="712,-10 712,-30 732,-30 732,-10 712,-10"/>
<text text-anchor="start" x="735.629" y="-15.4" font-family="sans-serif" font-size="14.00" fill="#000000"> &#160;Declarations</text>
<polygon fill="#8dd3c7" stroke="transparent" points="825,-10 825,-30 845,-30 845,-10 825,-10"/>
<text text-anchor="start" x="848.7251" y="-15.4" font-family="sans-serif" font-size="14.00" fill="#000000"> &#160;Module</text>
<polygon fill="#80b1d3" stroke="transparent" points="911,-10 911,-30 931,-30 931,-10 911,-10"/>
<text text-anchor="start" x="934.7812" y="-15.4" font-family="sans-serif" font-size="14.00" fill="#000000"> &#160;Bootstrap</text>
<polygon fill="#fdb462" stroke="transparent" points="1008,-10 1008,-30 1028,-30 1028,-10 1008,-10"/>
<text text-anchor="start" x="1031.6732" y="-15.4" font-family="sans-serif" font-size="14.00" fill="#000000"> &#160;Providers</text>
<polygon fill="#fb8072" stroke="transparent" points="1104,-10 1104,-30 1124,-30 1124,-10 1104,-10"/>
<text text-anchor="start" x="1127.7258" y="-15.4" font-family="sans-serif" font-size="14.00" fill="#000000"> &#160;Exports</text>
<g id="clust1" class="cluster">
<title>cluster_AngularCesiumWidgetsModule</title>
<polygon fill="none" stroke="#000000" stroke-dasharray="1,5" points="8,-70 8,-268 1884,-268 1884,-70 8,-70"/>
</g>
<g id="clust2" class="cluster">
<title>cluster_AngularCesiumWidgetsModule_declarations</title>
<polygon fill="none" stroke="#000000" points="430,-78 430,-130 1876,-130 1876,-78 430,-78"/>
</g>
<g id="clust11" class="cluster">
<title>cluster_AngularCesiumWidgetsModule_imports</title>
<polygon fill="none" stroke="#000000" points="258,-78 258,-130 422,-130 422,-78 258,-78"/>
</g>
<g id="clust12" class="cluster">
<title>cluster_AngularCesiumWidgetsModule_exports</title>
<polygon fill="none" stroke="#000000" points="298,-208 298,-260 1617,-260 1617,-208 298,-208"/>
</g>
<g id="clust14" class="cluster">
<title>cluster_AngularCesiumWidgetsModule_providers</title>
<polygon fill="none" stroke="#000000" points="16,-78 16,-130 250,-130 250,-78 16,-78"/>
</g>
<!-- HippodromeEditorComponent -->
<g id="node1" class="node">
<title>HippodromeEditorComponent</title>
<polygon fill="#ffffb3" stroke="#000000" points="1867.5898,-122 1680.4102,-122 1680.4102,-86 1867.5898,-86 1867.5898,-122"/>
<text text-anchor="middle" x="1774" y="-99.8" font-family="Times,serif" font-size="14.00" fill="#000000">HippodromeEditorComponent</text>
</g>
<!-- AngularCesiumWidgetsModule -->
<g id="node9" class="node">
<title>AngularCesiumWidgetsModule</title>
<polygon fill="#8dd3c7" stroke="#000000" points="1044.3543,-187 1041.3543,-191 1020.3543,-191 1017.3543,-187 849.6457,-187 849.6457,-151 1044.3543,-151 1044.3543,-187"/>
<text text-anchor="middle" x="947" y="-164.8" font-family="Times,serif" font-size="14.00" fill="#000000">AngularCesiumWidgetsModule</text>
</g>
<!-- HippodromeEditorComponent&#45;&gt;AngularCesiumWidgetsModule -->
<g id="edge1" class="edge">
<title>HippodromeEditorComponent&#45;&gt;AngularCesiumWidgetsModule</title>
<path fill="none" stroke="#000000" d="M1774,-122.2228C1774,-142.3652 1774,-172 1774,-172 1774,-172 1054.707,-172 1054.707,-172"/>
<polygon fill="#000000" stroke="#000000" points="1054.707,-168.5001 1044.707,-172 1054.7069,-175.5001 1054.707,-168.5001"/>
</g>
<!-- PolygonsEditorComponent -->
<g id="node2" class="node">
<title>PolygonsEditorComponent</title>
<polygon fill="#ffffb3" stroke="#000000" points="1662.4452,-122 1493.5548,-122 1493.5548,-86 1662.4452,-86 1662.4452,-122"/>
<text text-anchor="middle" x="1578" y="-99.8" font-family="Times,serif" font-size="14.00" fill="#000000">PolygonsEditorComponent</text>
</g>
<!-- PolygonsEditorComponent&#45;&gt;AngularCesiumWidgetsModule -->
<g id="edge2" class="edge">
<title>PolygonsEditorComponent&#45;&gt;AngularCesiumWidgetsModule</title>
<path fill="none" stroke="#000000" d="M1551.5363,-122.2222C1551.5363,-140.8285 1551.5363,-167 1551.5363,-167 1551.5363,-167 1054.4649,-167 1054.4649,-167"/>
<polygon fill="#000000" stroke="#000000" points="1054.465,-163.5001 1044.4649,-167 1054.4649,-170.5001 1054.465,-163.5001"/>
</g>
<!-- CirclesEditorComponent -->
<g id="node3" class="node">
<title>CirclesEditorComponent</title>
<polygon fill="#ffffb3" stroke="#000000" points="1475.979,-122 1320.021,-122 1320.021,-86 1475.979,-86 1475.979,-122"/>
<text text-anchor="middle" x="1398" y="-99.8" font-family="Times,serif" font-size="14.00" fill="#000000">CirclesEditorComponent</text>
</g>
<!-- CirclesEditorComponent&#45;&gt;AngularCesiumWidgetsModule -->
<g id="edge3" class="edge">
<title>CirclesEditorComponent&#45;&gt;AngularCesiumWidgetsModule</title>
<path fill="none" stroke="#000000" d="M1360.4914,-122.0336C1360.4914,-139.0597 1360.4914,-162 1360.4914,-162 1360.4914,-162 1054.4681,-162 1054.4681,-162"/>
<polygon fill="#000000" stroke="#000000" points="1054.4681,-158.5001 1044.4681,-162 1054.4681,-165.5001 1054.4681,-158.5001"/>
</g>
<!-- PolylinesEditorComponent -->
<g id="node4" class="node">
<title>PolylinesEditorComponent</title>
<polygon fill="#ffffb3" stroke="#000000" points="1302.441,-122 1133.559,-122 1133.559,-86 1302.441,-86 1302.441,-122"/>
<text text-anchor="middle" x="1218" y="-99.8" font-family="Times,serif" font-size="14.00" fill="#000000">PolylinesEditorComponent</text>
</g>
<!-- PolylinesEditorComponent&#45;&gt;AngularCesiumWidgetsModule -->
<g id="edge4" class="edge">
<title>PolylinesEditorComponent&#45;&gt;AngularCesiumWidgetsModule</title>
<path fill="none" stroke="#000000" d="M1172.2597,-122.2396C1172.2597,-137.5706 1172.2597,-157 1172.2597,-157 1172.2597,-157 1054.492,-157 1054.492,-157"/>
<polygon fill="#000000" stroke="#000000" points="1054.4921,-153.5001 1044.492,-157 1054.492,-160.5001 1054.4921,-153.5001"/>
</g>
<!-- DraggableToMapDirective -->
<g id="node5" class="node">
<title>DraggableToMapDirective</title>
<polygon fill="#ffffb3" stroke="#000000" points="1115.5967,-122 948.4033,-122 948.4033,-86 1115.5967,-86 1115.5967,-122"/>
<text text-anchor="middle" x="1032" y="-99.8" font-family="Times,serif" font-size="14.00" fill="#000000">DraggableToMapDirective</text>
</g>
<!-- DraggableToMapDirective&#45;&gt;AngularCesiumWidgetsModule -->
<g id="edge5" class="edge">
<title>DraggableToMapDirective&#45;&gt;AngularCesiumWidgetsModule</title>
<path fill="none" stroke="#000000" d="M996.3145,-122.1061C996.3145,-122.1061 996.3145,-140.991 996.3145,-140.991"/>
<polygon fill="#000000" stroke="#000000" points="992.8146,-140.9909 996.3145,-150.991 999.8146,-140.991 992.8146,-140.9909"/>
</g>
<!-- DragIconComponent -->
<g id="node6" class="node">
<title>DragIconComponent</title>
<polygon fill="#ffffb3" stroke="#000000" points="930.1895,-122 795.8105,-122 795.8105,-86 930.1895,-86 930.1895,-122"/>
<text text-anchor="middle" x="863" y="-99.8" font-family="Times,serif" font-size="14.00" fill="#000000">DragIconComponent</text>
</g>
<!-- DragIconComponent&#45;&gt;AngularCesiumWidgetsModule -->
<g id="edge6" class="edge">
<title>DragIconComponent&#45;&gt;AngularCesiumWidgetsModule</title>
<path fill="none" stroke="#000000" d="M889.8338,-122.1061C889.8338,-122.1061 889.8338,-140.991 889.8338,-140.991"/>
<polygon fill="#000000" stroke="#000000" points="886.3339,-140.9909 889.8338,-150.991 893.3339,-140.991 886.3339,-140.9909"/>
</g>
<!-- AcToolbarComponent -->
<g id="node7" class="node">
<title>AcToolbarComponent</title>
<polygon fill="#ffffb3" stroke="#000000" points="777.972,-122 636.028,-122 636.028,-86 777.972,-86 777.972,-122"/>
<text text-anchor="middle" x="707" y="-99.8" font-family="Times,serif" font-size="14.00" fill="#000000">AcToolbarComponent</text>
</g>
<!-- AcToolbarComponent&#45;&gt;AngularCesiumWidgetsModule -->
<g id="edge7" class="edge">
<title>AcToolbarComponent&#45;&gt;AngularCesiumWidgetsModule</title>
<path fill="none" stroke="#000000" d="M724.7189,-122.2396C724.7189,-137.5706 724.7189,-157 724.7189,-157 724.7189,-157 839.5043,-157 839.5043,-157"/>
<polygon fill="#000000" stroke="#000000" points="839.5043,-160.5001 849.5043,-157 839.5043,-153.5001 839.5043,-160.5001"/>
</g>
<!-- AcToolbarButtonComponent -->
<g id="node8" class="node">
<title>AcToolbarButtonComponent</title>
<polygon fill="#ffffb3" stroke="#000000" points="618.0898,-122 437.9102,-122 437.9102,-86 618.0898,-86 618.0898,-122"/>
<text text-anchor="middle" x="528" y="-99.8" font-family="Times,serif" font-size="14.00" fill="#000000">AcToolbarButtonComponent</text>
</g>
<!-- AcToolbarButtonComponent&#45;&gt;AngularCesiumWidgetsModule -->
<g id="edge8" class="edge">
<title>AcToolbarButtonComponent&#45;&gt;AngularCesiumWidgetsModule</title>
<path fill="none" stroke="#000000" d="M563.1545,-122.0336C563.1545,-139.0597 563.1545,-162 563.1545,-162 563.1545,-162 839.6434,-162 839.6434,-162"/>
<polygon fill="#000000" stroke="#000000" points="839.6434,-165.5001 849.6434,-162 839.6433,-158.5001 839.6434,-165.5001"/>
</g>
<!-- HippodromeEditorComponent  -->
<g id="node11" class="node">
<title>HippodromeEditorComponent </title>
<polygon fill="#fb8072" stroke="#000000" points="1609.0902,-252 1418.9098,-252 1418.9098,-216 1609.0902,-216 1609.0902,-252"/>
<text text-anchor="middle" x="1514" y="-229.8" font-family="Times,serif" font-size="14.00" fill="#000000">HippodromeEditorComponent </text>
</g>
<!-- AngularCesiumWidgetsModule&#45;&gt;HippodromeEditorComponent  -->
<g id="edge10" class="edge">
<title>AngularCesiumWidgetsModule&#45;&gt;HippodromeEditorComponent </title>
<path fill="none" stroke="#000000" stroke-dasharray="5,2" d="M1044.3624,-177C1189.9196,-177 1447.3473,-177 1447.3473,-177 1447.3473,-177 1447.3473,-205.9648 1447.3473,-205.9648"/>
<polygon fill="#000000" stroke="#000000" points="1443.8474,-205.9648 1447.3473,-215.9648 1450.8474,-205.9649 1443.8474,-205.9648"/>
</g>
<!-- PolygonsEditorComponent  -->
<g id="node12" class="node">
<title>PolygonsEditorComponent </title>
<polygon fill="#fb8072" stroke="#000000" points="1400.9446,-252 1229.0554,-252 1229.0554,-216 1400.9446,-216 1400.9446,-252"/>
<text text-anchor="middle" x="1315" y="-229.8" font-family="Times,serif" font-size="14.00" fill="#000000">PolygonsEditorComponent </text>
</g>
<!-- AngularCesiumWidgetsModule&#45;&gt;PolygonsEditorComponent  -->
<g id="edge11" class="edge">
<title>AngularCesiumWidgetsModule&#45;&gt;PolygonsEditorComponent </title>
<path fill="none" stroke="#000000" stroke-dasharray="5,2" d="M1044.763,-182C1138.424,-182 1265.624,-182 1265.624,-182 1265.624,-182 1265.624,-205.8129 1265.624,-205.8129"/>
<polygon fill="#000000" stroke="#000000" points="1262.124,-205.8129 1265.624,-215.8129 1269.124,-205.813 1262.124,-205.8129"/>
</g>
<!-- CirclesEditorComponent  -->
<g id="node13" class="node">
<title>CirclesEditorComponent </title>
<polygon fill="#fb8072" stroke="#000000" points="1210.9797,-252 1051.0203,-252 1051.0203,-216 1210.9797,-216 1210.9797,-252"/>
<text text-anchor="middle" x="1131" y="-229.8" font-family="Times,serif" font-size="14.00" fill="#000000">CirclesEditorComponent </text>
</g>
<!-- AngularCesiumWidgetsModule&#45;&gt;CirclesEditorComponent  -->
<g id="edge12" class="edge">
<title>AngularCesiumWidgetsModule&#45;&gt;CirclesEditorComponent </title>
<path fill="none" stroke="#000000" stroke-dasharray="5,2" d="M1038.6987,-187.1061C1038.6987,-206.3391 1038.6987,-234 1038.6987,-234 1038.6987,-234 1041.1468,-234 1041.1468,-234"/>
<polygon fill="#000000" stroke="#000000" points="1041.1469,-237.5001 1051.1468,-234 1041.1468,-230.5001 1041.1469,-237.5001"/>
</g>
<!-- PolylinesEditorComponent  -->
<g id="node14" class="node">
<title>PolylinesEditorComponent </title>
<polygon fill="#fb8072" stroke="#000000" points="1032.9404,-252 861.0596,-252 861.0596,-216 1032.9404,-216 1032.9404,-252"/>
<text text-anchor="middle" x="947" y="-229.8" font-family="Times,serif" font-size="14.00" fill="#000000">PolylinesEditorComponent </text>
</g>
<!-- AngularCesiumWidgetsModule&#45;&gt;PolylinesEditorComponent  -->
<g id="edge13" class="edge">
<title>AngularCesiumWidgetsModule&#45;&gt;PolylinesEditorComponent </title>
<path fill="none" stroke="#000000" stroke-dasharray="5,2" d="M947,-187.1061C947,-187.1061 947,-205.991 947,-205.991"/>
<polygon fill="#000000" stroke="#000000" points="943.5001,-205.9909 947,-215.991 950.5001,-205.991 943.5001,-205.9909"/>
</g>
<!-- DraggableToMapDirective  -->
<g id="node15" class="node">
<title>DraggableToMapDirective </title>
<polygon fill="#fb8072" stroke="#000000" points="842.5962,-252 671.4038,-252 671.4038,-216 842.5962,-216 842.5962,-252"/>
<text text-anchor="middle" x="757" y="-229.8" font-family="Times,serif" font-size="14.00" fill="#000000">DraggableToMapDirective </text>
</g>
<!-- AngularCesiumWidgetsModule&#45;&gt;DraggableToMapDirective  -->
<g id="edge14" class="edge">
<title>AngularCesiumWidgetsModule&#45;&gt;DraggableToMapDirective </title>
<path fill="none" stroke="#000000" stroke-dasharray="5,2" d="M855.3014,-187.1061C855.3014,-206.3391 855.3014,-234 855.3014,-234 855.3014,-234 852.8514,-234 852.8514,-234"/>
<polygon fill="#000000" stroke="#000000" points="852.8515,-230.5001 842.8514,-234 852.8514,-237.5001 852.8515,-230.5001"/>
</g>
<!-- AcToolbarComponent  -->
<g id="node16" class="node">
<title>AcToolbarComponent </title>
<polygon fill="#fb8072" stroke="#000000" points="653.9728,-252 508.0272,-252 508.0272,-216 653.9728,-216 653.9728,-252"/>
<text text-anchor="middle" x="581" y="-229.8" font-family="Times,serif" font-size="14.00" fill="#000000">AcToolbarComponent </text>
</g>
<!-- AngularCesiumWidgetsModule&#45;&gt;AcToolbarComponent  -->
<g id="edge15" class="edge">
<title>AngularCesiumWidgetsModule&#45;&gt;AcToolbarComponent </title>
<path fill="none" stroke="#000000" stroke-dasharray="5,2" d="M849.3259,-182C761.0558,-182 644.875,-182 644.875,-182 644.875,-182 644.875,-205.8129 644.875,-205.8129"/>
<polygon fill="#000000" stroke="#000000" points="641.3751,-205.8129 644.875,-215.8129 648.3751,-205.813 641.3751,-205.8129"/>
</g>
<!-- AcToolbarButtonComponent  -->
<g id="node17" class="node">
<title>AcToolbarButtonComponent </title>
<polygon fill="#fb8072" stroke="#000000" points="489.5903,-252 306.4097,-252 306.4097,-216 489.5903,-216 489.5903,-252"/>
<text text-anchor="middle" x="398" y="-229.8" font-family="Times,serif" font-size="14.00" fill="#000000">AcToolbarButtonComponent </text>
</g>
<!-- AngularCesiumWidgetsModule&#45;&gt;AcToolbarButtonComponent  -->
<g id="edge16" class="edge">
<title>AngularCesiumWidgetsModule&#45;&gt;AcToolbarButtonComponent </title>
<path fill="none" stroke="#000000" stroke-dasharray="5,2" d="M849.5232,-177C708.3974,-177 463.875,-177 463.875,-177 463.875,-177 463.875,-205.9648 463.875,-205.9648"/>
<polygon fill="#000000" stroke="#000000" points="460.3751,-205.9648 463.875,-215.9648 467.3751,-205.9649 460.3751,-205.9648"/>
</g>
<!-- AngularCesiumModule -->
<g id="node10" class="node">
<title>AngularCesiumModule</title>
<polygon fill="#8dd3c7" stroke="#000000" points="414.1993,-122 411.1993,-126 390.1993,-126 387.1993,-122 265.8007,-122 265.8007,-86 414.1993,-86 414.1993,-122"/>
<text text-anchor="middle" x="340" y="-99.8" font-family="Times,serif" font-size="14.00" fill="#000000">AngularCesiumModule</text>
</g>
<!-- AngularCesiumModule&#45;&gt;AngularCesiumWidgetsModule -->
<g id="edge9" class="edge">
<title>AngularCesiumModule&#45;&gt;AngularCesiumWidgetsModule</title>
<path fill="none" stroke="#000000" d="M360.1524,-122.2222C360.1524,-140.8285 360.1524,-167 360.1524,-167 360.1524,-167 839.4353,-167 839.4353,-167"/>
<polygon fill="#000000" stroke="#000000" points="839.4353,-170.5001 849.4353,-167 839.4352,-163.5001 839.4353,-170.5001"/>
</g>
<!-- DraggableToMapService -->
<g id="node18" class="node">
<title>DraggableToMapService</title>
<ellipse fill="#fdb462" stroke="#000000" cx="133" cy="-104" rx="108.769" ry="18"/>
<text text-anchor="middle" x="133" y="-99.8" font-family="Times,serif" font-size="14.00" fill="#000000">DraggableToMapService</text>
</g>
<!-- DraggableToMapService&#45;&gt;AngularCesiumWidgetsModule -->
<g id="edge17" class="edge">
<title>DraggableToMapService&#45;&gt;AngularCesiumWidgetsModule</title>
<path fill="none" stroke="#000000" d="M133,-122.2228C133,-142.3652 133,-172 133,-172 133,-172 839.6211,-172 839.6211,-172"/>
<polygon fill="#000000" stroke="#000000" points="839.6211,-175.5001 849.6211,-172 839.6211,-168.5001 839.6211,-175.5001"/>
</g>
</g>
</svg>
