<?xml version="1.0" encoding="UTF-8" standalone="no"?>
<!DOCTYPE svg PUBLIC "-//W3C//DTD SVG 1.1//EN"
 "http://www.w3.org/Graphics/SVG/1.1/DTD/svg11.dtd">
<!-- Generated by graphviz version 2.40.1 (20161225.0304)
 -->
<!-- Title: dependencies Pages: 1 -->
<svg width="2104pt" height="284pt"
 viewBox="0.00 0.00 2104.00 284.00" xmlns="http://www.w3.org/2000/svg" xmlns:xlink="http://www.w3.org/1999/xlink">
<g id="graph0" class="graph" transform="scale(1 1) rotate(0) translate(4 280)">
<title>dependencies</title>
<polygon fill="#ffffff" stroke="transparent" points="-4,4 -4,-280 2100,-280 2100,4 -4,4"/>
<text text-anchor="start" x="1027.0091" y="-42.4" font-family="sans-serif" font-weight="bold" font-size="14.00" fill="#000000">Legend</text>
<polygon fill="#ffffb3" stroke="transparent" points="814,-10 814,-30 834,-30 834,-10 814,-10"/>
<text text-anchor="start" x="837.629" y="-15.4" font-family="sans-serif" font-size="14.00" fill="#000000"> &#160;Declarations</text>
<polygon fill="#8dd3c7" stroke="transparent" points="927,-10 927,-30 947,-30 947,-10 927,-10"/>
<text text-anchor="start" x="950.7251" y="-15.4" font-family="sans-serif" font-size="14.00" fill="#000000"> &#160;Module</text>
<polygon fill="#80b1d3" stroke="transparent" points="1013,-10 1013,-30 1033,-30 1033,-10 1013,-10"/>
<text text-anchor="start" x="1036.7812" y="-15.4" font-family="sans-serif" font-size="14.00" fill="#000000"> &#160;Bootstrap</text>
<polygon fill="#fdb462" stroke="transparent" points="1110,-10 1110,-30 1130,-30 1130,-10 1110,-10"/>
<text text-anchor="start" x="1133.6732" y="-15.4" font-family="sans-serif" font-size="14.00" fill="#000000"> &#160;Providers</text>
<polygon fill="#fb8072" stroke="transparent" points="1206,-10 1206,-30 1226,-30 1226,-10 1206,-10"/>
<text text-anchor="start" x="1229.7258" y="-15.4" font-family="sans-serif" font-size="14.00" fill="#000000"> &#160;Exports</text>
<g id="clust1" class="cluster">
<title>cluster_AngularCesiumWidgetsModule</title>
<polygon fill="none" stroke="#000000" stroke-dasharray="1,5" points="8,-70 8,-268 2088,-268 2088,-70 8,-70"/>
</g>
<g id="clust2" class="cluster">
<title>cluster_AngularCesiumWidgetsModule_declarations</title>
<polygon fill="none" stroke="#000000" points="430,-78 430,-130 2080,-130 2080,-78 430,-78"/>
</g>
<g id="clust12" class="cluster">
<title>cluster_AngularCesiumWidgetsModule_imports</title>
<polygon fill="none" stroke="#000000" points="258,-78 258,-130 422,-130 422,-78 258,-78"/>
</g>
<g id="clust13" class="cluster">
<title>cluster_AngularCesiumWidgetsModule_exports</title>
<polygon fill="none" stroke="#000000" points="306,-208 306,-260 1832,-260 1832,-208 306,-208"/>
</g>
<g id="clust15" class="cluster">
<title>cluster_AngularCesiumWidgetsModule_providers</title>
<polygon fill="none" stroke="#000000" points="16,-78 16,-130 250,-130 250,-78 16,-78"/>
</g>
<!-- HippodromeEditorComponent -->
<g id="node1" class="node">
<title>HippodromeEditorComponent</title>
<polygon fill="#ffffb3" stroke="#000000" points="2071.5898,-122 1884.4102,-122 1884.4102,-86 2071.5898,-86 2071.5898,-122"/>
<text text-anchor="middle" x="1978" y="-99.8" font-family="Times,serif" font-size="14.00" fill="#000000">HippodromeEditorComponent</text>
</g>
<!-- AngularCesiumWidgetsModule -->
<g id="node10" class="node">
<title>AngularCesiumWidgetsModule</title>
<polygon fill="#8dd3c7" stroke="#000000" points="1164.3543,-187 1161.3543,-191 1140.3543,-191 1137.3543,-187 969.6457,-187 969.6457,-151 1164.3543,-151 1164.3543,-187"/>
<text text-anchor="middle" x="1067" y="-164.8" font-family="Times,serif" font-size="14.00" fill="#000000">AngularCesiumWidgetsModule</text>
</g>
<!-- HippodromeEditorComponent&#45;&gt;AngularCesiumWidgetsModule -->
<g id="edge1" class="edge">
<title>HippodromeEditorComponent&#45;&gt;AngularCesiumWidgetsModule</title>
<path fill="none" stroke="#000000" d="M1978,-122.1061C1978,-141.3391 1978,-169 1978,-169 1978,-169 1174.493,-169 1174.493,-169"/>
<polygon fill="#000000" stroke="#000000" points="1174.493,-165.5001 1164.493,-169 1174.4929,-172.5001 1174.493,-165.5001"/>
</g>
<!-- PolygonsEditorComponent -->
<g id="node2" class="node">
<title>PolygonsEditorComponent</title>
<polygon fill="#ffffb3" stroke="#000000" points="1866.4452,-122 1697.5548,-122 1697.5548,-86 1866.4452,-86 1866.4452,-122"/>
<text text-anchor="middle" x="1782" y="-99.8" font-family="Times,serif" font-size="14.00" fill="#000000">PolygonsEditorComponent</text>
</g>
<!-- PolygonsEditorComponent&#45;&gt;AngularCesiumWidgetsModule -->
<g id="edge2" class="edge">
<title>PolygonsEditorComponent&#45;&gt;AngularCesiumWidgetsModule</title>
<path fill="none" stroke="#000000" d="M1761.0363,-122.302C1761.0363,-140.2699 1761.0363,-165 1761.0363,-165 1761.0363,-165 1174.5997,-165 1174.5997,-165"/>
<polygon fill="#000000" stroke="#000000" points="1174.5998,-161.5001 1164.5997,-165 1174.5997,-168.5001 1174.5998,-161.5001"/>
</g>
<!-- CirclesEditorComponent -->
<g id="node3" class="node">
<title>CirclesEditorComponent</title>
<polygon fill="#ffffb3" stroke="#000000" points="1679.979,-122 1524.021,-122 1524.021,-86 1679.979,-86 1679.979,-122"/>
<text text-anchor="middle" x="1602" y="-99.8" font-family="Times,serif" font-size="14.00" fill="#000000">CirclesEditorComponent</text>
</g>
<!-- CirclesEditorComponent&#45;&gt;AngularCesiumWidgetsModule -->
<g id="edge3" class="edge">
<title>CirclesEditorComponent&#45;&gt;AngularCesiumWidgetsModule</title>
<path fill="none" stroke="#000000" d="M1569.9914,-122.027C1569.9914,-138.3976 1569.9914,-160 1569.9914,-160 1569.9914,-160 1174.5782,-160 1174.5782,-160"/>
<polygon fill="#000000" stroke="#000000" points="1174.5782,-156.5001 1164.5782,-160 1174.5782,-163.5001 1174.5782,-156.5001"/>
</g>
<!-- PolylinesEditorComponent -->
<g id="node4" class="node">
<title>PolylinesEditorComponent</title>
<polygon fill="#ffffb3" stroke="#000000" points="1506.441,-122 1337.559,-122 1337.559,-86 1506.441,-86 1506.441,-122"/>
<text text-anchor="middle" x="1422" y="-99.8" font-family="Times,serif" font-size="14.00" fill="#000000">PolylinesEditorComponent</text>
</g>
<!-- PolylinesEditorComponent&#45;&gt;AngularCesiumWidgetsModule -->
<g id="edge4" class="edge">
<title>PolylinesEditorComponent&#45;&gt;AngularCesiumWidgetsModule</title>
<path fill="none" stroke="#000000" d="M1381.7597,-122.1871C1381.7597,-137.1824 1381.7597,-156 1381.7597,-156 1381.7597,-156 1174.4363,-156 1174.4363,-156"/>
<polygon fill="#000000" stroke="#000000" points="1174.4364,-152.5001 1164.4363,-156 1174.4363,-159.5001 1174.4364,-152.5001"/>
</g>
<!-- DraggableToMapDirective -->
<g id="node5" class="node">
<title>DraggableToMapDirective</title>
<polygon fill="#ffffb3" stroke="#000000" points="1319.5967,-122 1152.4033,-122 1152.4033,-86 1319.5967,-86 1319.5967,-122"/>
<text text-anchor="middle" x="1236" y="-99.8" font-family="Times,serif" font-size="14.00" fill="#000000">DraggableToMapDirective</text>
</g>
<!-- DraggableToMapDirective&#45;&gt;AngularCesiumWidgetsModule -->
<g id="edge5" class="edge">
<title>DraggableToMapDirective&#45;&gt;AngularCesiumWidgetsModule</title>
<path fill="none" stroke="#000000" d="M1158.3145,-122.1061C1158.3145,-122.1061 1158.3145,-140.991 1158.3145,-140.991"/>
<polygon fill="#000000" stroke="#000000" points="1154.8146,-140.9909 1158.3145,-150.991 1161.8146,-140.991 1154.8146,-140.9909"/>
</g>
<!-- DragIconComponent -->
<g id="node6" class="node">
<title>DragIconComponent</title>
<polygon fill="#ffffb3" stroke="#000000" points="1134.1895,-122 999.8105,-122 999.8105,-86 1134.1895,-86 1134.1895,-122"/>
<text text-anchor="middle" x="1067" y="-99.8" font-family="Times,serif" font-size="14.00" fill="#000000">DragIconComponent</text>
</g>
<!-- DragIconComponent&#45;&gt;AngularCesiumWidgetsModule -->
<g id="edge6" class="edge">
<title>DragIconComponent&#45;&gt;AngularCesiumWidgetsModule</title>
<path fill="none" stroke="#000000" d="M1067,-122.1061C1067,-122.1061 1067,-140.991 1067,-140.991"/>
<polygon fill="#000000" stroke="#000000" points="1063.5001,-140.9909 1067,-150.991 1070.5001,-140.991 1063.5001,-140.9909"/>
</g>
<!-- AcToolbarComponent -->
<g id="node7" class="node">
<title>AcToolbarComponent</title>
<polygon fill="#ffffb3" stroke="#000000" points="981.972,-122 840.028,-122 840.028,-86 981.972,-86 981.972,-122"/>
<text text-anchor="middle" x="911" y="-99.8" font-family="Times,serif" font-size="14.00" fill="#000000">AcToolbarComponent</text>
</g>
<!-- AcToolbarComponent&#45;&gt;AngularCesiumWidgetsModule -->
<g id="edge7" class="edge">
<title>AcToolbarComponent&#45;&gt;AngularCesiumWidgetsModule</title>
<path fill="none" stroke="#000000" d="M975.7795,-122.1061C975.7795,-122.1061 975.7795,-140.991 975.7795,-140.991"/>
<polygon fill="#000000" stroke="#000000" points="972.2795,-140.9909 975.7795,-150.991 979.2795,-140.991 972.2795,-140.9909"/>
</g>
<!-- AcToolbarButtonComponent -->
<g id="node8" class="node">
<title>AcToolbarButtonComponent</title>
<polygon fill="#ffffb3" stroke="#000000" points="822.0898,-122 641.9102,-122 641.9102,-86 822.0898,-86 822.0898,-122"/>
<text text-anchor="middle" x="732" y="-99.8" font-family="Times,serif" font-size="14.00" fill="#000000">AcToolbarButtonComponent</text>
</g>
<!-- AcToolbarButtonComponent&#45;&gt;AngularCesiumWidgetsModule -->
<g id="edge8" class="edge">
<title>AcToolbarButtonComponent&#45;&gt;AngularCesiumWidgetsModule</title>
<path fill="none" stroke="#000000" d="M772.6545,-122.1871C772.6545,-137.1824 772.6545,-156 772.6545,-156 772.6545,-156 959.396,-156 959.396,-156"/>
<polygon fill="#000000" stroke="#000000" points="959.3961,-159.5001 969.396,-156 959.396,-152.5001 959.3961,-159.5001"/>
</g>
<!-- RangeAndBearingComponent -->
<g id="node9" class="node">
<title>RangeAndBearingComponent</title>
<polygon fill="#ffffb3" stroke="#000000" points="623.5224,-122 438.4776,-122 438.4776,-86 623.5224,-86 623.5224,-122"/>
<text text-anchor="middle" x="531" y="-99.8" font-family="Times,serif" font-size="14.00" fill="#000000">RangeAndBearingComponent</text>
</g>
<!-- RangeAndBearingComponent&#45;&gt;AngularCesiumWidgetsModule -->
<g id="edge9" class="edge">
<title>RangeAndBearingComponent&#45;&gt;AngularCesiumWidgetsModule</title>
<path fill="none" stroke="#000000" d="M572.483,-122.027C572.483,-138.3976 572.483,-160 572.483,-160 572.483,-160 959.5945,-160 959.5945,-160"/>
<polygon fill="#000000" stroke="#000000" points="959.5946,-163.5001 969.5945,-160 959.5945,-156.5001 959.5946,-163.5001"/>
</g>
<!-- HippodromeEditorComponent  -->
<g id="node12" class="node">
<title>HippodromeEditorComponent </title>
<polygon fill="#fb8072" stroke="#000000" points="1824.0902,-252 1633.9098,-252 1633.9098,-216 1824.0902,-216 1824.0902,-252"/>
<text text-anchor="middle" x="1729" y="-229.8" font-family="Times,serif" font-size="14.00" fill="#000000">HippodromeEditorComponent </text>
</g>
<!-- AngularCesiumWidgetsModule&#45;&gt;HippodromeEditorComponent  -->
<g id="edge11" class="edge">
<title>AngularCesiumWidgetsModule&#45;&gt;HippodromeEditorComponent </title>
<path fill="none" stroke="#000000" stroke-dasharray="5,2" d="M1164.4013,-174C1331.9345,-174 1656.8473,-174 1656.8473,-174 1656.8473,-174 1656.8473,-205.998 1656.8473,-205.998"/>
<polygon fill="#000000" stroke="#000000" points="1653.3474,-205.998 1656.8473,-215.998 1660.3474,-205.9981 1653.3474,-205.998"/>
</g>
<!-- PolygonsEditorComponent  -->
<g id="node13" class="node">
<title>PolygonsEditorComponent </title>
<polygon fill="#fb8072" stroke="#000000" points="1615.9446,-252 1444.0554,-252 1444.0554,-216 1615.9446,-216 1615.9446,-252"/>
<text text-anchor="middle" x="1530" y="-229.8" font-family="Times,serif" font-size="14.00" fill="#000000">PolygonsEditorComponent </text>
</g>
<!-- AngularCesiumWidgetsModule&#45;&gt;PolygonsEditorComponent  -->
<g id="edge12" class="edge">
<title>AngularCesiumWidgetsModule&#45;&gt;PolygonsEditorComponent </title>
<path fill="none" stroke="#000000" stroke-dasharray="5,2" d="M1164.4965,-178C1285.2239,-178 1475.124,-178 1475.124,-178 1475.124,-178 1475.124,-205.973 1475.124,-205.973"/>
<polygon fill="#000000" stroke="#000000" points="1471.624,-205.973 1475.124,-215.973 1478.624,-205.973 1471.624,-205.973"/>
</g>
<!-- CirclesEditorComponent  -->
<g id="node14" class="node">
<title>CirclesEditorComponent </title>
<polygon fill="#fb8072" stroke="#000000" points="1425.9797,-252 1266.0203,-252 1266.0203,-216 1425.9797,-216 1425.9797,-252"/>
<text text-anchor="middle" x="1346" y="-229.8" font-family="Times,serif" font-size="14.00" fill="#000000">CirclesEditorComponent </text>
</g>
<!-- AngularCesiumWidgetsModule&#45;&gt;CirclesEditorComponent  -->
<g id="edge13" class="edge">
<title>AngularCesiumWidgetsModule&#45;&gt;CirclesEditorComponent </title>
<path fill="none" stroke="#000000" stroke-dasharray="5,2" d="M1164.4968,-183C1225.6714,-183 1293.0293,-183 1293.0293,-183 1293.0293,-183 1293.0293,-205.8757 1293.0293,-205.8757"/>
<polygon fill="#000000" stroke="#000000" points="1289.5294,-205.8757 1293.0293,-215.8757 1296.5294,-205.8757 1289.5294,-205.8757"/>
</g>
<!-- PolylinesEditorComponent  -->
<g id="node15" class="node">
<title>PolylinesEditorComponent </title>
<polygon fill="#fb8072" stroke="#000000" points="1247.9404,-252 1076.0596,-252 1076.0596,-216 1247.9404,-216 1247.9404,-252"/>
<text text-anchor="middle" x="1162" y="-229.8" font-family="Times,serif" font-size="14.00" fill="#000000">PolylinesEditorComponent </text>
</g>
<!-- AngularCesiumWidgetsModule&#45;&gt;PolylinesEditorComponent  -->
<g id="edge14" class="edge">
<title>AngularCesiumWidgetsModule&#45;&gt;PolylinesEditorComponent </title>
<path fill="none" stroke="#000000" stroke-dasharray="5,2" d="M1120.2285,-187.1061C1120.2285,-187.1061 1120.2285,-205.991 1120.2285,-205.991"/>
<polygon fill="#000000" stroke="#000000" points="1116.7285,-205.9909 1120.2285,-215.991 1123.7285,-205.991 1116.7285,-205.9909"/>
</g>
<!-- DraggableToMapDirective  -->
<g id="node16" class="node">
<title>DraggableToMapDirective </title>
<polygon fill="#fb8072" stroke="#000000" points="1057.5962,-252 886.4038,-252 886.4038,-216 1057.5962,-216 1057.5962,-252"/>
<text text-anchor="middle" x="972" y="-229.8" font-family="Times,serif" font-size="14.00" fill="#000000">DraggableToMapDirective </text>
</g>
<!-- AngularCesiumWidgetsModule&#45;&gt;DraggableToMapDirective  -->
<g id="edge15" class="edge">
<title>AngularCesiumWidgetsModule&#45;&gt;DraggableToMapDirective </title>
<path fill="none" stroke="#000000" stroke-dasharray="5,2" d="M1013.5605,-187.1061C1013.5605,-187.1061 1013.5605,-205.991 1013.5605,-205.991"/>
<polygon fill="#000000" stroke="#000000" points="1010.0606,-205.9909 1013.5605,-215.991 1017.0606,-205.991 1010.0606,-205.9909"/>
</g>
<!-- AcToolbarComponent  -->
<g id="node17" class="node">
<title>AcToolbarComponent </title>
<polygon fill="#fb8072" stroke="#000000" points="868.9728,-252 723.0272,-252 723.0272,-216 868.9728,-216 868.9728,-252"/>
<text text-anchor="middle" x="796" y="-229.8" font-family="Times,serif" font-size="14.00" fill="#000000">AcToolbarComponent </text>
</g>
<!-- AngularCesiumWidgetsModule&#45;&gt;AcToolbarComponent  -->
<g id="edge16" class="edge">
<title>AngularCesiumWidgetsModule&#45;&gt;AcToolbarComponent </title>
<path fill="none" stroke="#000000" stroke-dasharray="5,2" d="M969.3998,-183C913.5042,-183 854.375,-183 854.375,-183 854.375,-183 854.375,-205.8757 854.375,-205.8757"/>
<polygon fill="#000000" stroke="#000000" points="850.8751,-205.8757 854.375,-215.8757 857.8751,-205.8757 850.8751,-205.8757"/>
</g>
<!-- AcToolbarButtonComponent  -->
<g id="node18" class="node">
<title>AcToolbarButtonComponent </title>
<polygon fill="#fb8072" stroke="#000000" points="704.5903,-252 521.4097,-252 521.4097,-216 704.5903,-216 704.5903,-252"/>
<text text-anchor="middle" x="613" y="-229.8" font-family="Times,serif" font-size="14.00" fill="#000000">AcToolbarButtonComponent </text>
</g>
<!-- AngularCesiumWidgetsModule&#45;&gt;AcToolbarButtonComponent  -->
<g id="edge17" class="edge">
<title>AngularCesiumWidgetsModule&#45;&gt;AcToolbarButtonComponent </title>
<path fill="none" stroke="#000000" stroke-dasharray="5,2" d="M969.4466,-178C852.8761,-178 673.375,-178 673.375,-178 673.375,-178 673.375,-205.973 673.375,-205.973"/>
<polygon fill="#000000" stroke="#000000" points="669.8751,-205.973 673.375,-215.973 676.8751,-205.973 669.8751,-205.973"/>
</g>
<!-- RangeAndBearingComponent  -->
<g id="node19" class="node">
<title>RangeAndBearingComponent </title>
<polygon fill="#fb8072" stroke="#000000" points="503.5218,-252 314.4782,-252 314.4782,-216 503.5218,-216 503.5218,-252"/>
<text text-anchor="middle" x="409" y="-229.8" font-family="Times,serif" font-size="14.00" fill="#000000">RangeAndBearingComponent </text>
</g>
<!-- AngularCesiumWidgetsModule&#45;&gt;RangeAndBearingComponent  -->
<g id="edge18" class="edge">
<title>AngularCesiumWidgetsModule&#45;&gt;RangeAndBearingComponent </title>
<path fill="none" stroke="#000000" stroke-dasharray="5,2" d="M969.5627,-174C800.5433,-174 470.875,-174 470.875,-174 470.875,-174 470.875,-205.998 470.875,-205.998"/>
<polygon fill="#000000" stroke="#000000" points="467.3751,-205.998 470.875,-215.998 474.3751,-205.9981 467.3751,-205.998"/>
</g>
<!-- AngularCesiumModule -->
<g id="node11" class="node">
<title>AngularCesiumModule</title>
<polygon fill="#8dd3c7" stroke="#000000" points="414.1993,-122 411.1993,-126 390.1993,-126 387.1993,-122 265.8007,-122 265.8007,-86 414.1993,-86 414.1993,-122"/>
<text text-anchor="middle" x="340" y="-99.8" font-family="Times,serif" font-size="14.00" fill="#000000">AngularCesiumModule</text>
</g>
<!-- AngularCesiumModule&#45;&gt;AngularCesiumWidgetsModule -->
<g id="edge10" class="edge">
<title>AngularCesiumModule&#45;&gt;AngularCesiumWidgetsModule</title>
<path fill="none" stroke="#000000" d="M364.2944,-122.302C364.2944,-140.2699 364.2944,-165 364.2944,-165 364.2944,-165 959.2918,-165 959.2918,-165"/>
<polygon fill="#000000" stroke="#000000" points="959.2918,-168.5001 969.2918,-165 959.2918,-161.5001 959.2918,-168.5001"/>
</g>
<!-- DraggableToMapService -->
<g id="node20" class="node">
<title>DraggableToMapService</title>
<ellipse fill="#fdb462" stroke="#000000" cx="133" cy="-104" rx="108.769" ry="18"/>
<text text-anchor="middle" x="133" y="-99.8" font-family="Times,serif" font-size="14.00" fill="#000000">DraggableToMapService</text>
</g>
<!-- DraggableToMapService&#45;&gt;AngularCesiumWidgetsModule -->
<g id="edge19" class="edge">
<title>DraggableToMapService&#45;&gt;AngularCesiumWidgetsModule</title>
<path fill="none" stroke="#000000" d="M133,-122.1061C133,-141.3391 133,-169 133,-169 133,-169 959.2503,-169 959.2503,-169"/>
<polygon fill="#000000" stroke="#000000" points="959.2503,-172.5001 969.2503,-169 959.2502,-165.5001 959.2503,-172.5001"/>
</g>
</g>
</svg>
