<?xml version="1.0" encoding="UTF-8" standalone="no"?>
<!DOCTYPE svg PUBLIC "-//W3C//DTD SVG 1.1//EN"
 "http://www.w3.org/Graphics/SVG/1.1/DTD/svg11.dtd">
<!-- Generated by graphviz version 2.40.1 (20161225.0304)
 -->
<!-- Title: dependencies Pages: 1 -->
<svg width="2525pt" height="284pt"
 viewBox="0.00 0.00 2525.00 284.00" xmlns="http://www.w3.org/2000/svg" xmlns:xlink="http://www.w3.org/1999/xlink">
<g id="graph0" class="graph" transform="scale(1 1) rotate(0) translate(4 280)">
<title>dependencies</title>
<polygon fill="#ffffff" stroke="transparent" points="-4,4 -4,-280 2521,-280 2521,4 -4,4"/>
<text text-anchor="start" x="1237.5091" y="-42.4" font-family="sans-serif" font-weight="bold" font-size="14.00" fill="#000000">Legend</text>
<polygon fill="#ffffb3" stroke="transparent" points="1024.5,-10 1024.5,-30 1044.5,-30 1044.5,-10 1024.5,-10"/>
<text text-anchor="start" x="1048.129" y="-15.4" font-family="sans-serif" font-size="14.00" fill="#000000"> &#160;Declarations</text>
<polygon fill="#8dd3c7" stroke="transparent" points="1137.5,-10 1137.5,-30 1157.5,-30 1157.5,-10 1137.5,-10"/>
<text text-anchor="start" x="1161.2251" y="-15.4" font-family="sans-serif" font-size="14.00" fill="#000000"> &#160;Module</text>
<polygon fill="#80b1d3" stroke="transparent" points="1223.5,-10 1223.5,-30 1243.5,-30 1243.5,-10 1223.5,-10"/>
<text text-anchor="start" x="1247.2812" y="-15.4" font-family="sans-serif" font-size="14.00" fill="#000000"> &#160;Bootstrap</text>
<polygon fill="#fdb462" stroke="transparent" points="1320.5,-10 1320.5,-30 1340.5,-30 1340.5,-10 1320.5,-10"/>
<text text-anchor="start" x="1344.1732" y="-15.4" font-family="sans-serif" font-size="14.00" fill="#000000"> &#160;Providers</text>
<polygon fill="#fb8072" stroke="transparent" points="1416.5,-10 1416.5,-30 1436.5,-30 1436.5,-10 1416.5,-10"/>
<text text-anchor="start" x="1440.2258" y="-15.4" font-family="sans-serif" font-size="14.00" fill="#000000"> &#160;Exports</text>
<g id="clust1" class="cluster">
<title>cluster_AngularCesiumWidgetsModule</title>
<polygon fill="none" stroke="#000000" stroke-dasharray="1,5" points="8,-70 8,-268 2509,-268 2509,-70 8,-70"/>
</g>
<g id="clust2" class="cluster">
<title>cluster_AngularCesiumWidgetsModule_declarations</title>
<polygon fill="none" stroke="#000000" points="672,-78 672,-130 2501,-130 2501,-78 672,-78"/>
</g>
<g id="clust13" class="cluster">
<title>cluster_AngularCesiumWidgetsModule_imports</title>
<polygon fill="none" stroke="#000000" points="500,-78 500,-130 664,-130 664,-78 500,-78"/>
</g>
<g id="clust14" class="cluster">
<title>cluster_AngularCesiumWidgetsModule_exports</title>
<polygon fill="none" stroke="#000000" points="453,-208 453,-260 2161,-260 2161,-208 453,-208"/>
</g>
<g id="clust16" class="cluster">
<title>cluster_AngularCesiumWidgetsModule_providers</title>
<polygon fill="none" stroke="#000000" points="16,-78 16,-130 492,-130 492,-78 16,-78"/>
</g>
<!-- HippodromeEditorComponent -->
<g id="node1" class="node">
<title>HippodromeEditorComponent</title>
<polygon fill="#ffffb3" stroke="#000000" points="2492.5898,-122 2305.4102,-122 2305.4102,-86 2492.5898,-86 2492.5898,-122"/>
<text text-anchor="middle" x="2399" y="-99.8" font-family="Times,serif" font-size="14.00" fill="#000000">HippodromeEditorComponent</text>
</g>
<!-- AngularCesiumWidgetsModule -->
<g id="node11" class="node">
<title>AngularCesiumWidgetsModule</title>
<polygon fill="#8dd3c7" stroke="#000000" points="1406.3543,-187 1403.3543,-191 1382.3543,-191 1379.3543,-187 1211.6457,-187 1211.6457,-151 1406.3543,-151 1406.3543,-187"/>
<text text-anchor="middle" x="1309" y="-164.8" font-family="Times,serif" font-size="14.00" fill="#000000">AngularCesiumWidgetsModule</text>
</g>
<!-- HippodromeEditorComponent&#45;&gt;AngularCesiumWidgetsModule -->
<g id="edge1" class="edge">
<title>HippodromeEditorComponent&#45;&gt;AngularCesiumWidgetsModule</title>
<path fill="none" stroke="#000000" d="M2399,-122.308C2399,-142.1455 2399,-171 2399,-171 2399,-171 1416.6895,-171 1416.6895,-171"/>
<polygon fill="#000000" stroke="#000000" points="1416.6895,-167.5001 1406.6895,-171 1416.6895,-174.5001 1416.6895,-167.5001"/>
</g>
<!-- PolygonsEditorComponent -->
<g id="node2" class="node">
<title>PolygonsEditorComponent</title>
<polygon fill="#ffffb3" stroke="#000000" points="2287.4452,-122 2118.5548,-122 2118.5548,-86 2287.4452,-86 2287.4452,-122"/>
<text text-anchor="middle" x="2203" y="-99.8" font-family="Times,serif" font-size="14.00" fill="#000000">PolygonsEditorComponent</text>
</g>
<!-- PolygonsEditorComponent&#45;&gt;AngularCesiumWidgetsModule -->
<g id="edge2" class="edge">
<title>PolygonsEditorComponent&#45;&gt;AngularCesiumWidgetsModule</title>
<path fill="none" stroke="#000000" d="M2136.0363,-122.2222C2136.0363,-140.8285 2136.0363,-167 2136.0363,-167 2136.0363,-167 1416.7113,-167 1416.7113,-167"/>
<polygon fill="#000000" stroke="#000000" points="1416.7113,-163.5001 1406.7113,-167 1416.7112,-170.5001 1416.7113,-163.5001"/>
</g>
<!-- CirclesEditorComponent -->
<g id="node3" class="node">
<title>CirclesEditorComponent</title>
<polygon fill="#ffffb3" stroke="#000000" points="2100.979,-122 1945.021,-122 1945.021,-86 2100.979,-86 2100.979,-122"/>
<text text-anchor="middle" x="2023" y="-99.8" font-family="Times,serif" font-size="14.00" fill="#000000">CirclesEditorComponent</text>
</g>
<!-- CirclesEditorComponent&#45;&gt;AngularCesiumWidgetsModule -->
<g id="edge3" class="edge">
<title>CirclesEditorComponent&#45;&gt;AngularCesiumWidgetsModule</title>
<path fill="none" stroke="#000000" d="M1953.8578,-122.0225C1953.8578,-139.3734 1953.8578,-163 1953.8578,-163 1953.8578,-163 1416.5897,-163 1416.5897,-163"/>
<polygon fill="#000000" stroke="#000000" points="1416.5898,-159.5001 1406.5897,-163 1416.5897,-166.5001 1416.5898,-159.5001"/>
</g>
<!-- EllipsesEditorComponent -->
<g id="node4" class="node">
<title>EllipsesEditorComponent</title>
<polygon fill="#ffffb3" stroke="#000000" points="1927.1554,-122 1766.8446,-122 1766.8446,-86 1927.1554,-86 1927.1554,-122"/>
<text text-anchor="middle" x="1847" y="-99.8" font-family="Times,serif" font-size="14.00" fill="#000000">EllipsesEditorComponent</text>
</g>
<!-- EllipsesEditorComponent&#45;&gt;AngularCesiumWidgetsModule -->
<g id="edge4" class="edge">
<title>EllipsesEditorComponent&#45;&gt;AngularCesiumWidgetsModule</title>
<path fill="none" stroke="#000000" d="M1875.8942,-122.0091C1875.8942,-138.0494 1875.8942,-159 1875.8942,-159 1875.8942,-159 1416.4526,-159 1416.4526,-159"/>
<polygon fill="#000000" stroke="#000000" points="1416.4526,-155.5001 1406.4526,-159 1416.4526,-162.5001 1416.4526,-155.5001"/>
</g>
<!-- PolylinesEditorComponent -->
<g id="node5" class="node">
<title>PolylinesEditorComponent</title>
<polygon fill="#ffffb3" stroke="#000000" points="1748.441,-122 1579.559,-122 1579.559,-86 1748.441,-86 1748.441,-122"/>
<text text-anchor="middle" x="1664" y="-99.8" font-family="Times,serif" font-size="14.00" fill="#000000">PolylinesEditorComponent</text>
</g>
<!-- PolylinesEditorComponent&#45;&gt;AngularCesiumWidgetsModule -->
<g id="edge5" class="edge">
<title>PolylinesEditorComponent&#45;&gt;AngularCesiumWidgetsModule</title>
<path fill="none" stroke="#000000" d="M1587.5202,-122.1243C1587.5202,-136.7832 1587.5202,-155 1587.5202,-155 1587.5202,-155 1416.4128,-155 1416.4128,-155"/>
<polygon fill="#000000" stroke="#000000" points="1416.4129,-151.5001 1406.4128,-155 1416.4128,-158.5001 1416.4129,-151.5001"/>
</g>
<!-- DraggableToMapDirective -->
<g id="node6" class="node">
<title>DraggableToMapDirective</title>
<polygon fill="#ffffb3" stroke="#000000" points="1561.5967,-122 1394.4033,-122 1394.4033,-86 1561.5967,-86 1561.5967,-122"/>
<text text-anchor="middle" x="1478" y="-99.8" font-family="Times,serif" font-size="14.00" fill="#000000">DraggableToMapDirective</text>
</g>
<!-- DraggableToMapDirective&#45;&gt;AngularCesiumWidgetsModule -->
<g id="edge6" class="edge">
<title>DraggableToMapDirective&#45;&gt;AngularCesiumWidgetsModule</title>
<path fill="none" stroke="#000000" d="M1400.3145,-122.1061C1400.3145,-122.1061 1400.3145,-140.991 1400.3145,-140.991"/>
<polygon fill="#000000" stroke="#000000" points="1396.8146,-140.9909 1400.3145,-150.991 1403.8146,-140.991 1396.8146,-140.9909"/>
</g>
<!-- DragIconComponent -->
<g id="node7" class="node">
<title>DragIconComponent</title>
<polygon fill="#ffffb3" stroke="#000000" points="1376.1895,-122 1241.8105,-122 1241.8105,-86 1376.1895,-86 1376.1895,-122"/>
<text text-anchor="middle" x="1309" y="-99.8" font-family="Times,serif" font-size="14.00" fill="#000000">DragIconComponent</text>
</g>
<!-- DragIconComponent&#45;&gt;AngularCesiumWidgetsModule -->
<g id="edge7" class="edge">
<title>DragIconComponent&#45;&gt;AngularCesiumWidgetsModule</title>
<path fill="none" stroke="#000000" d="M1309,-122.1061C1309,-122.1061 1309,-140.991 1309,-140.991"/>
<polygon fill="#000000" stroke="#000000" points="1305.5001,-140.9909 1309,-150.991 1312.5001,-140.991 1305.5001,-140.9909"/>
</g>
<!-- AcToolbarComponent -->
<g id="node8" class="node">
<title>AcToolbarComponent</title>
<polygon fill="#ffffb3" stroke="#000000" points="1223.972,-122 1082.028,-122 1082.028,-86 1223.972,-86 1223.972,-122"/>
<text text-anchor="middle" x="1153" y="-99.8" font-family="Times,serif" font-size="14.00" fill="#000000">AcToolbarComponent</text>
</g>
<!-- AcToolbarComponent&#45;&gt;AngularCesiumWidgetsModule -->
<g id="edge8" class="edge">
<title>AcToolbarComponent&#45;&gt;AngularCesiumWidgetsModule</title>
<path fill="none" stroke="#000000" d="M1217.7795,-122.1061C1217.7795,-122.1061 1217.7795,-140.991 1217.7795,-140.991"/>
<polygon fill="#000000" stroke="#000000" points="1214.2795,-140.9909 1217.7795,-150.991 1221.2795,-140.991 1214.2795,-140.9909"/>
</g>
<!-- AcToolbarButtonComponent -->
<g id="node9" class="node">
<title>AcToolbarButtonComponent</title>
<polygon fill="#ffffb3" stroke="#000000" points="1064.0898,-122 883.9102,-122 883.9102,-86 1064.0898,-86 1064.0898,-122"/>
<text text-anchor="middle" x="974" y="-99.8" font-family="Times,serif" font-size="14.00" fill="#000000">AcToolbarButtonComponent</text>
</g>
<!-- AcToolbarButtonComponent&#45;&gt;AngularCesiumWidgetsModule -->
<g id="edge9" class="edge">
<title>AcToolbarButtonComponent&#45;&gt;AngularCesiumWidgetsModule</title>
<path fill="none" stroke="#000000" d="M1048.7484,-122.1243C1048.7484,-136.7832 1048.7484,-155 1048.7484,-155 1048.7484,-155 1201.3515,-155 1201.3515,-155"/>
<polygon fill="#000000" stroke="#000000" points="1201.3515,-158.5001 1211.3515,-155 1201.3514,-151.5001 1201.3515,-158.5001"/>
</g>
<!-- RangeAndBearingComponent -->
<g id="node10" class="node">
<title>RangeAndBearingComponent</title>
<polygon fill="#ffffb3" stroke="#000000" points="865.5224,-122 680.4776,-122 680.4776,-86 865.5224,-86 865.5224,-122"/>
<text text-anchor="middle" x="773" y="-99.8" font-family="Times,serif" font-size="14.00" fill="#000000">RangeAndBearingComponent</text>
</g>
<!-- RangeAndBearingComponent&#45;&gt;AngularCesiumWidgetsModule -->
<g id="edge10" class="edge">
<title>RangeAndBearingComponent&#45;&gt;AngularCesiumWidgetsModule</title>
<path fill="none" stroke="#000000" d="M858.7779,-122.0091C858.7779,-138.0494 858.7779,-159 858.7779,-159 858.7779,-159 1201.5858,-159 1201.5858,-159"/>
<polygon fill="#000000" stroke="#000000" points="1201.5858,-162.5001 1211.5858,-159 1201.5857,-155.5001 1201.5858,-162.5001"/>
</g>
<!-- HippodromeEditorComponent  -->
<g id="node13" class="node">
<title>HippodromeEditorComponent </title>
<polygon fill="#fb8072" stroke="#000000" points="2153.0902,-252 1962.9098,-252 1962.9098,-216 2153.0902,-216 2153.0902,-252"/>
<text text-anchor="middle" x="2058" y="-229.8" font-family="Times,serif" font-size="14.00" fill="#000000">HippodromeEditorComponent </text>
</g>
<!-- AngularCesiumWidgetsModule&#45;&gt;HippodromeEditorComponent  -->
<g id="edge12" class="edge">
<title>AngularCesiumWidgetsModule&#45;&gt;HippodromeEditorComponent </title>
<path fill="none" stroke="#000000" stroke-dasharray="5,2" d="M1406.4864,-175C1603.7928,-175 2031.8473,-175 2031.8473,-175 2031.8473,-175 2031.8473,-205.9775 2031.8473,-205.9775"/>
<polygon fill="#000000" stroke="#000000" points="2028.3474,-205.9774 2031.8473,-215.9775 2035.3474,-205.9775 2028.3474,-205.9774"/>
</g>
<!-- PolygonsEditorComponent  -->
<g id="node14" class="node">
<title>PolygonsEditorComponent </title>
<polygon fill="#fb8072" stroke="#000000" points="1944.9446,-252 1773.0554,-252 1773.0554,-216 1944.9446,-216 1944.9446,-252"/>
<text text-anchor="middle" x="1859" y="-229.8" font-family="Times,serif" font-size="14.00" fill="#000000">PolygonsEditorComponent </text>
</g>
<!-- AngularCesiumWidgetsModule&#45;&gt;PolygonsEditorComponent  -->
<g id="edge13" class="edge">
<title>AngularCesiumWidgetsModule&#45;&gt;PolygonsEditorComponent </title>
<path fill="none" stroke="#000000" stroke-dasharray="5,2" d="M1406.5603,-179C1555.9978,-179 1824.461,-179 1824.461,-179 1824.461,-179 1824.461,-205.9909 1824.461,-205.9909"/>
<polygon fill="#000000" stroke="#000000" points="1820.9611,-205.9909 1824.461,-215.9909 1827.9611,-205.991 1820.9611,-205.9909"/>
</g>
<!-- CirclesEditorComponent  -->
<g id="node15" class="node">
<title>CirclesEditorComponent </title>
<polygon fill="#fb8072" stroke="#000000" points="1754.9797,-252 1595.0203,-252 1595.0203,-216 1754.9797,-216 1754.9797,-252"/>
<text text-anchor="middle" x="1675" y="-229.8" font-family="Times,serif" font-size="14.00" fill="#000000">CirclesEditorComponent </text>
</g>
<!-- AngularCesiumWidgetsModule&#45;&gt;CirclesEditorComponent  -->
<g id="edge14" class="edge">
<title>AngularCesiumWidgetsModule&#45;&gt;CirclesEditorComponent </title>
<path fill="none" stroke="#000000" stroke-dasharray="5,2" d="M1406.6849,-183C1514.1232,-183 1671.7404,-183 1671.7404,-183 1671.7404,-183 1671.7404,-205.8757 1671.7404,-205.8757"/>
<polygon fill="#000000" stroke="#000000" points="1668.2404,-205.8757 1671.7404,-215.8757 1675.2404,-205.8757 1668.2404,-205.8757"/>
</g>
<!-- EllipsesEditorComponent  -->
<g id="node16" class="node">
<title>EllipsesEditorComponent </title>
<polygon fill="#fb8072" stroke="#000000" points="1577.1551,-252 1412.8449,-252 1412.8449,-216 1577.1551,-216 1577.1551,-252"/>
<text text-anchor="middle" x="1495" y="-229.8" font-family="Times,serif" font-size="14.00" fill="#000000">EllipsesEditorComponent </text>
</g>
<!-- AngularCesiumWidgetsModule&#45;&gt;EllipsesEditorComponent  -->
<g id="edge15" class="edge">
<title>AngularCesiumWidgetsModule&#45;&gt;EllipsesEditorComponent </title>
<path fill="none" stroke="#000000" stroke-dasharray="5,2" d="M1400.6986,-187.1061C1400.6986,-206.3391 1400.6986,-234 1400.6986,-234 1400.6986,-234 1402.642,-234 1402.642,-234"/>
<polygon fill="#000000" stroke="#000000" points="1402.642,-237.5001 1412.642,-234 1402.6419,-230.5001 1402.642,-237.5001"/>
</g>
<!-- PolylinesEditorComponent  -->
<g id="node17" class="node">
<title>PolylinesEditorComponent </title>
<polygon fill="#fb8072" stroke="#000000" points="1394.9404,-252 1223.0596,-252 1223.0596,-216 1394.9404,-216 1394.9404,-252"/>
<text text-anchor="middle" x="1309" y="-229.8" font-family="Times,serif" font-size="14.00" fill="#000000">PolylinesEditorComponent </text>
</g>
<!-- AngularCesiumWidgetsModule&#45;&gt;PolylinesEditorComponent  -->
<g id="edge16" class="edge">
<title>AngularCesiumWidgetsModule&#45;&gt;PolylinesEditorComponent </title>
<path fill="none" stroke="#000000" stroke-dasharray="5,2" d="M1309,-187.1061C1309,-187.1061 1309,-205.991 1309,-205.991"/>
<polygon fill="#000000" stroke="#000000" points="1305.5001,-205.9909 1309,-215.991 1312.5001,-205.991 1305.5001,-205.9909"/>
</g>
<!-- DraggableToMapDirective  -->
<g id="node18" class="node">
<title>DraggableToMapDirective </title>
<polygon fill="#fb8072" stroke="#000000" points="1204.5962,-252 1033.4038,-252 1033.4038,-216 1204.5962,-216 1204.5962,-252"/>
<text text-anchor="middle" x="1119" y="-229.8" font-family="Times,serif" font-size="14.00" fill="#000000">DraggableToMapDirective </text>
</g>
<!-- AngularCesiumWidgetsModule&#45;&gt;DraggableToMapDirective  -->
<g id="edge17" class="edge">
<title>AngularCesiumWidgetsModule&#45;&gt;DraggableToMapDirective </title>
<path fill="none" stroke="#000000" stroke-dasharray="5,2" d="M1217.3014,-187.1061C1217.3014,-206.3391 1217.3014,-234 1217.3014,-234 1217.3014,-234 1214.8514,-234 1214.8514,-234"/>
<polygon fill="#000000" stroke="#000000" points="1214.8515,-230.5001 1204.8514,-234 1214.8514,-237.5001 1214.8515,-230.5001"/>
</g>
<!-- AcToolbarComponent  -->
<g id="node19" class="node">
<title>AcToolbarComponent </title>
<polygon fill="#fb8072" stroke="#000000" points="1015.9728,-252 870.0272,-252 870.0272,-216 1015.9728,-216 1015.9728,-252"/>
<text text-anchor="middle" x="943" y="-229.8" font-family="Times,serif" font-size="14.00" fill="#000000">AcToolbarComponent </text>
</g>
<!-- AngularCesiumWidgetsModule&#45;&gt;AcToolbarComponent  -->
<g id="edge18" class="edge">
<title>AngularCesiumWidgetsModule&#45;&gt;AcToolbarComponent </title>
<path fill="none" stroke="#000000" stroke-dasharray="5,2" d="M1211.3339,-183C1104.9811,-183 949.8456,-183 949.8456,-183 949.8456,-183 949.8456,-205.8757 949.8456,-205.8757"/>
<polygon fill="#000000" stroke="#000000" points="946.3456,-205.8757 949.8456,-215.8757 953.3456,-205.8757 946.3456,-205.8757"/>
</g>
<!-- AcToolbarButtonComponent  -->
<g id="node20" class="node">
<title>AcToolbarButtonComponent </title>
<polygon fill="#fb8072" stroke="#000000" points="851.5903,-252 668.4097,-252 668.4097,-216 851.5903,-216 851.5903,-252"/>
<text text-anchor="middle" x="760" y="-229.8" font-family="Times,serif" font-size="14.00" fill="#000000">AcToolbarButtonComponent </text>
</g>
<!-- AngularCesiumWidgetsModule&#45;&gt;AcToolbarButtonComponent  -->
<g id="edge19" class="edge">
<title>AngularCesiumWidgetsModule&#45;&gt;AcToolbarButtonComponent </title>
<path fill="none" stroke="#000000" stroke-dasharray="5,2" d="M1211.6121,-179C1055.3572,-179 766.017,-179 766.017,-179 766.017,-179 766.017,-205.9909 766.017,-205.9909"/>
<polygon fill="#000000" stroke="#000000" points="762.5171,-205.9909 766.017,-215.9909 769.5171,-205.991 762.5171,-205.9909"/>
</g>
<!-- RangeAndBearingComponent  -->
<g id="node21" class="node">
<title>RangeAndBearingComponent </title>
<polygon fill="#fb8072" stroke="#000000" points="650.5218,-252 461.4782,-252 461.4782,-216 650.5218,-216 650.5218,-252"/>
<text text-anchor="middle" x="556" y="-229.8" font-family="Times,serif" font-size="14.00" fill="#000000">RangeAndBearingComponent </text>
</g>
<!-- AngularCesiumWidgetsModule&#45;&gt;RangeAndBearingComponent  -->
<g id="edge20" class="edge">
<title>AngularCesiumWidgetsModule&#45;&gt;RangeAndBearingComponent </title>
<path fill="none" stroke="#000000" stroke-dasharray="5,2" d="M1211.6428,-175C1007.9318,-175 555.4372,-175 555.4372,-175 555.4372,-175 555.4372,-205.9775 555.4372,-205.9775"/>
<polygon fill="#000000" stroke="#000000" points="551.9373,-205.9774 555.4372,-215.9775 558.9373,-205.9775 551.9373,-205.9774"/>
</g>
<!-- AngularCesiumModule -->
<g id="node12" class="node">
<title>AngularCesiumModule</title>
<polygon fill="#8dd3c7" stroke="#000000" points="656.1993,-122 653.1993,-126 632.1993,-126 629.1993,-122 507.8007,-122 507.8007,-86 656.1993,-86 656.1993,-122"/>
<text text-anchor="middle" x="582" y="-99.8" font-family="Times,serif" font-size="14.00" fill="#000000">AngularCesiumModule</text>
</g>
<!-- AngularCesiumModule&#45;&gt;AngularCesiumWidgetsModule -->
<g id="edge11" class="edge">
<title>AngularCesiumModule&#45;&gt;AngularCesiumWidgetsModule</title>
<path fill="none" stroke="#000000" d="M602.9741,-122.0225C602.9741,-139.3734 602.9741,-163 602.9741,-163 602.9741,-163 1201.5714,-163 1201.5714,-163"/>
<polygon fill="#000000" stroke="#000000" points="1201.5714,-166.5001 1211.5714,-163 1201.5713,-159.5001 1201.5714,-166.5001"/>
</g>
<!-- DraggableToMapService -->
<g id="node22" class="node">
<title>DraggableToMapService</title>
<ellipse fill="#fdb462" stroke="#000000" cx="375" cy="-104" rx="108.769" ry="18"/>
<text text-anchor="middle" x="375" y="-99.8" font-family="Times,serif" font-size="14.00" fill="#000000">DraggableToMapService</text>
</g>
<!-- DraggableToMapService&#45;&gt;AngularCesiumWidgetsModule -->
<g id="edge21" class="edge">
<title>DraggableToMapService&#45;&gt;AngularCesiumWidgetsModule</title>
<path fill="none" stroke="#000000" d="M472.5618,-111.979C472.5618,-128.9314 472.5618,-167 472.5618,-167 472.5618,-167 1201.4129,-167 1201.4129,-167"/>
<polygon fill="#000000" stroke="#000000" points="1201.4129,-170.5001 1211.4129,-167 1201.4129,-163.5001 1201.4129,-170.5001"/>
</g>
<!-- ZoomToRectangleService -->
<g id="node23" class="node">
<title>ZoomToRectangleService</title>
<ellipse fill="#fdb462" stroke="#000000" cx="136" cy="-104" rx="112.2994" ry="18"/>
<text text-anchor="middle" x="136" y="-99.8" font-family="Times,serif" font-size="14.00" fill="#000000">ZoomToRectangleService</text>
</g>
<!-- ZoomToRectangleService&#45;&gt;AngularCesiumWidgetsModule -->
<g id="edge22" class="edge">
<title>ZoomToRectangleService&#45;&gt;AngularCesiumWidgetsModule</title>
<path fill="none" stroke="#000000" d="M136,-122.308C136,-142.1455 136,-171 136,-171 136,-171 1201.5099,-171 1201.5099,-171"/>
<polygon fill="#000000" stroke="#000000" points="1201.51,-174.5001 1211.5099,-171 1201.5099,-167.5001 1201.51,-174.5001"/>
</g>
</g>
</svg>
