<?xml version="1.0" encoding="UTF-8" standalone="no"?>
<!DOCTYPE svg PUBLIC "-//W3C//DTD SVG 1.1//EN"
 "http://www.w3.org/Graphics/SVG/1.1/DTD/svg11.dtd">
<!-- Generated by graphviz version 2.40.1 (20161225.0304)
 -->
<!-- Title: dependencies Pages: 1 -->
<svg width="4167pt" height="284pt"
 viewBox="0.00 0.00 4167.00 284.00" xmlns="http://www.w3.org/2000/svg" xmlns:xlink="http://www.w3.org/1999/xlink">
<g id="graph0" class="graph" transform="scale(1 1) rotate(0) translate(4 280)">
<title>dependencies</title>
<polygon fill="#ffffff" stroke="transparent" points="-4,4 -4,-280 4163,-280 4163,4 -4,4"/>
<text text-anchor="start" x="2058.5091" y="-42.4" font-family="sans-serif" font-weight="bold" font-size="14.00" fill="#000000">Legend</text>
<polygon fill="#ffffb3" stroke="transparent" points="1845.5,-10 1845.5,-30 1865.5,-30 1865.5,-10 1845.5,-10"/>
<text text-anchor="start" x="1869.129" y="-15.4" font-family="sans-serif" font-size="14.00" fill="#000000"> &#160;Declarations</text>
<polygon fill="#8dd3c7" stroke="transparent" points="1958.5,-10 1958.5,-30 1978.5,-30 1978.5,-10 1958.5,-10"/>
<text text-anchor="start" x="1982.2251" y="-15.4" font-family="sans-serif" font-size="14.00" fill="#000000"> &#160;Module</text>
<polygon fill="#80b1d3" stroke="transparent" points="2044.5,-10 2044.5,-30 2064.5,-30 2064.5,-10 2044.5,-10"/>
<text text-anchor="start" x="2068.2812" y="-15.4" font-family="sans-serif" font-size="14.00" fill="#000000"> &#160;Bootstrap</text>
<polygon fill="#fdb462" stroke="transparent" points="2141.5,-10 2141.5,-30 2161.5,-30 2161.5,-10 2141.5,-10"/>
<text text-anchor="start" x="2165.1732" y="-15.4" font-family="sans-serif" font-size="14.00" fill="#000000"> &#160;Providers</text>
<polygon fill="#fb8072" stroke="transparent" points="2237.5,-10 2237.5,-30 2257.5,-30 2257.5,-10 2237.5,-10"/>
<text text-anchor="start" x="2261.2258" y="-15.4" font-family="sans-serif" font-size="14.00" fill="#000000"> &#160;Exports</text>
<g id="clust1" class="cluster">
<title>cluster_AngularCesiumModule</title>
<polygon fill="none" stroke="#000000" stroke-dasharray="1,5" points="8,-70 8,-268 4151,-268 4151,-70 8,-70"/>
</g>
<g id="clust2" class="cluster">
<title>cluster_AngularCesiumModule_declarations</title>
<polygon fill="none" stroke="#000000" points="1059,-78 1059,-130 4143,-130 4143,-78 1059,-78"/>
</g>
<g id="clust19" class="cluster">
<title>cluster_AngularCesiumModule_imports</title>
<polygon fill="none" stroke="#000000" points="658,-78 658,-130 1051,-130 1051,-78 658,-78"/>
</g>
<g id="clust20" class="cluster">
<title>cluster_AngularCesiumModule_exports</title>
<polygon fill="none" stroke="#000000" points="449,-208 449,-260 3462,-260 3462,-208 449,-208"/>
</g>
<g id="clust22" class="cluster">
<title>cluster_AngularCesiumModule_providers</title>
<polygon fill="none" stroke="#000000" points="16,-78 16,-130 650,-130 650,-78 16,-78"/>
</g>
<!-- AcMapComponent -->
<g id="node1" class="node">
<title>AcMapComponent</title>
<polygon fill="#ffffb3" stroke="#000000" points="4134.8132,-122 4011.1868,-122 4011.1868,-86 4134.8132,-86 4134.8132,-122"/>
<text text-anchor="middle" x="4073" y="-99.8" font-family="Times,serif" font-size="14.00" fill="#000000">AcMapComponent</text>
</g>
<!-- AngularCesiumModule -->
<g id="node17" class="node">
<title>AngularCesiumModule</title>
<polygon fill="#8dd3c7" stroke="#000000" points="2029.1993,-187 2026.1993,-191 2005.1993,-191 2002.1993,-187 1880.8007,-187 1880.8007,-151 2029.1993,-151 2029.1993,-187"/>
<text text-anchor="middle" x="1955" y="-164.8" font-family="Times,serif" font-size="14.00" fill="#000000">AngularCesiumModule</text>
</g>
<!-- AcMapComponent&#45;&gt;AngularCesiumModule -->
<g id="edge1" class="edge">
<title>AcMapComponent&#45;&gt;AngularCesiumModule</title>
<path fill="none" stroke="#000000" d="M4073,-122.2228C4073,-142.3652 4073,-172 4073,-172 4073,-172 2039.1388,-172 2039.1388,-172"/>
<polygon fill="#000000" stroke="#000000" points="2039.1389,-168.5001 2029.1388,-172 2039.1388,-175.5001 2039.1389,-168.5001"/>
</g>
<!-- AcLayerComponent -->
<g id="node2" class="node">
<title>AcLayerComponent</title>
<polygon fill="#ffffb3" stroke="#000000" points="3993.2963,-122 3862.7037,-122 3862.7037,-86 3993.2963,-86 3993.2963,-122"/>
<text text-anchor="middle" x="3928" y="-99.8" font-family="Times,serif" font-size="14.00" fill="#000000">AcLayerComponent</text>
</g>
<!-- AcLayerComponent&#45;&gt;AngularCesiumModule -->
<g id="edge2" class="edge">
<title>AcLayerComponent&#45;&gt;AngularCesiumModule</title>
<path fill="none" stroke="#000000" d="M3928,-122.0348C3928,-141.5762 3928,-170 3928,-170 3928,-170 2039.3378,-170 2039.3378,-170"/>
<polygon fill="#000000" stroke="#000000" points="2039.3378,-166.5001 2029.3378,-170 2039.3377,-173.5001 2039.3378,-166.5001"/>
</g>
<!-- AcBillboardComponent -->
<g id="node3" class="node">
<title>AcBillboardComponent</title>
<polygon fill="#ffffb3" stroke="#000000" points="3845.0379,-122 3694.9621,-122 3694.9621,-86 3845.0379,-86 3845.0379,-122"/>
<text text-anchor="middle" x="3770" y="-99.8" font-family="Times,serif" font-size="14.00" fill="#000000">AcBillboardComponent</text>
</g>
<!-- AcBillboardComponent&#45;&gt;AngularCesiumModule -->
<g id="edge3" class="edge">
<title>AcBillboardComponent&#45;&gt;AngularCesiumModule</title>
<path fill="none" stroke="#000000" d="M3770,-122.1061C3770,-141.3391 3770,-169 3770,-169 3770,-169 2039.2492,-169 2039.2492,-169"/>
<polygon fill="#000000" stroke="#000000" points="2039.2492,-165.5001 2029.2492,-169 2039.2492,-172.5001 2039.2492,-165.5001"/>
</g>
<!-- AcBillboardDescComponent -->
<g id="node4" class="node">
<title>AcBillboardDescComponent</title>
<polygon fill="#ffffb3" stroke="#000000" points="3676.0183,-122 3497.9817,-122 3497.9817,-86 3676.0183,-86 3676.0183,-122"/>
<text text-anchor="middle" x="3587" y="-99.8" font-family="Times,serif" font-size="14.00" fill="#000000">AcBillboardDescComponent</text>
</g>
<!-- AcBillboardDescComponent&#45;&gt;AngularCesiumModule -->
<g id="edge4" class="edge">
<title>AcBillboardDescComponent&#45;&gt;AngularCesiumModule</title>
<path fill="none" stroke="#000000" d="M3587,-122.2222C3587,-140.8285 3587,-167 3587,-167 3587,-167 2039.3644,-167 2039.3644,-167"/>
<polygon fill="#000000" stroke="#000000" points="2039.3645,-163.5001 2029.3644,-167 2039.3644,-170.5001 2039.3645,-163.5001"/>
</g>
<!-- AcLabelDescComponent -->
<g id="node5" class="node">
<title>AcLabelDescComponent</title>
<polygon fill="#ffffb3" stroke="#000000" points="3479.5072,-122 3322.4928,-122 3322.4928,-86 3479.5072,-86 3479.5072,-122"/>
<text text-anchor="middle" x="3401" y="-99.8" font-family="Times,serif" font-size="14.00" fill="#000000">AcLabelDescComponent</text>
</g>
<!-- AcLabelDescComponent&#45;&gt;AngularCesiumModule -->
<g id="edge5" class="edge">
<title>AcLabelDescComponent&#45;&gt;AngularCesiumModule</title>
<path fill="none" stroke="#000000" d="M3369.8645,-122.302C3369.8645,-140.2699 3369.8645,-165 3369.8645,-165 3369.8645,-165 2039.573,-165 2039.573,-165"/>
<polygon fill="#000000" stroke="#000000" points="2039.573,-161.5001 2029.573,-165 2039.573,-168.5001 2039.573,-161.5001"/>
</g>
<!-- AcStaticEllipseDescComponent -->
<g id="node6" class="node">
<title>AcStaticEllipseDescComponent</title>
<polygon fill="#ffffb3" stroke="#000000" points="3304.4016,-122 3107.5984,-122 3107.5984,-86 3304.4016,-86 3304.4016,-122"/>
<text text-anchor="middle" x="3206" y="-99.8" font-family="Times,serif" font-size="14.00" fill="#000000">AcStaticEllipseDescComponent</text>
</g>
<!-- AcStaticEllipseDescComponent&#45;&gt;AngularCesiumModule -->
<g id="edge6" class="edge">
<title>AcStaticEllipseDescComponent&#45;&gt;AngularCesiumModule</title>
<path fill="none" stroke="#000000" d="M3122.9041,-122.0225C3122.9041,-139.3734 3122.9041,-163 3122.9041,-163 3122.9041,-163 2039.3884,-163 2039.3884,-163"/>
<polygon fill="#000000" stroke="#000000" points="2039.3884,-159.5001 2029.3884,-163 2039.3884,-166.5001 2039.3884,-159.5001"/>
</g>
<!-- AcDynamicEllipseDescComponent -->
<g id="node7" class="node">
<title>AcDynamicEllipseDescComponent</title>
<polygon fill="#ffffb3" stroke="#000000" points="3089.8347,-122 2874.1653,-122 2874.1653,-86 3089.8347,-86 3089.8347,-122"/>
<text text-anchor="middle" x="2982" y="-99.8" font-family="Times,serif" font-size="14.00" fill="#000000">AcDynamicEllipseDescComponent</text>
</g>
<!-- AcDynamicEllipseDescComponent&#45;&gt;AngularCesiumModule -->
<g id="edge7" class="edge">
<title>AcDynamicEllipseDescComponent&#45;&gt;AngularCesiumModule</title>
<path fill="none" stroke="#000000" d="M2905.793,-122.0352C2905.793,-138.7344 2905.793,-161 2905.793,-161 2905.793,-161 2039.2111,-161 2039.2111,-161"/>
<polygon fill="#000000" stroke="#000000" points="2039.2111,-157.5001 2029.2111,-161 2039.2111,-164.5001 2039.2111,-157.5001"/>
</g>
<!-- AcDynamicPolylineDescComponent -->
<g id="node8" class="node">
<title>AcDynamicPolylineDescComponent</title>
<polygon fill="#ffffb3" stroke="#000000" points="2855.6203,-122 2632.3797,-122 2632.3797,-86 2855.6203,-86 2855.6203,-122"/>
<text text-anchor="middle" x="2744" y="-99.8" font-family="Times,serif" font-size="14.00" fill="#000000">AcDynamicPolylineDescComponent</text>
</g>
<!-- AcDynamicPolylineDescComponent&#45;&gt;AngularCesiumModule -->
<g id="edge8" class="edge">
<title>AcDynamicPolylineDescComponent&#45;&gt;AngularCesiumModule</title>
<path fill="none" stroke="#000000" d="M2695.5703,-122.0091C2695.5703,-138.0494 2695.5703,-159 2695.5703,-159 2695.5703,-159 2039.3995,-159 2039.3995,-159"/>
<polygon fill="#000000" stroke="#000000" points="2039.3995,-155.5001 2029.3995,-159 2039.3994,-162.5001 2039.3995,-155.5001"/>
</g>
<!-- AcStaticPolygonDescComponent -->
<g id="node9" class="node">
<title>AcStaticPolygonDescComponent</title>
<polygon fill="#ffffb3" stroke="#000000" points="2614.1909,-122 2409.8091,-122 2409.8091,-86 2614.1909,-86 2614.1909,-122"/>
<text text-anchor="middle" x="2512" y="-99.8" font-family="Times,serif" font-size="14.00" fill="#000000">AcStaticPolygonDescComponent</text>
</g>
<!-- AcStaticPolygonDescComponent&#45;&gt;AngularCesiumModule -->
<g id="edge9" class="edge">
<title>AcStaticPolygonDescComponent&#45;&gt;AngularCesiumModule</title>
<path fill="none" stroke="#000000" d="M2475.286,-122.2396C2475.286,-137.5706 2475.286,-157 2475.286,-157 2475.286,-157 2039.2678,-157 2039.2678,-157"/>
<polygon fill="#000000" stroke="#000000" points="2039.2679,-153.5001 2029.2678,-157 2039.2678,-160.5001 2039.2679,-153.5001"/>
</g>
<!-- PixelOffsetPipe -->
<g id="node10" class="node">
<title>PixelOffsetPipe</title>
<polygon fill="#ffffb3" stroke="#000000" points="2392.1444,-122 2287.8556,-122 2287.8556,-86 2392.1444,-86 2392.1444,-122"/>
<text text-anchor="middle" x="2340" y="-99.8" font-family="Times,serif" font-size="14.00" fill="#000000">PixelOffsetPipe</text>
</g>
<!-- PixelOffsetPipe&#45;&gt;AngularCesiumModule -->
<g id="edge10" class="edge">
<title>PixelOffsetPipe&#45;&gt;AngularCesiumModule</title>
<path fill="none" stroke="#000000" d="M2295.6191,-122.1243C2295.6191,-136.7832 2295.6191,-155 2295.6191,-155 2295.6191,-155 2039.3294,-155 2039.3294,-155"/>
<polygon fill="#000000" stroke="#000000" points="2039.3294,-151.5001 2029.3294,-155 2039.3294,-158.5001 2039.3294,-151.5001"/>
</g>
<!-- AcStaticCircleDescComponent -->
<g id="node11" class="node">
<title>AcStaticCircleDescComponent</title>
<polygon fill="#ffffb3" stroke="#000000" points="2269.7254,-122 2078.2746,-122 2078.2746,-86 2269.7254,-86 2269.7254,-122"/>
<text text-anchor="middle" x="2174" y="-99.8" font-family="Times,serif" font-size="14.00" fill="#000000">AcStaticCircleDescComponent</text>
</g>
<!-- AcStaticCircleDescComponent&#45;&gt;AngularCesiumModule -->
<g id="edge11" class="edge">
<title>AcStaticCircleDescComponent&#45;&gt;AngularCesiumModule</title>
<path fill="none" stroke="#000000" d="M2205.9542,-122.2458C2205.9542,-136.1772 2205.9542,-153 2205.9542,-153 2205.9542,-153 2039.2759,-153 2039.2759,-153"/>
<polygon fill="#000000" stroke="#000000" points="2039.276,-149.5001 2029.2759,-153 2039.2759,-156.5001 2039.276,-149.5001"/>
</g>
<!-- AcDynamicCircleDescComponent -->
<g id="node12" class="node">
<title>AcDynamicCircleDescComponent</title>
<polygon fill="#ffffb3" stroke="#000000" points="2060.6587,-122 1849.3413,-122 1849.3413,-86 2060.6587,-86 2060.6587,-122"/>
<text text-anchor="middle" x="1955" y="-99.8" font-family="Times,serif" font-size="14.00" fill="#000000">AcDynamicCircleDescComponent</text>
</g>
<!-- AcDynamicCircleDescComponent&#45;&gt;AngularCesiumModule -->
<g id="edge12" class="edge">
<title>AcDynamicCircleDescComponent&#45;&gt;AngularCesiumModule</title>
<path fill="none" stroke="#000000" d="M1955,-122.1061C1955,-122.1061 1955,-140.991 1955,-140.991"/>
<polygon fill="#000000" stroke="#000000" points="1951.5001,-140.9909 1955,-150.991 1958.5001,-140.991 1951.5001,-140.9909"/>
</g>
<!-- AcStaticPolylineDescComponent -->
<g id="node13" class="node">
<title>AcStaticPolylineDescComponent</title>
<polygon fill="#ffffb3" stroke="#000000" points="1831.1867,-122 1626.8133,-122 1626.8133,-86 1831.1867,-86 1831.1867,-122"/>
<text text-anchor="middle" x="1729" y="-99.8" font-family="Times,serif" font-size="14.00" fill="#000000">AcStaticPolylineDescComponent</text>
</g>
<!-- AcStaticPolylineDescComponent&#45;&gt;AngularCesiumModule -->
<g id="edge13" class="edge">
<title>AcStaticPolylineDescComponent&#45;&gt;AngularCesiumModule</title>
<path fill="none" stroke="#000000" d="M1743.0991,-122.2458C1743.0991,-136.1772 1743.0991,-153 1743.0991,-153 1743.0991,-153 1870.8873,-153 1870.8873,-153"/>
<polygon fill="#000000" stroke="#000000" points="1870.8874,-156.5001 1880.8873,-153 1870.8873,-149.5001 1870.8874,-156.5001"/>
</g>
<!-- AcArcDescComponent -->
<g id="node14" class="node">
<title>AcArcDescComponent</title>
<polygon fill="#ffffb3" stroke="#000000" points="1609.1163,-122 1462.8837,-122 1462.8837,-86 1609.1163,-86 1609.1163,-122"/>
<text text-anchor="middle" x="1536" y="-99.8" font-family="Times,serif" font-size="14.00" fill="#000000">AcArcDescComponent</text>
</g>
<!-- AcArcDescComponent&#45;&gt;AngularCesiumModule -->
<g id="edge14" class="edge">
<title>AcArcDescComponent&#45;&gt;AngularCesiumModule</title>
<path fill="none" stroke="#000000" d="M1547.3477,-122.1243C1547.3477,-136.7832 1547.3477,-155 1547.3477,-155 1547.3477,-155 1870.7043,-155 1870.7043,-155"/>
<polygon fill="#000000" stroke="#000000" points="1870.7043,-158.5001 1880.7043,-155 1870.7043,-151.5001 1870.7043,-158.5001"/>
</g>
<!-- AcMapLayerProviderComponent -->
<g id="node15" class="node">
<title>AcMapLayerProviderComponent</title>
<polygon fill="#ffffb3" stroke="#000000" points="1445.1643,-122 1240.8357,-122 1240.8357,-86 1445.1643,-86 1445.1643,-122"/>
<text text-anchor="middle" x="1343" y="-99.8" font-family="Times,serif" font-size="14.00" fill="#000000">AcMapLayerProviderComponent</text>
</g>
<!-- AcMapLayerProviderComponent&#45;&gt;AngularCesiumModule -->
<g id="edge15" class="edge">
<title>AcMapLayerProviderComponent&#45;&gt;AngularCesiumModule</title>
<path fill="none" stroke="#000000" d="M1348.8764,-122.2396C1348.8764,-137.5706 1348.8764,-157 1348.8764,-157 1348.8764,-157 1870.6773,-157 1870.6773,-157"/>
<polygon fill="#000000" stroke="#000000" points="1870.6774,-160.5001 1880.6773,-157 1870.6773,-153.5001 1870.6774,-160.5001"/>
</g>
<!-- AcPointDescComponent -->
<g id="node16" class="node">
<title>AcPointDescComponent</title>
<polygon fill="#ffffb3" stroke="#000000" points="1222.6979,-122 1067.3021,-122 1067.3021,-86 1222.6979,-86 1222.6979,-122"/>
<text text-anchor="middle" x="1145" y="-99.8" font-family="Times,serif" font-size="14.00" fill="#000000">AcPointDescComponent</text>
</g>
<!-- AcPointDescComponent&#45;&gt;AngularCesiumModule -->
<g id="edge16" class="edge">
<title>AcPointDescComponent&#45;&gt;AngularCesiumModule</title>
<path fill="none" stroke="#000000" d="M1145,-122.0091C1145,-138.0494 1145,-159 1145,-159 1145,-159 1870.6102,-159 1870.6102,-159"/>
<polygon fill="#000000" stroke="#000000" points="1870.6102,-162.5001 1880.6102,-159 1870.6101,-155.5001 1870.6102,-162.5001"/>
</g>
<!-- AcMapComponent  -->
<g id="node21" class="node">
<title>AcMapComponent </title>
<polygon fill="#fb8072" stroke="#000000" points="3454.3129,-252 3327.6871,-252 3327.6871,-216 3454.3129,-216 3454.3129,-252"/>
<text text-anchor="middle" x="3391" y="-229.8" font-family="Times,serif" font-size="14.00" fill="#000000">AcMapComponent </text>
</g>
<!-- AngularCesiumModule&#45;&gt;AcMapComponent  -->
<g id="edge20" class="edge">
<title>AngularCesiumModule&#45;&gt;AcMapComponent </title>
<path fill="none" stroke="#000000" stroke-dasharray="5,2" d="M2029.2628,-174C2326.1987,-174 3412.1355,-174 3412.1355,-174 3412.1355,-174 3412.1355,-205.998 3412.1355,-205.998"/>
<polygon fill="#000000" stroke="#000000" points="3408.6356,-205.998 3412.1355,-215.998 3415.6356,-205.9981 3408.6356,-205.998"/>
</g>
<!-- AcBillboardComponent  -->
<g id="node22" class="node">
<title>AcBillboardComponent </title>
<polygon fill="#fb8072" stroke="#000000" points="3310.0372,-252 3155.9628,-252 3155.9628,-216 3310.0372,-216 3310.0372,-252"/>
<text text-anchor="middle" x="3233" y="-229.8" font-family="Times,serif" font-size="14.00" fill="#000000">AcBillboardComponent </text>
</g>
<!-- AngularCesiumModule&#45;&gt;AcBillboardComponent  -->
<g id="edge21" class="edge">
<title>AngularCesiumModule&#45;&gt;AcBillboardComponent </title>
<path fill="none" stroke="#000000" stroke-dasharray="5,2" d="M2029.5334,-176C2302.2638,-176 3230.091,-176 3230.091,-176 3230.091,-176 3230.091,-205.9664 3230.091,-205.9664"/>
<polygon fill="#000000" stroke="#000000" points="3226.5911,-205.9663 3230.091,-215.9664 3233.5911,-205.9664 3226.5911,-205.9663"/>
</g>
<!-- AcBillboardDescComponent  -->
<g id="node23" class="node">
<title>AcBillboardDescComponent </title>
<polygon fill="#fb8072" stroke="#000000" points="3138.0176,-252 2955.9824,-252 2955.9824,-216 3138.0176,-216 3138.0176,-252"/>
<text text-anchor="middle" x="3047" y="-229.8" font-family="Times,serif" font-size="14.00" fill="#000000">AcBillboardDescComponent </text>
</g>
<!-- AngularCesiumModule&#45;&gt;AcBillboardDescComponent  -->
<g id="edge22" class="edge">
<title>AngularCesiumModule&#45;&gt;AcBillboardDescComponent </title>
<path fill="none" stroke="#000000" stroke-dasharray="5,2" d="M2029.2486,-178C2271.4368,-178 3022.9542,-178 3022.9542,-178 3022.9542,-178 3022.9542,-205.973 3022.9542,-205.973"/>
<polygon fill="#000000" stroke="#000000" points="3019.4543,-205.973 3022.9542,-215.973 3026.4543,-205.973 3019.4543,-205.973"/>
</g>
<!-- AcLabelDescComponent  -->
<g id="node24" class="node">
<title>AcLabelDescComponent </title>
<polygon fill="#fb8072" stroke="#000000" points="2937.5064,-252 2776.4936,-252 2776.4936,-216 2937.5064,-216 2937.5064,-252"/>
<text text-anchor="middle" x="2857" y="-229.8" font-family="Times,serif" font-size="14.00" fill="#000000">AcLabelDescComponent </text>
</g>
<!-- AngularCesiumModule&#45;&gt;AcLabelDescComponent  -->
<g id="edge23" class="edge">
<title>AngularCesiumModule&#45;&gt;AcLabelDescComponent </title>
<path fill="none" stroke="#000000" stroke-dasharray="5,2" d="M2029.1668,-180C2238.0513,-180 2816.1534,-180 2816.1534,-180 2816.1534,-180 2816.1534,-205.7181 2816.1534,-205.7181"/>
<polygon fill="#000000" stroke="#000000" points="2812.6535,-205.718 2816.1534,-215.7181 2819.6535,-205.7181 2812.6535,-205.718"/>
</g>
<!-- AcStaticEllipseDescComponent  -->
<g id="node25" class="node">
<title>AcStaticEllipseDescComponent </title>
<polygon fill="#fb8072" stroke="#000000" points="2758.9012,-252 2559.0988,-252 2559.0988,-216 2758.9012,-216 2758.9012,-252"/>
<text text-anchor="middle" x="2659" y="-229.8" font-family="Times,serif" font-size="14.00" fill="#000000">AcStaticEllipseDescComponent </text>
</g>
<!-- AngularCesiumModule&#45;&gt;AcStaticEllipseDescComponent  -->
<g id="edge24" class="edge">
<title>AngularCesiumModule&#45;&gt;AcStaticEllipseDescComponent </title>
<path fill="none" stroke="#000000" stroke-dasharray="5,2" d="M2029.3066,-182C2196.2576,-182 2586.5724,-182 2586.5724,-182 2586.5724,-182 2586.5724,-205.8129 2586.5724,-205.8129"/>
<polygon fill="#000000" stroke="#000000" points="2583.0725,-205.8129 2586.5724,-215.8129 2590.0725,-205.813 2583.0725,-205.8129"/>
</g>
<!-- AcDynamicEllipseDescComponent  -->
<g id="node26" class="node">
<title>AcDynamicEllipseDescComponent </title>
<polygon fill="#fb8072" stroke="#000000" points="2540.8349,-252 2321.1651,-252 2321.1651,-216 2540.8349,-216 2540.8349,-252"/>
<text text-anchor="middle" x="2431" y="-229.8" font-family="Times,serif" font-size="14.00" fill="#000000">AcDynamicEllipseDescComponent </text>
</g>
<!-- AngularCesiumModule&#45;&gt;AcDynamicEllipseDescComponent  -->
<g id="edge25" class="edge">
<title>AngularCesiumModule&#45;&gt;AcDynamicEllipseDescComponent </title>
<path fill="none" stroke="#000000" stroke-dasharray="5,2" d="M2029.1696,-184C2145.2753,-184 2356.8273,-184 2356.8273,-184 2356.8273,-184 2356.8273,-205.9489 2356.8273,-205.9489"/>
<polygon fill="#000000" stroke="#000000" points="2353.3274,-205.9488 2356.8273,-215.9489 2360.3274,-205.9489 2353.3274,-205.9488"/>
</g>
<!-- AcDynamicPolylineDescComponent  -->
<g id="node27" class="node">
<title>AcDynamicPolylineDescComponent </title>
<polygon fill="#fb8072" stroke="#000000" points="2303.62,-252 2076.38,-252 2076.38,-216 2303.62,-216 2303.62,-252"/>
<text text-anchor="middle" x="2190" y="-229.8" font-family="Times,serif" font-size="14.00" fill="#000000">AcDynamicPolylineDescComponent </text>
</g>
<!-- AngularCesiumModule&#45;&gt;AcDynamicPolylineDescComponent  -->
<g id="edge26" class="edge">
<title>AngularCesiumModule&#45;&gt;AcDynamicPolylineDescComponent </title>
<path fill="none" stroke="#000000" stroke-dasharray="5,2" d="M2029.1941,-186C2081.4161,-186 2142.0458,-186 2142.0458,-186 2142.0458,-186 2142.0458,-205.8533 2142.0458,-205.8533"/>
<polygon fill="#000000" stroke="#000000" points="2138.5459,-205.8532 2142.0458,-215.8533 2145.5459,-205.8533 2138.5459,-205.8532"/>
</g>
<!-- AcStaticPolygonDescComponent  -->
<g id="node28" class="node">
<title>AcStaticPolygonDescComponent </title>
<polygon fill="#fb8072" stroke="#000000" points="2058.691,-252 1851.309,-252 1851.309,-216 2058.691,-216 2058.691,-252"/>
<text text-anchor="middle" x="1955" y="-229.8" font-family="Times,serif" font-size="14.00" fill="#000000">AcStaticPolygonDescComponent </text>
</g>
<!-- AngularCesiumModule&#45;&gt;AcStaticPolygonDescComponent  -->
<g id="edge27" class="edge">
<title>AngularCesiumModule&#45;&gt;AcStaticPolygonDescComponent </title>
<path fill="none" stroke="#000000" stroke-dasharray="5,2" d="M1955,-187.1061C1955,-187.1061 1955,-205.991 1955,-205.991"/>
<polygon fill="#000000" stroke="#000000" points="1951.5001,-205.9909 1955,-215.991 1958.5001,-205.991 1951.5001,-205.9909"/>
</g>
<!-- AcLayerComponent  -->
<g id="node29" class="node">
<title>AcLayerComponent </title>
<polygon fill="#fb8072" stroke="#000000" points="1832.7962,-252 1699.2038,-252 1699.2038,-216 1832.7962,-216 1832.7962,-252"/>
<text text-anchor="middle" x="1766" y="-229.8" font-family="Times,serif" font-size="14.00" fill="#000000">AcLayerComponent </text>
</g>
<!-- AngularCesiumModule&#45;&gt;AcLayerComponent  -->
<g id="edge28" class="edge">
<title>AngularCesiumModule&#45;&gt;AcLayerComponent </title>
<path fill="none" stroke="#000000" stroke-dasharray="5,2" d="M1880.8662,-186C1835.8871,-186 1787.0962,-186 1787.0962,-186 1787.0962,-186 1787.0962,-205.8533 1787.0962,-205.8533"/>
<polygon fill="#000000" stroke="#000000" points="1783.5963,-205.8532 1787.0962,-215.8533 1790.5963,-205.8533 1783.5963,-205.8532"/>
</g>
<!-- AcStaticCircleDescComponent  -->
<g id="node30" class="node">
<title>AcStaticCircleDescComponent </title>
<polygon fill="#fb8072" stroke="#000000" points="1680.7253,-252 1485.2747,-252 1485.2747,-216 1680.7253,-216 1680.7253,-252"/>
<text text-anchor="middle" x="1583" y="-229.8" font-family="Times,serif" font-size="14.00" fill="#000000">AcStaticCircleDescComponent </text>
</g>
<!-- AngularCesiumModule&#45;&gt;AcStaticCircleDescComponent  -->
<g id="edge29" class="edge">
<title>AngularCesiumModule&#45;&gt;AcStaticCircleDescComponent </title>
<path fill="none" stroke="#000000" stroke-dasharray="5,2" d="M1880.5361,-184C1791.3302,-184 1653.7597,-184 1653.7597,-184 1653.7597,-184 1653.7597,-205.9489 1653.7597,-205.9489"/>
<polygon fill="#000000" stroke="#000000" points="1650.2597,-205.9488 1653.7597,-215.9489 1657.2597,-205.9489 1650.2597,-205.9488"/>
</g>
<!-- AcDynamicCircleDescComponent  -->
<g id="node31" class="node">
<title>AcDynamicCircleDescComponent </title>
<polygon fill="#fb8072" stroke="#000000" points="1467.1589,-252 1252.8411,-252 1252.8411,-216 1467.1589,-216 1467.1589,-252"/>
<text text-anchor="middle" x="1360" y="-229.8" font-family="Times,serif" font-size="14.00" fill="#000000">AcDynamicCircleDescComponent </text>
</g>
<!-- AngularCesiumModule&#45;&gt;AcDynamicCircleDescComponent  -->
<g id="edge30" class="edge">
<title>AngularCesiumModule&#45;&gt;AcDynamicCircleDescComponent </title>
<path fill="none" stroke="#000000" stroke-dasharray="5,2" d="M1880.7894,-182C1741.2954,-182 1453.8871,-182 1453.8871,-182 1453.8871,-182 1453.8871,-205.8129 1453.8871,-205.8129"/>
<polygon fill="#000000" stroke="#000000" points="1450.3872,-205.8129 1453.8871,-215.8129 1457.3872,-205.813 1450.3872,-205.8129"/>
</g>
<!-- AcStaticPolylineDescComponent  -->
<g id="node32" class="node">
<title>AcStaticPolylineDescComponent </title>
<polygon fill="#fb8072" stroke="#000000" points="1234.6868,-252 1027.3132,-252 1027.3132,-216 1234.6868,-216 1234.6868,-252"/>
<text text-anchor="middle" x="1131" y="-229.8" font-family="Times,serif" font-size="14.00" fill="#000000">AcStaticPolylineDescComponent </text>
</g>
<!-- AngularCesiumModule&#45;&gt;AcStaticPolylineDescComponent  -->
<g id="edge31" class="edge">
<title>AngularCesiumModule&#45;&gt;AcStaticPolylineDescComponent </title>
<path fill="none" stroke="#000000" stroke-dasharray="5,2" d="M1880.6885,-180C1695.5845,-180 1228.7211,-180 1228.7211,-180 1228.7211,-180 1228.7211,-205.7181 1228.7211,-205.7181"/>
<polygon fill="#000000" stroke="#000000" points="1225.2212,-205.718 1228.7211,-215.7181 1232.2212,-205.7181 1225.2212,-205.718"/>
</g>
<!-- AcArcDescComponent  -->
<g id="node33" class="node">
<title>AcArcDescComponent </title>
<polygon fill="#fb8072" stroke="#000000" points="1009.1158,-252 858.8842,-252 858.8842,-216 1009.1158,-216 1009.1158,-252"/>
<text text-anchor="middle" x="934" y="-229.8" font-family="Times,serif" font-size="14.00" fill="#000000">AcArcDescComponent </text>
</g>
<!-- AngularCesiumModule&#45;&gt;AcArcDescComponent  -->
<g id="edge32" class="edge">
<title>AngularCesiumModule&#45;&gt;AcArcDescComponent </title>
<path fill="none" stroke="#000000" stroke-dasharray="5,2" d="M1880.5696,-178C1651.1263,-178 970.1121,-178 970.1121,-178 970.1121,-178 970.1121,-205.973 970.1121,-205.973"/>
<polygon fill="#000000" stroke="#000000" points="966.6121,-205.973 970.1121,-215.973 973.6121,-205.973 966.6121,-205.973"/>
</g>
<!-- AcMapLayerProviderComponent  -->
<g id="node34" class="node">
<title>AcMapLayerProviderComponent </title>
<polygon fill="#fb8072" stroke="#000000" points="840.6645,-252 633.3355,-252 633.3355,-216 840.6645,-216 840.6645,-252"/>
<text text-anchor="middle" x="737" y="-229.8" font-family="Times,serif" font-size="14.00" fill="#000000">AcMapLayerProviderComponent </text>
</g>
<!-- AngularCesiumModule&#45;&gt;AcMapLayerProviderComponent  -->
<g id="edge33" class="edge">
<title>AngularCesiumModule&#45;&gt;AcMapLayerProviderComponent </title>
<path fill="none" stroke="#000000" stroke-dasharray="5,2" d="M1880.4788,-176C1625.8069,-176 805.7313,-176 805.7313,-176 805.7313,-176 805.7313,-205.9664 805.7313,-205.9664"/>
<polygon fill="#000000" stroke="#000000" points="802.2313,-205.9663 805.7313,-215.9664 809.2313,-205.9664 802.2313,-205.9663"/>
</g>
<!-- AcPointDescComponent  -->
<g id="node35" class="node">
<title>AcPointDescComponent </title>
<polygon fill="#fb8072" stroke="#000000" points="615.1981,-252 456.8019,-252 456.8019,-216 615.1981,-216 615.1981,-252"/>
<text text-anchor="middle" x="536" y="-229.8" font-family="Times,serif" font-size="14.00" fill="#000000">AcPointDescComponent </text>
</g>
<!-- AngularCesiumModule&#45;&gt;AcPointDescComponent  -->
<g id="edge34" class="edge">
<title>AngularCesiumModule&#45;&gt;AcPointDescComponent </title>
<path fill="none" stroke="#000000" stroke-dasharray="5,2" d="M1880.5664,-174C1593.0034,-174 570.5575,-174 570.5575,-174 570.5575,-174 570.5575,-205.998 570.5575,-205.998"/>
<polygon fill="#000000" stroke="#000000" points="567.0574,-205.9981 570.5575,-215.998 574.0574,-205.998 567.0574,-205.9981"/>
</g>
<!-- CommonModule -->
<g id="node18" class="node">
<title>CommonModule</title>
<polygon fill="#8dd3c7" stroke="#000000" points="1042.6681,-122 1039.6681,-126 1018.6681,-126 1015.6681,-122 931.3319,-122 931.3319,-86 1042.6681,-86 1042.6681,-122"/>
<text text-anchor="middle" x="987" y="-99.8" font-family="Times,serif" font-size="14.00" fill="#000000">CommonModule</text>
</g>
<!-- CommonModule&#45;&gt;AngularCesiumModule -->
<g id="edge17" class="edge">
<title>CommonModule&#45;&gt;AngularCesiumModule</title>
<path fill="none" stroke="#000000" d="M1034.9953,-122.0352C1034.9953,-138.7344 1034.9953,-161 1034.9953,-161 1034.9953,-161 1870.8798,-161 1870.8798,-161"/>
<polygon fill="#000000" stroke="#000000" points="1870.8799,-164.5001 1880.8798,-161 1870.8798,-157.5001 1870.8799,-164.5001"/>
</g>
<!-- Angular2ParseModule -->
<g id="node19" class="node">
<title>Angular2ParseModule</title>
<polygon fill="#8dd3c7" stroke="#000000" points="913.2394,-122 910.2394,-126 889.2394,-126 886.2394,-122 770.7606,-122 770.7606,-86 913.2394,-86 913.2394,-122"/>
<text text-anchor="middle" x="842" y="-99.8" font-family="Times,serif" font-size="14.00" fill="#000000">Angular2ParseModule</text>
</g>
<!-- Angular2ParseModule&#45;&gt;AngularCesiumModule -->
<g id="edge18" class="edge">
<title>Angular2ParseModule&#45;&gt;AngularCesiumModule</title>
<path fill="none" stroke="#000000" d="M886.1559,-122.0225C886.1559,-139.3734 886.1559,-163 886.1559,-163 886.1559,-163 1870.6896,-163 1870.6896,-163"/>
<polygon fill="#000000" stroke="#000000" points="1870.6896,-166.5001 1880.6896,-163 1870.6895,-159.5001 1870.6896,-166.5001"/>
</g>
<!-- UtilsModule -->
<g id="node20" class="node">
<title>UtilsModule</title>
<polygon fill="#8dd3c7" stroke="#000000" points="752.2731,-122 749.2731,-126 728.2731,-126 725.2731,-122 665.7269,-122 665.7269,-86 752.2731,-86 752.2731,-122"/>
<text text-anchor="middle" x="709" y="-99.8" font-family="Times,serif" font-size="14.00" fill="#000000">UtilsModule</text>
</g>
<!-- UtilsModule&#45;&gt;AngularCesiumModule -->
<g id="edge19" class="edge">
<title>UtilsModule&#45;&gt;AngularCesiumModule</title>
<path fill="none" stroke="#000000" d="M709,-122.302C709,-140.2699 709,-165 709,-165 709,-165 1870.7885,-165 1870.7885,-165"/>
<polygon fill="#000000" stroke="#000000" points="1870.7885,-168.5001 1880.7885,-165 1870.7884,-161.5001 1870.7885,-168.5001"/>
</g>
<!-- JsonMapper -->
<g id="node36" class="node">
<title>JsonMapper</title>
<ellipse fill="#fdb462" stroke="#000000" cx="584" cy="-104" rx="58.4687" ry="18"/>
<text text-anchor="middle" x="584" y="-99.8" font-family="Times,serif" font-size="14.00" fill="#000000">JsonMapper</text>
</g>
<!-- JsonMapper&#45;&gt;AngularCesiumModule -->
<g id="edge35" class="edge">
<title>JsonMapper&#45;&gt;AngularCesiumModule</title>
<path fill="none" stroke="#000000" d="M637.7009,-111.2269C637.7009,-127.775 637.7009,-167 637.7009,-167 637.7009,-167 1870.8785,-167 1870.8785,-167"/>
<polygon fill="#000000" stroke="#000000" points="1870.8785,-170.5001 1880.8785,-167 1870.8784,-163.5001 1870.8785,-170.5001"/>
</g>
<!-- CesiumProperties -->
<g id="node37" class="node">
<title>CesiumProperties</title>
<ellipse fill="#fdb462" stroke="#000000" cx="428" cy="-104" rx="79.8895" ry="18"/>
<text text-anchor="middle" x="428" y="-99.8" font-family="Times,serif" font-size="14.00" fill="#000000">CesiumProperties</text>
</g>
<!-- CesiumProperties&#45;&gt;AngularCesiumModule -->
<g id="edge36" class="edge">
<title>CesiumProperties&#45;&gt;AngularCesiumModule</title>
<path fill="none" stroke="#000000" d="M482.1728,-117.468C482.1728,-136.5069 482.1728,-169 482.1728,-169 482.1728,-169 1870.6996,-169 1870.6996,-169"/>
<polygon fill="#000000" stroke="#000000" points="1870.6997,-172.5001 1880.6996,-169 1870.6996,-165.5001 1870.6997,-172.5001"/>
</g>
<!-- GeoUtilsService -->
<g id="node38" class="node">
<title>GeoUtilsService</title>
<ellipse fill="#fdb462" stroke="#000000" cx="255" cy="-104" rx="74.713" ry="18"/>
<text text-anchor="middle" x="255" y="-99.8" font-family="Times,serif" font-size="14.00" fill="#000000">GeoUtilsService</text>
</g>
<!-- GeoUtilsService&#45;&gt;AngularCesiumModule -->
<g id="edge37" class="edge">
<title>GeoUtilsService&#45;&gt;AngularCesiumModule</title>
<path fill="none" stroke="#000000" d="M255,-122.0348C255,-141.5762 255,-170 255,-170 255,-170 1870.86,-170 1870.86,-170"/>
<polygon fill="#000000" stroke="#000000" points="1870.86,-173.5001 1880.86,-170 1870.86,-166.5001 1870.86,-173.5001"/>
</g>
<!-- ViewerFactory -->
<g id="node39" class="node">
<title>ViewerFactory</title>
<ellipse fill="#fdb462" stroke="#000000" cx="93" cy="-104" rx="68.8965" ry="18"/>
<text text-anchor="middle" x="93" y="-99.8" font-family="Times,serif" font-size="14.00" fill="#000000">ViewerFactory</text>
</g>
<!-- ViewerFactory&#45;&gt;AngularCesiumModule -->
<g id="edge38" class="edge">
<title>ViewerFactory&#45;&gt;AngularCesiumModule</title>
<path fill="none" stroke="#000000" d="M93,-122.2228C93,-142.3652 93,-172 93,-172 93,-172 1870.8584,-172 1870.8584,-172"/>
<polygon fill="#000000" stroke="#000000" points="1870.8584,-175.5001 1880.8584,-172 1870.8583,-168.5001 1870.8584,-175.5001"/>
</g>
</g>
</svg>
