<svg xmlns="http://www.w3.org/2000/svg" viewBox="0 0 502.569 300"><defs><style>.a{fill:red;}.b{fill:aqua;}</style></defs><g transform="translate(0 0.001)"><g transform="translate(0 -0.001)"><g transform="translate(0 162.031)"><path class="a" d="M529.5,384.7s-38.135-40.42-88.987-1.826c-13.5,13.446-17.942,28.481-18.578,44.1-1.758,16.988,6.088,38.838,18.578,49.6,4.55,3.853,21.7,14.9,37.913,15.937,13.087.811,35.164-1.843,51.074-15.937-10.96-11.171-42.128-42.44-42.128-42.44s-5.654-4.435,0-9.392S529.5,384.7,529.5,384.7Z" transform="translate(-421.684 -365.518)"/><ellipse class="a" cx="64.707" cy="64.707" rx="64.707" ry="64.707" transform="translate(115.79)"/><path class="a" d="M62.589,129.414H0V0H64.136V.02c33.851.849,61.042,29.486,61.042,64.686s-27.19,63.84-61.042,64.689v.02Z" transform="translate(256.296)"/><path class="a" d="M630.1,491.887H527.558V366.468H630.1v41.5s-18.039-.143-24.448,0c-3.128,3.027-3.7,4.511,0,7.428H630.1v28.155H605.653c-2.853,1.871-3.3,5.61,0,7.608,9.131-.43,24.448,0,24.448,0Z" transform="translate(-136.087 -364.738)"/></g><g transform="translate(0.483 0)"><path class="a" d="M402.123,489.558V366.8h59.79V489.558Z" transform="translate(30.823 -364.49)"/><g transform="translate(0 0)"><path class="a" d="M154.439,125.071v0H74.24l41.916-65.356,38.283,65.356Zm-84.041,0H64.473l47.021-73.315L114,56.036,70.4,125.069Zm-9.73,0H0L81.178,0l28.141,48.042-48.65,77.027h0Z" transform="translate(0 0)"/></g><g transform="translate(171.754 1.861)"><path class="a" d="M35.476,123.209H29.527L96.679,18.064C97.8,19.4,98.862,20.8,99.837,22.206l-64.36,101Zm70.869,0H39.307l62.785-97.452a49.556,49.556,0,0,1,5.386,13.288,45.669,45.669,0,0,1,1.075,15.063c-1.086,11.434-6.4,22.71-15.809,33.513a11.958,11.958,0,0,0-2.619,7.8,9.611,9.611,0,0,0,.751,3.42l15.467,24.364v0h0Zm-80.622,0H0V0H64.2A34.437,34.437,0,0,1,79.158,4.038,55.564,55.564,0,0,1,94.026,15.111l-68.3,108.1h0Z" transform="translate(0 0)"/></g><g transform="translate(305.066 2.811)"><path class="a" d="M83.129,122.259H46.518L83.129,65.822v56.436Zm-40.442,0H36.722L109.828,8.69v8.936L42.687,122.258Zm-9.768,0H26.66V60.121H0V0H109.828V1.621L32.919,122.258ZM86.828,60.121l23-35.454V60.121h-23Z" transform="translate(0 0)"/></g></g></g><g transform="translate(8.554 8.554)"><g transform="translate(0 162.031)"><path class="b" d="M529.5,384.7s-38.135-40.42-88.987-1.826c-13.5,13.446-17.942,28.481-18.578,44.1-1.758,16.988,6.088,38.838,18.578,49.6,4.55,3.853,21.7,14.9,37.913,15.937,13.087.811,35.164-1.843,51.074-15.937-10.96-11.171-42.128-42.44-42.128-42.44s-5.654-4.435,0-9.392S529.5,384.7,529.5,384.7Z" transform="translate(-421.684 -365.518)"/><ellipse class="b" cx="64.707" cy="64.707" rx="64.707" ry="64.707" transform="translate(115.79)"/><path class="b" d="M62.589,129.414H0V0H64.136V.02c33.851.849,61.042,29.486,61.042,64.686s-27.19,63.84-61.042,64.689v.02Z" transform="translate(256.296)"/><path class="b" d="M630.1,491.887H527.558V366.468H630.1v41.5s-18.039-.143-24.448,0c-3.128,3.027-3.7,4.511,0,7.428H630.1v28.155H605.653c-2.853,1.871-3.3,5.61,0,7.608,9.131-.43,24.448,0,24.448,0Z" transform="translate(-136.087 -364.738)"/></g><g transform="translate(0.483 0)"><path class="b" d="M402.123,489.558V366.8h59.79V489.558Z" transform="translate(30.823 -364.49)"/><g transform="translate(0 0)"><path class="b" d="M154.439,125.071v0H74.24l41.916-65.356,38.283,65.356Zm-84.041,0H64.473l47.021-73.315L114,56.036,70.4,125.069Zm-9.73,0H0L81.178,0l28.141,48.042-48.65,77.027h0Z" transform="translate(0 0)"/></g><g transform="translate(171.754 1.861)"><path class="b" d="M35.476,123.209H29.527L96.679,18.064C97.8,19.4,98.862,20.8,99.837,22.206l-64.36,101Zm70.869,0H39.307l62.785-97.452a49.556,49.556,0,0,1,5.386,13.288,45.669,45.669,0,0,1,1.075,15.063c-1.086,11.434-6.4,22.71-15.809,33.513a11.958,11.958,0,0,0-2.619,7.8,9.611,9.611,0,0,0,.751,3.42l15.467,24.364v0h0Zm-80.622,0H0V0H64.2A34.437,34.437,0,0,1,79.158,4.038,55.564,55.564,0,0,1,94.026,15.111l-68.3,108.1h0Z" transform="translate(0 0)"/></g><g transform="translate(305.066 2.811)"><path class="b" d="M83.129,122.259H46.518L83.129,65.822v56.436Zm-40.442,0H36.722L109.828,8.69v8.936L42.687,122.258Zm-9.768,0H26.66V60.121H0V0H109.828V1.621L32.919,122.258ZM86.828,60.121l23-35.454V60.121h-23Z" transform="translate(0 0)"/></g></g></g><g transform="translate(5.346 3.207)"><g transform="translate(0 162.031)"><path d="M529.5,384.7s-38.135-40.42-88.987-1.826c-13.5,13.446-17.942,28.481-18.578,44.1-1.758,16.988,6.088,38.838,18.578,49.6,4.55,3.853,21.7,14.9,37.913,15.937,13.087.811,35.164-1.843,51.074-15.937-10.96-11.171-42.128-42.44-42.128-42.44s-5.654-4.435,0-9.392S529.5,384.7,529.5,384.7Z" transform="translate(-421.684 -365.518)"/><ellipse cx="64.707" cy="64.707" rx="64.707" ry="64.707" transform="translate(115.79)"/><path d="M62.589,129.414H0V0H64.136V.02c33.851.849,61.042,29.486,61.042,64.686s-27.19,63.84-61.042,64.689v.02Z" transform="translate(256.296)"/><path d="M630.1,491.887H527.558V366.468H630.1v41.5s-18.039-.143-24.448,0c-3.128,3.027-3.7,4.511,0,7.428H630.1v28.155H605.653c-2.853,1.871-3.3,5.61,0,7.608,9.131-.43,24.448,0,24.448,0Z" transform="translate(-136.087 -364.738)"/></g><g transform="translate(0.483 0)"><path d="M402.123,489.558V366.8h59.79V489.558Z" transform="translate(30.823 -364.49)"/><g transform="translate(0 0)"><path d="M154.439,125.071v0H74.24l41.916-65.356,38.283,65.356Zm-84.041,0H64.473l47.021-73.315L114,56.036,70.4,125.069Zm-9.73,0H0L81.178,0l28.141,48.042-48.65,77.027h0Z" transform="translate(0 0)"/></g><g transform="translate(171.754 1.861)"><path d="M35.476,123.209H29.527L96.679,18.064C97.8,19.4,98.862,20.8,99.837,22.206l-64.36,101Zm70.869,0H39.307l62.785-97.452a49.556,49.556,0,0,1,5.386,13.288,45.669,45.669,0,0,1,1.075,15.063c-1.086,11.434-6.4,22.71-15.809,33.513a11.958,11.958,0,0,0-2.619,7.8,9.611,9.611,0,0,0,.751,3.42l15.467,24.364v0h0Zm-80.622,0H0V0H64.2A34.437,34.437,0,0,1,79.158,4.038,55.564,55.564,0,0,1,94.026,15.111l-68.3,108.1h0Z" transform="translate(0 0)"/></g><g transform="translate(305.066 2.811)"><path d="M83.129,122.259H46.518L83.129,65.822v56.436Zm-40.442,0H36.722L109.828,8.69v8.936L42.687,122.258Zm-9.768,0H26.66V60.121H0V0H109.828V1.621L32.919,122.258ZM86.828,60.121l23-35.454V60.121h-23Z" transform="translate(0 0)"/></g></g></g></g></svg>