<svg height="480pt" viewBox="-72 0 480 480" width="480pt" xmlns="http://www.w3.org/2000/svg"><path d="m168 0c-92.742188.101562-167.898438 75.257812-168 168v144c0 92.785156 75.214844 168 168 168s168-75.214844 168-168v-144c-.101562-92.742188-75.257812-167.898438-168-168zm0 16c80.75.132812 147.3125 63.363281 151.59375 144h-16c-4.296875-73.402344-66.1875-130.082031-139.683594-127.914062-73.496094 2.164062-131.945312 62.386718-131.910156 135.914062v136h-16v-136c.09375-83.910156 68.089844-151.90625 152-152zm120 168h-16v-16c0-57.4375-46.5625-104-104-104s-104 46.5625-104 104v136h-16v-136c0-66.273438 53.726562-120 120-120s120 53.726562 120 120zm-32 128c0 48.601562-39.398438 88-88 88s-88-39.398438-88-88v-144c0-48.601562 39.398438-88 88-88s88 39.398438 88 88zm-191.59375 8c4.324219 55.667969 51.851562 97.976562 107.644531 95.828125 55.792969-2.152344 99.921875-47.992187 99.949219-103.828125v-112h16v112c.023438 64.695312-51.265625 117.75-115.925781 119.910156-64.660157 2.15625-119.375-47.359375-123.667969-111.910156zm103.59375 144c-80.75-.132812-147.3125-63.363281-151.59375-144h16c4.296875 73.402344 66.1875 130.082031 139.683594 127.914062 73.496094-2.164062 131.945312-62.386718 131.910156-135.914062v-136h16v136c-.09375 83.910156-68.089844 151.90625-152 152zm0 0"/></svg>