<svg id="svg" version="1.1" xmlns="http://www.w3.org/2000/svg" xmlns:xlink="http://www.w3.org/1999/xlink" width="480pt" height="480pt" viewBox="0, 0, 400,262.85714285714283"><g id="svgg"><path id="path0" d="M0.000 23.796 L 0.000 47.066 7.692 47.136 L 15.385 47.206 15.451 131.477 C 15.504 198.720,15.450 215.790,15.188 215.957 C 15.007 216.071,11.498 216.167,7.391 216.170 L -0.077 216.174 0.159 225.312 C 0.288 230.339,0.394 240.605,0.394 248.126 C 0.394 256.939,0.488 261.870,0.657 261.995 C 0.802 262.101,6.564 262.190,13.462 262.192 C 21.536 262.194,26.062 262.290,26.167 262.459 C 26.355 262.764,33.802 262.809,40.983 262.549 L 45.759 262.376 45.759 259.935 C 45.759 258.592,45.862 257.430,45.987 257.353 C 46.112 257.275,46.155 255.022,46.081 252.346 C 45.980 248.650,46.028 247.384,46.280 247.080 C 46.577 246.723,62.982 246.680,200.159 246.680 L 353.705 246.680 353.879 247.376 C 353.976 247.759,353.989 250.185,353.909 252.767 C 353.825 255.504,353.864 257.462,354.002 257.462 C 354.133 257.462,354.241 258.568,354.241 259.919 L 354.241 262.376 359.017 262.549 C 366.198 262.809,373.645 262.764,373.833 262.459 C 373.938 262.290,378.464 262.194,386.538 262.192 C 393.436 262.190,399.200 262.101,399.346 261.995 C 399.521 261.868,399.612 257.333,399.609 248.915 C 399.607 241.828,399.707 231.561,399.832 226.101 L 400.058 216.174 392.566 216.174 C 386.586 216.174,385.015 216.102,384.779 215.817 C 384.561 215.555,384.500 193.306,384.549 131.334 L 384.615 47.206 392.308 47.136 L 400.000 47.066 400.000 23.796 L 400.000 0.526 377.120 0.526 L 354.241 0.526 354.241 8.124 C 354.241 14.811,354.191 15.742,353.825 15.882 C 352.954 16.217,46.410 16.061,46.075 15.726 C 45.844 15.496,45.759 13.406,45.759 7.968 L 45.759 0.526 22.880 0.526 L 0.000 0.526 0.000 23.796 M30.666 15.932 C 30.578 16.161,30.506 19.889,30.506 24.216 L 30.506 32.084 29.783 32.080 C 29.219 32.077,29.147 32.020,29.454 31.821 C 29.737 31.638,29.462 31.565,28.484 31.562 C 27.733 31.560,27.039 31.687,26.941 31.845 C 26.727 32.191,18.420 31.897,18.028 31.529 C 17.890 31.401,17.251 31.295,16.608 31.295 L 15.438 31.295 15.582 26.956 C 15.664 24.464,15.625 22.617,15.489 22.617 C 15.359 22.617,15.253 21.907,15.253 21.039 C 15.253 20.092,15.366 19.461,15.535 19.461 C 15.723 19.461,15.758 18.986,15.639 18.040 L 15.462 16.618 16.396 16.175 C 16.997 15.890,17.608 15.792,18.108 15.902 C 18.558 16.001,18.957 15.956,19.057 15.794 C 19.371 15.286,30.862 15.422,30.666 15.932 M380.218 15.756 C 384.918 15.717,384.484 14.895,384.484 23.832 L 384.484 31.295 383.169 31.295 C 382.446 31.295,381.854 31.397,381.854 31.522 C 381.854 31.877,373.435 32.186,373.092 31.843 C 372.936 31.686,372.210 31.560,371.479 31.562 C 370.525 31.565,370.262 31.638,370.546 31.821 C 370.853 32.020,370.781 32.077,370.217 32.080 L 369.494 32.084 369.494 24.216 C 369.494 19.889,369.419 16.154,369.329 15.918 C 369.179 15.528,369.516 15.501,372.945 15.636 C 375.024 15.717,378.297 15.771,380.218 15.756 M354.302 39.382 L 354.372 46.943 361.933 47.013 L 369.494 47.082 369.494 131.466 L 369.494 215.849 368.902 216.008 C 368.577 216.095,365.145 216.168,361.275 216.170 L 354.241 216.174 354.241 223.669 L 354.241 231.164 200.000 231.164 L 45.759 231.164 45.759 223.669 L 45.759 216.174 38.725 216.170 C 34.855 216.168,31.423 216.095,31.098 216.008 L 30.506 215.849 30.506 131.466 L 30.506 47.082 38.067 47.013 L 45.628 46.943 45.698 39.382 L 45.767 31.821 200.000 31.821 L 354.233 31.821 354.302 39.382 M20.907 231.164 C 21.006 231.323,22.926 231.427,25.788 231.427 L 30.506 231.427 30.506 239.053 L 30.506 246.680 23.043 246.680 C 16.713 246.680,15.531 246.620,15.251 246.283 C 14.812 245.754,15.005 235.586,15.458 235.435 C 15.660 235.367,15.707 234.809,15.604 233.703 C 15.416 231.690,15.666 231.420,17.959 231.159 C 20.426 230.878,20.731 230.878,20.907 231.164 M370.677 231.164 C 370.578 231.324,370.976 231.427,371.698 231.427 C 372.349 231.427,372.948 231.318,373.030 231.186 C 373.217 230.884,381.364 231.140,381.709 231.459 C 381.847 231.586,382.509 231.690,383.181 231.690 L 384.404 231.690 384.564 234.883 C 384.658 236.752,384.620 238.272,384.473 238.548 C 384.125 239.198,384.156 240.829,384.518 240.949 C 384.711 241.014,384.826 242.014,384.847 243.798 L 384.878 246.548 377.186 246.618 L 369.494 246.688 369.494 238.794 L 369.494 230.901 370.167 230.901 C 370.548 230.901,370.769 231.015,370.677 231.164 " stroke="none" fill="#040404" fill-rule="evenodd"></path><path id="path1" d="M6.312 0.192 C 22.873 0.371,46.285 0.375,46.285 0.197 C 46.285 0.089,35.842 0.027,23.077 0.061 C 10.312 0.094,2.768 0.153,6.312 0.192 M353.715 0.197 C 353.715 0.375,377.127 0.371,393.688 0.192 C 397.232 0.153,389.688 0.094,376.923 0.061 C 364.158 0.027,353.715 0.089,353.715 0.197 M369.494 15.838 C 369.494 15.950,369.967 16.042,370.546 16.042 C 371.124 16.042,371.598 15.995,371.598 15.938 C 371.598 15.881,371.124 15.789,370.546 15.734 C 369.967 15.679,369.494 15.726,369.494 15.838 M17.094 16.305 C 17.094 16.450,17.331 16.568,17.620 16.568 C 17.909 16.568,18.146 16.450,18.146 16.305 C 18.146 16.160,17.909 16.042,17.620 16.042 C 17.331 16.042,17.094 16.160,17.094 16.305 M378.961 16.305 C 378.961 16.457,379.794 16.568,380.934 16.568 C 382.073 16.568,382.906 16.457,382.906 16.305 C 382.906 16.153,382.073 16.042,380.934 16.042 C 379.794 16.042,378.961 16.153,378.961 16.305 M15.633 17.380 C 15.536 17.537,15.588 17.798,15.749 17.958 C 15.964 18.173,16.042 18.097,16.042 17.673 C 16.042 17.038,15.905 16.940,15.633 17.380 M15.605 25.131 C 15.518 25.357,15.565 26.275,15.708 27.170 L 15.969 28.797 16.005 26.759 C 16.041 24.771,15.925 24.298,15.605 25.131 M23.406 31.558 C 23.929 31.896,27.087 31.896,27.087 31.558 C 27.087 31.405,26.235 31.297,25.049 31.299 C 23.636 31.302,23.132 31.381,23.406 31.558 M372.913 31.558 C 372.913 31.896,376.071 31.896,376.594 31.558 C 376.868 31.381,376.364 31.302,374.951 31.299 C 373.765 31.297,372.913 31.405,372.913 31.558 M123.164 32.281 C 165.520 32.318,234.751 32.318,277.010 32.281 C 319.270 32.245,284.615 32.215,200.000 32.215 C 115.385 32.215,80.809 32.245,123.164 32.281 M30.769 131.492 C 30.769 187.550,30.857 215.624,31.032 215.516 C 31.397 215.291,31.397 47.694,31.032 47.469 C 30.857 47.361,30.769 75.435,30.769 131.492 M368.880 47.513 C 368.583 47.809,368.671 215.333,368.968 215.516 C 369.143 215.624,369.231 187.555,369.231 131.508 C 369.231 85.214,369.191 47.337,369.143 47.337 C 369.095 47.337,368.977 47.416,368.880 47.513 M123.164 230.835 C 165.520 230.872,234.751 230.872,277.010 230.835 C 319.270 230.798,284.615 230.768,200.000 230.768 C 115.385 230.768,80.809 230.798,123.164 230.835 M18.803 231.427 C 18.418 231.592,18.651 231.658,19.674 231.671 C 20.542 231.683,21.008 231.590,20.907 231.427 C 20.713 231.112,19.536 231.112,18.803 231.427 M372.913 231.427 C 372.913 231.583,373.790 231.677,375.082 231.659 C 376.642 231.636,377.030 231.571,376.463 231.427 C 375.280 231.126,372.913 231.126,372.913 231.427 M16.042 231.953 C 16.042 232.097,16.220 232.216,16.437 232.216 C 16.654 232.216,16.831 232.097,16.831 231.953 C 16.831 231.808,16.654 231.690,16.437 231.690 C 16.220 231.690,16.042 231.808,16.042 231.953 M15.667 233.443 C 15.575 233.684,15.621 234.004,15.770 234.153 C 15.957 234.340,16.042 234.203,16.042 233.715 C 16.042 232.903,15.911 232.808,15.667 233.443 M383.989 236.636 C 383.969 238.033,384.053 238.763,384.221 238.659 C 384.521 238.473,384.521 236.418,384.221 235.240 C 384.077 234.674,384.011 235.069,383.989 236.636 M399.850 252.334 C 399.850 255.661,399.888 256.985,399.934 255.278 C 399.979 253.570,399.979 250.848,399.933 249.229 C 399.887 247.610,399.850 249.007,399.850 252.334 M0.113 252.728 C 0.113 256.128,0.151 257.518,0.196 255.819 C 0.242 254.119,0.242 251.338,0.196 249.638 C 0.151 247.939,0.113 249.329,0.113 252.728 M46.285 252.844 C 46.285 254.170,46.393 255.095,46.548 255.095 C 46.702 255.095,46.811 254.224,46.811 253.007 C 46.811 251.858,46.693 250.845,46.548 250.756 C 46.381 250.653,46.285 251.411,46.285 252.844 M353.189 252.991 C 353.189 254.219,353.298 255.095,353.452 255.095 C 353.605 255.095,353.715 254.219,353.715 252.991 C 353.715 251.764,353.605 250.888,353.452 250.888 C 353.298 250.888,353.189 251.764,353.189 252.991 M0.263 262.459 C 0.263 262.627,2.229 262.707,5.720 262.679 C 10.337 262.643,10.792 262.607,8.679 262.446 C 4.819 262.151,0.263 262.158,0.263 262.459 M391.059 262.459 C 389.411 262.580,390.259 262.637,394.280 262.673 C 397.775 262.704,399.737 262.627,399.737 262.459 C 399.737 262.175,394.909 262.175,391.059 262.459 M42.604 262.722 L 39.316 262.878 42.801 262.932 C 44.984 262.965,46.285 262.887,46.285 262.722 C 46.285 262.577,46.197 262.483,46.088 262.512 C 45.980 262.542,44.412 262.636,42.604 262.722 M353.714 262.788 C 353.715 262.896,355.283 262.966,357.199 262.943 C 360.993 262.897,360.660 262.779,356.410 262.664 C 354.927 262.623,353.714 262.679,353.714 262.788 " stroke="none" fill="#d5d5d5" fill-rule="evenodd"></path><path id="path2" d="M46.138 7.890 C 46.138 12.012,46.175 13.698,46.219 11.637 C 46.263 9.576,46.263 6.203,46.219 4.142 C 46.175 2.081,46.138 3.767,46.138 7.890 M353.831 7.890 C 353.831 12.012,353.867 13.698,353.911 11.637 C 353.956 9.576,353.956 6.203,353.911 4.142 C 353.867 2.081,353.831 3.767,353.831 7.890 M46.138 39.579 C 46.138 43.629,46.175 45.249,46.219 43.179 C 46.264 41.109,46.263 37.796,46.219 35.816 C 46.174 33.836,46.138 35.529,46.138 39.579 M353.830 39.579 C 353.830 43.629,353.867 45.249,353.911 43.179 C 353.956 41.109,353.956 37.796,353.911 35.816 C 353.867 33.836,353.830 35.529,353.830 39.579 M15.253 131.545 C 15.181 177.787,15.211 215.532,15.319 215.424 C 15.428 215.315,15.487 177.481,15.451 131.347 L 15.385 47.469 15.253 131.545 M46.138 223.406 C 46.138 227.456,46.175 229.076,46.219 227.006 C 46.264 224.936,46.263 221.622,46.219 219.642 C 46.174 217.662,46.138 219.356,46.138 223.406 M353.830 223.406 C 353.830 227.456,353.867 229.076,353.911 227.006 C 353.956 224.936,353.956 221.622,353.911 219.642 C 353.867 217.662,353.830 219.356,353.830 223.406 M399.816 238.527 C 399.816 239.323,399.865 239.648,399.925 239.250 C 399.986 238.853,399.986 238.202,399.925 237.804 C 399.865 237.406,399.816 237.732,399.816 238.527 M15.253 238.643 C 15.253 239.141,15.371 239.621,15.516 239.711 C 15.675 239.809,15.779 239.450,15.779 238.806 C 15.779 238.219,15.661 237.738,15.516 237.738 C 15.371 237.738,15.253 238.146,15.253 238.643 M0.075 239.185 C 0.077 239.908,0.128 240.173,0.189 239.773 C 0.249 239.373,0.248 238.781,0.185 238.458 C 0.123 238.134,0.073 238.462,0.075 239.185 M123.427 247.140 C 165.638 247.177,234.632 247.177,276.747 247.140 C 318.862 247.103,284.326 247.073,200.000 247.073 C 115.674 247.073,81.216 247.103,123.427 247.140 M46.285 248.126 C 46.285 248.343,46.404 248.521,46.548 248.521 C 46.693 248.521,46.811 248.343,46.811 248.126 C 46.811 247.909,46.693 247.732,46.548 247.732 C 46.404 247.732,46.285 247.909,46.285 248.126 M0.349 251.545 C 0.350 252.558,0.398 252.940,0.455 252.394 C 0.512 251.848,0.511 251.020,0.453 250.553 C 0.395 250.086,0.348 250.533,0.349 251.545 M399.564 254.438 C 399.565 255.595,399.611 256.036,399.667 255.417 C 399.722 254.799,399.722 253.852,399.665 253.313 C 399.609 252.775,399.563 253.281,399.564 254.438 M15.122 262.471 C 15.845 262.584,16.910 262.670,17.488 262.662 C 18.404 262.650,18.353 262.622,17.094 262.448 C 16.298 262.338,15.233 262.252,14.727 262.257 C 13.990 262.264,14.068 262.307,15.122 262.471 M382.774 262.459 C 381.519 262.631,381.507 262.640,382.512 262.658 C 383.090 262.668,384.155 262.584,384.878 262.471 C 386.653 262.195,384.780 262.184,382.774 262.459 M41.364 262.654 C 42.201 262.706,43.503 262.705,44.257 262.652 C 45.011 262.600,44.326 262.557,42.735 262.557 C 41.144 262.558,40.527 262.601,41.364 262.654 M355.894 262.654 C 356.731 262.706,358.033 262.705,358.787 262.652 C 359.541 262.600,358.856 262.557,357.265 262.557 C 355.674 262.558,355.057 262.601,355.894 262.654 " stroke="none" fill="#747474" fill-rule="evenodd"></path><path id="path3" d="M45.821 7.903 C 45.775 13.462,45.841 15.493,46.075 15.726 C 46.410 16.061,352.954 16.217,353.825 15.882 C 354.193 15.741,354.234 14.841,354.179 8.059 L 354.118 0.394 354.044 7.824 L 353.969 15.253 200.000 15.253 L 46.031 15.253 45.956 7.824 L 45.882 0.394 45.821 7.903 M19.066 15.779 C 18.883 16.076,19.477 16.076,20.644 15.779 C 21.390 15.589,21.372 15.577,20.331 15.547 C 19.725 15.530,19.156 15.634,19.066 15.779 M373.833 15.779 C 374.596 16.107,377.102 16.107,376.594 15.779 C 376.377 15.639,375.549 15.531,374.753 15.539 C 373.705 15.549,373.452 15.615,373.833 15.779 M16.743 15.954 C 16.647 16.051,16.570 16.258,16.572 16.415 C 16.575 16.604,16.641 16.598,16.769 16.397 C 16.876 16.231,17.258 16.040,17.620 15.973 L 18.277 15.851 17.598 15.815 C 17.224 15.795,16.840 15.858,16.743 15.954 M381.525 15.975 L 383.958 16.062 383.958 23.679 C 383.958 28.581,384.052 31.295,384.221 31.295 C 384.626 31.295,384.575 16.501,384.168 16.095 C 383.960 15.887,383.040 15.798,381.473 15.834 L 379.093 15.888 381.525 15.975 M15.253 21.039 C 15.253 21.915,15.370 22.617,15.516 22.617 C 15.662 22.617,15.779 21.915,15.779 21.039 C 15.779 20.162,15.662 19.461,15.516 19.461 C 15.370 19.461,15.253 20.162,15.253 21.039 M15.516 30.638 C 15.516 30.999,15.618 31.295,15.743 31.295 C 15.867 31.295,15.913 30.999,15.843 30.638 C 15.774 30.276,15.672 29.980,15.617 29.980 C 15.561 29.980,15.516 30.276,15.516 30.638 M18.014 31.558 C 18.104 31.703,18.703 31.821,19.345 31.821 C 19.987 31.821,20.513 31.703,20.513 31.558 C 20.513 31.414,19.914 31.295,19.182 31.295 C 18.362 31.295,17.914 31.396,18.014 31.558 M379.356 31.558 C 379.256 31.720,379.704 31.821,380.524 31.821 C 381.255 31.821,381.854 31.703,381.854 31.558 C 381.854 31.414,381.328 31.295,380.686 31.295 C 380.044 31.295,379.445 31.414,379.356 31.558 M29.454 31.821 C 29.147 32.020,29.219 32.077,29.783 32.080 C 30.181 32.082,30.506 31.966,30.506 31.821 C 30.506 31.489,29.969 31.489,29.454 31.821 M369.494 31.821 C 369.494 31.966,369.819 32.082,370.217 32.080 C 370.781 32.077,370.853 32.020,370.546 31.821 C 370.031 31.489,369.494 31.489,369.494 31.821 M23.873 32.014 C 24.491 32.070,25.438 32.069,25.977 32.012 C 26.515 31.956,26.009 31.910,24.852 31.911 C 23.695 31.912,23.254 31.959,23.873 32.014 M45.757 39.316 L 45.628 46.943 38.067 47.013 C 33.817 47.052,30.506 47.186,30.506 47.319 C 30.506 47.453,33.743 47.570,37.951 47.588 L 45.397 47.620 45.716 47.019 C 45.950 46.578,46.015 44.447,45.961 39.053 L 45.886 31.690 45.757 39.316 M354.046 39.185 C 354.005 45.073,354.069 46.778,354.344 47.140 C 354.661 47.558,355.323 47.600,361.502 47.597 C 370.930 47.592,371.270 47.234,361.999 47.074 L 354.372 46.943 354.235 39.316 L 354.097 31.690 354.046 39.185 M374.169 32.014 C 374.787 32.070,375.734 32.069,376.273 32.012 C 376.811 31.956,376.305 31.910,375.148 31.911 C 373.991 31.912,373.550 31.959,374.169 32.014 M0.000 47.337 C 0.000 47.507,2.767 47.600,7.774 47.600 C 12.889 47.600,15.492 47.510,15.385 47.337 C 15.282 47.172,12.401 47.074,7.611 47.074 C 2.712 47.074,0.000 47.168,0.000 47.337 M384.659 47.250 C 384.315 47.594,384.455 215.513,384.799 215.858 C 385.328 216.386,400.000 216.303,400.000 215.771 C 400.000 215.418,399.075 215.378,392.373 215.443 L 384.747 215.516 384.747 131.492 L 384.747 47.469 392.373 47.542 C 397.476 47.591,400.000 47.526,400.000 47.345 C 400.000 47.042,384.960 46.949,384.659 47.250 M0.000 215.772 C 0.000 216.186,14.066 216.411,15.100 216.014 C 16.330 215.542,14.793 215.412,7.758 215.392 C 0.969 215.374,0.000 215.421,0.000 215.772 M31.215 215.553 C 30.703 216.064,31.995 216.174,38.543 216.174 L 45.759 216.174 45.821 223.734 L 45.882 231.295 45.959 223.932 C 46.059 214.295,47.023 215.385,38.395 215.385 C 34.538 215.385,31.307 215.460,31.215 215.553 M354.281 215.972 C 354.051 216.406,353.986 218.574,354.041 223.932 L 354.118 231.295 354.179 223.739 L 354.241 216.182 361.538 216.112 C 371.254 216.019,371.334 215.542,361.651 215.446 L 354.597 215.376 354.281 215.972 M399.616 236.213 C 399.516 242.042,399.472 248.113,399.519 249.704 C 399.567 251.295,399.703 246.581,399.823 239.227 C 399.943 231.874,399.986 225.803,399.920 225.736 C 399.854 225.670,399.717 230.385,399.616 236.213 M0.084 231.427 C 0.079 234.247,0.154 239.573,0.250 243.261 L 0.426 249.967 0.443 242.867 C 0.453 238.961,0.378 233.636,0.277 231.032 L 0.094 226.298 0.084 231.427 M369.494 231.164 C 369.494 231.308,369.723 231.427,370.004 231.427 C 370.285 231.427,370.588 231.308,370.677 231.164 C 370.769 231.015,370.548 230.901,370.167 230.901 C 369.797 230.901,369.494 231.019,369.494 231.164 M373.636 231.086 C 373.961 231.149,374.494 231.149,374.819 231.086 C 375.145 231.024,374.878 230.972,374.227 230.972 C 373.577 230.972,373.310 231.024,373.636 231.086 M16.831 231.427 C 16.831 231.571,17.002 231.690,17.210 231.690 C 17.418 231.690,17.662 231.571,17.751 231.427 C 17.841 231.282,17.670 231.164,17.373 231.164 C 17.075 231.164,16.831 231.282,16.831 231.427 M379.224 231.427 C 379.754 231.769,381.934 231.769,381.723 231.427 C 381.633 231.282,380.946 231.166,380.195 231.168 C 379.216 231.171,378.941 231.244,379.224 231.427 M15.159 236.988 C 14.861 239.837,14.958 246.016,15.306 246.364 C 15.712 246.771,30.506 246.822,30.506 246.417 C 30.506 246.248,27.789 246.154,22.880 246.154 L 15.253 246.154 15.253 241.946 C 15.253 239.316,15.352 237.738,15.516 237.738 C 15.661 237.738,15.779 237.206,15.779 236.555 C 15.779 234.817,15.355 235.113,15.159 236.988 M384.556 237.212 C 384.556 237.863,384.607 238.130,384.669 237.804 C 384.732 237.479,384.732 236.946,384.669 236.621 C 384.607 236.295,384.556 236.561,384.556 237.212 M384.221 242.225 C 384.221 243.045,384.322 243.493,384.484 243.393 C 384.648 243.291,384.747 243.806,384.747 244.758 L 384.747 246.285 377.120 246.212 C 371.947 246.162,369.494 246.227,369.494 246.413 C 369.494 246.599,371.970 246.665,377.186 246.618 L 384.878 246.548 384.965 245.365 C 385.083 243.758,384.761 240.894,384.463 240.894 C 384.330 240.894,384.221 241.493,384.221 242.225 M46.338 246.995 C 46.133 247.201,46.041 248.096,46.075 249.560 L 46.128 251.808 46.218 249.770 C 46.267 248.649,46.421 247.732,46.559 247.732 C 46.698 247.732,46.811 247.554,46.811 247.337 C 46.811 246.987,64.008 246.943,200.000 246.943 L 353.189 246.943 353.189 247.616 C 353.189 247.986,353.301 248.219,353.438 248.134 C 353.581 248.046,353.729 248.630,353.783 249.500 L 353.878 251.019 353.928 249.265 C 353.955 248.301,353.906 247.325,353.818 247.096 C 353.607 246.546,46.887 246.446,46.338 246.995 M45.957 257.350 C 45.848 257.460,45.763 258.211,45.767 259.018 C 45.774 260.148,45.837 260.380,46.045 260.024 C 46.346 259.506,46.265 257.038,45.957 257.350 M353.719 258.580 C 353.721 259.195,353.837 259.875,353.978 260.092 C 354.159 260.372,354.234 260.048,354.237 258.974 C 354.239 258.139,354.123 257.462,353.978 257.462 C 353.833 257.462,353.716 257.965,353.719 258.580 M17.357 262.470 C 19.588 262.778,26.359 262.770,26.167 262.459 C 26.066 262.296,24.080 262.210,20.958 262.233 C 17.424 262.259,16.344 262.330,17.357 262.470 M373.833 262.459 C 373.641 262.770,380.412 262.778,382.643 262.470 C 383.656 262.330,382.576 262.259,379.042 262.233 C 375.920 262.210,373.934 262.296,373.833 262.459 " stroke="none" fill="#616161" fill-rule="evenodd"></path><path id="path4" d="M11.374 0.460 C 17.702 0.499,28.057 0.499,34.385 0.460 C 40.713 0.421,35.536 0.389,22.880 0.389 C 10.224 0.389,5.046 0.421,11.374 0.460 M365.615 0.460 C 371.943 0.499,382.298 0.499,388.626 0.460 C 394.954 0.421,389.776 0.389,377.120 0.389 C 364.464 0.389,359.287 0.421,365.615 0.460 M21.828 15.779 C 21.290 15.892,22.901 15.987,25.707 16.007 C 28.754 16.029,30.506 15.946,30.506 15.779 C 30.506 15.475,23.274 15.475,21.828 15.779 M370.809 15.793 C 372.453 16.085,374.102 16.076,373.176 15.779 C 372.814 15.663,371.867 15.572,371.072 15.575 L 369.625 15.582 370.809 15.793 M382.906 16.305 C 382.906 16.450,383.143 16.568,383.432 16.568 C 383.721 16.568,383.958 16.450,383.958 16.305 C 383.958 16.160,383.721 16.042,383.432 16.042 C 383.143 16.042,382.906 16.160,382.906 16.305 M15.573 28.139 C 15.570 28.790,15.663 29.619,15.779 29.980 C 16.085 30.934,16.096 29.466,15.794 28.008 L 15.577 26.956 15.573 28.139 M21.170 31.558 C 21.260 31.703,21.888 31.819,22.566 31.817 C 23.460 31.814,23.691 31.743,23.406 31.558 C 22.877 31.216,20.959 31.216,21.170 31.558 M376.594 31.558 C 376.309 31.743,376.540 31.814,377.434 31.817 C 378.112 31.819,378.740 31.703,378.830 31.558 C 379.041 31.216,377.123 31.216,376.594 31.558 M46.194 32.018 C 46.127 32.127,115.340 32.216,200.000 32.216 C 284.660 32.216,353.873 32.127,353.806 32.018 C 353.738 31.910,284.526 31.821,200.000 31.821 C 115.474 31.821,46.262 31.910,46.194 32.018 M353.715 47.184 C 353.715 47.413,353.902 47.600,354.131 47.600 C 354.360 47.600,354.501 47.460,354.443 47.288 C 354.281 46.800,353.715 46.719,353.715 47.184 M15.120 131.492 C 15.120 177.705,15.150 196.611,15.187 173.504 C 15.224 150.398,15.224 112.587,15.187 89.481 C 15.150 66.374,15.120 85.279,15.120 131.492 M30.636 131.492 C 30.636 177.705,30.666 196.611,30.703 173.504 C 30.741 150.398,30.741 112.587,30.703 89.481 C 30.666 66.374,30.636 85.279,30.636 131.492 M369.361 131.492 C 369.361 177.705,369.391 196.611,369.428 173.504 C 369.465 150.398,369.465 112.587,369.428 89.481 C 369.391 66.374,369.361 85.279,369.361 131.492 M384.877 131.492 C 384.877 177.705,384.907 196.611,384.944 173.504 C 384.981 150.398,384.981 112.587,384.944 89.481 C 384.907 66.374,384.877 85.279,384.877 131.492 M353.802 215.786 C 353.802 216.241,354.284 216.174,354.443 215.697 C 354.501 215.525,354.380 215.385,354.175 215.385 C 353.970 215.385,353.802 215.565,353.802 215.786 M46.022 230.966 C 46.022 231.075,115.312 231.164,200.000 231.164 C 284.688 231.164,353.978 231.075,353.978 230.966 C 353.978 230.858,284.688 230.769,200.000 230.769 C 115.312 230.769,46.022 230.858,46.022 230.966 M17.883 231.427 C 17.883 231.735,18.085 231.735,18.803 231.427 C 19.269 231.226,19.247 231.199,18.606 231.182 C 18.208 231.172,17.883 231.282,17.883 231.427 M376.463 231.427 C 377.624 231.722,379.254 231.722,378.567 231.427 C 378.277 231.302,377.508 231.206,376.857 231.213 C 375.789 231.225,375.751 231.245,376.463 231.427 M384.015 233.399 C 384.018 233.978,384.110 234.806,384.221 235.240 C 384.401 235.948,384.422 235.908,384.427 234.845 C 384.429 234.195,384.337 233.366,384.221 233.005 C 384.042 232.445,384.011 232.504,384.015 233.399 M15.253 242.851 C 15.253 244.878,15.355 246.154,15.516 246.154 C 15.677 246.154,15.779 244.932,15.779 243.014 C 15.779 241.204,15.668 239.804,15.516 239.711 C 15.346 239.606,15.253 240.716,15.253 242.851 M399.839 243.130 C 399.840 245.010,399.882 245.745,399.932 244.762 C 399.983 243.780,399.983 242.241,399.931 241.343 C 399.880 240.445,399.839 241.249,399.839 243.130 M0.101 243.524 C 0.101 245.332,0.143 246.072,0.195 245.168 C 0.246 244.264,0.246 242.784,0.195 241.880 C 0.143 240.976,0.101 241.716,0.101 243.524 M384.221 244.808 C 384.221 245.386,384.339 245.933,384.484 246.022 C 384.642 246.120,384.747 245.767,384.747 245.133 C 384.747 244.554,384.629 244.008,384.484 243.918 C 384.325 243.820,384.221 244.174,384.221 244.808 M46.285 249.557 C 46.285 250.127,46.404 250.667,46.548 250.756 C 46.709 250.855,46.811 250.452,46.811 249.720 C 46.811 249.060,46.693 248.521,46.548 248.521 C 46.404 248.521,46.285 248.987,46.285 249.557 M353.189 249.689 C 353.189 250.348,353.307 250.888,353.452 250.888 C 353.596 250.888,353.715 250.421,353.715 249.851 C 353.715 249.281,353.596 248.742,353.452 248.652 C 353.291 248.553,353.189 248.956,353.189 249.689 M353.796 253.386 C 353.798 254.254,353.847 254.577,353.905 254.104 C 353.964 253.632,353.963 252.922,353.903 252.527 C 353.843 252.131,353.795 252.518,353.796 253.386 M46.089 253.912 C 46.092 254.490,46.145 254.696,46.208 254.369 C 46.271 254.042,46.269 253.569,46.203 253.317 C 46.137 253.066,46.086 253.333,46.089 253.912 M0.360 255.884 C 0.360 257.403,0.404 258.024,0.457 257.265 C 0.510 256.506,0.510 255.263,0.457 254.504 C 0.404 253.744,0.360 254.366,0.360 255.884 M399.535 257.199 C 399.535 257.705,399.589 257.913,399.655 257.659 C 399.721 257.406,399.721 256.992,399.655 256.739 C 399.589 256.486,399.535 256.693,399.535 257.199 M46.016 260.552 C 46.013 260.661,45.909 261.184,45.785 261.715 C 45.605 262.490,45.633 262.653,45.923 262.542 C 46.258 262.413,46.475 260.355,46.154 260.355 C 46.082 260.355,46.020 260.444,46.016 260.552 M353.715 261.495 C 353.715 261.994,353.867 262.461,354.053 262.532 C 354.299 262.627,354.363 262.419,354.287 261.769 C 354.146 260.566,353.715 260.359,353.715 261.495 M9.204 262.472 C 12.781 262.745,16.665 262.728,14.859 262.447 C 14.135 262.334,12.005 262.251,10.125 262.262 L 6.706 262.281 9.204 262.472 M385.010 262.459 C 383.340 262.719,387.449 262.728,390.796 262.472 L 393.294 262.281 389.744 262.278 C 387.791 262.276,385.661 262.358,385.010 262.459 " stroke="none" fill="#7c7c7c" fill-rule="evenodd"></path></g></svg>