<svg height="479.88458pt" viewBox="0 0 479.88458 479.88458" width="479.88458pt" xmlns="http://www.w3.org/2000/svg"><path d="m477.542969 92.863281-90.519531-90.519531c-3.125-3.125-8.1875-3.125-11.3125 0l-373.367188 373.367188c-3.125 3.125-3.125 8.1875 0 11.3125l90.519531 90.519531c3.121094 3.121093 8.1875 3.121093 11.3125 0l373.367188-373.367188c3.121093-3.125 3.121093-8.191406 0-11.3125zm-379.023438 367.695313-79.203125-79.199219 39.601563-39.601563 39.59375 39.601563 11.3125-11.3125-39.59375-39.601563 33.945312-33.941406 28.277344 28.277344 11.3125-11.3125-28.28125-28.277344 33.945313-33.945312 39.59375 39.601562 11.320312-11.304687-39.601562-39.601563 33.9375-33.933594 28.285156 28.277344 11.3125-11.3125-28.285156-28.285156 33.949218-33.945312 39.601563 39.59375 11.3125-11.3125-39.601563-39.59375 33.945313-33.953126 28.277343 28.289063 11.3125-11.3125-28.277343-28.285156 33.941406-33.9375 39.601563 39.59375 11.3125-11.3125-39.601563-39.59375 39.601563-39.601563 79.199218 79.203125zm0 0"/></svg>